G04 #@! TF.GenerationSoftware,KiCad,Pcbnew,8.0.6*
G04 #@! TF.CreationDate,2024-12-21T11:06:13+01:00*
G04 #@! TF.ProjectId,s3main,73336d61-696e-42e6-9b69-6361645f7063,A*
G04 #@! TF.SameCoordinates,Original*
G04 #@! TF.FileFunction,Copper,L2,Bot*
G04 #@! TF.FilePolarity,Positive*
%FSLAX46Y46*%
G04 Gerber Fmt 4.6, Leading zero omitted, Abs format (unit mm)*
G04 Created by KiCad (PCBNEW 8.0.6) date 2024-12-21 11:06:13*
%MOMM*%
%LPD*%
G01*
G04 APERTURE LIST*
G04 Aperture macros list*
%AMRoundRect*
0 Rectangle with rounded corners*
0 $1 Rounding radius*
0 $2 $3 $4 $5 $6 $7 $8 $9 X,Y pos of 4 corners*
0 Add a 4 corners polygon primitive as box body*
4,1,4,$2,$3,$4,$5,$6,$7,$8,$9,$2,$3,0*
0 Add four circle primitives for the rounded corners*
1,1,$1+$1,$2,$3*
1,1,$1+$1,$4,$5*
1,1,$1+$1,$6,$7*
1,1,$1+$1,$8,$9*
0 Add four rect primitives between the rounded corners*
20,1,$1+$1,$2,$3,$4,$5,0*
20,1,$1+$1,$4,$5,$6,$7,0*
20,1,$1+$1,$6,$7,$8,$9,0*
20,1,$1+$1,$8,$9,$2,$3,0*%
G04 Aperture macros list end*
G04 #@! TA.AperFunction,HeatsinkPad*
%ADD10C,0.500000*%
G04 #@! TD*
G04 #@! TA.AperFunction,HeatsinkPad*
%ADD11R,2.600000X2.600000*%
G04 #@! TD*
G04 #@! TA.AperFunction,ComponentPad*
%ADD12C,0.800000*%
G04 #@! TD*
G04 #@! TA.AperFunction,ComponentPad*
%ADD13C,6.400000*%
G04 #@! TD*
G04 #@! TA.AperFunction,ComponentPad*
%ADD14O,1.000000X2.100000*%
G04 #@! TD*
G04 #@! TA.AperFunction,ComponentPad*
%ADD15O,1.000000X1.800000*%
G04 #@! TD*
G04 #@! TA.AperFunction,ComponentPad*
%ADD16RoundRect,0.250000X-0.650000X-1.550000X0.650000X-1.550000X0.650000X1.550000X-0.650000X1.550000X0*%
G04 #@! TD*
G04 #@! TA.AperFunction,ComponentPad*
%ADD17O,1.800000X3.600000*%
G04 #@! TD*
G04 #@! TA.AperFunction,HeatsinkPad*
%ADD18R,3.000000X2.600000*%
G04 #@! TD*
G04 #@! TA.AperFunction,SMDPad,CuDef*
%ADD19RoundRect,0.250000X0.450000X-0.350000X0.450000X0.350000X-0.450000X0.350000X-0.450000X-0.350000X0*%
G04 #@! TD*
G04 #@! TA.AperFunction,ViaPad*
%ADD20C,0.600000*%
G04 #@! TD*
G04 #@! TA.AperFunction,Conductor*
%ADD21C,0.250000*%
G04 #@! TD*
G04 #@! TA.AperFunction,Conductor*
%ADD22C,0.400000*%
G04 #@! TD*
G04 #@! TA.AperFunction,Conductor*
%ADD23C,0.800000*%
G04 #@! TD*
G04 #@! TA.AperFunction,Conductor*
%ADD24C,0.200000*%
G04 #@! TD*
G04 APERTURE END LIST*
D10*
X152350000Y-97150000D03*
X152350000Y-98200000D03*
X152350000Y-99250000D03*
X153400000Y-97150000D03*
X153400000Y-98200000D03*
D11*
X153400000Y-98200000D03*
D10*
X153400000Y-99250000D03*
X154450000Y-97150000D03*
X154450000Y-98200000D03*
X154450000Y-99250000D03*
D12*
X116800000Y-72500000D03*
X117502944Y-70802944D03*
X117502944Y-74197056D03*
X119200000Y-70100000D03*
D13*
X119200000Y-72500000D03*
D12*
X119200000Y-74900000D03*
X120897056Y-70802944D03*
X120897056Y-74197056D03*
X121600000Y-72500000D03*
D14*
X132520000Y-74205000D03*
D15*
X132520000Y-70025000D03*
D14*
X123880000Y-74205000D03*
D15*
X123880000Y-70025000D03*
D12*
X166800000Y-72500000D03*
X167502944Y-70802944D03*
X167502944Y-74197056D03*
X169200000Y-70100000D03*
D13*
X169200000Y-72500000D03*
D12*
X169200000Y-74900000D03*
X170897056Y-70802944D03*
X170897056Y-74197056D03*
X171600000Y-72500000D03*
X166800000Y-122500000D03*
X167502944Y-120802944D03*
X167502944Y-124197056D03*
X169200000Y-120100000D03*
D13*
X169200000Y-122500000D03*
D12*
X169200000Y-124900000D03*
X170897056Y-120802944D03*
X170897056Y-124197056D03*
X171600000Y-122500000D03*
D16*
X150700000Y-118900000D03*
D17*
X154200000Y-118900000D03*
D16*
X139500000Y-118900000D03*
D17*
X144580000Y-118900000D03*
D10*
X140850000Y-112850000D03*
X139600000Y-112850000D03*
X138350000Y-112850000D03*
X140850000Y-113900000D03*
X139600000Y-113900000D03*
D18*
X139600000Y-113900000D03*
D10*
X138350000Y-113900000D03*
X140850000Y-114950000D03*
X139600000Y-114950000D03*
X138350000Y-114950000D03*
D12*
X116800000Y-122500000D03*
X117502944Y-120802944D03*
X117502944Y-124197056D03*
X119200000Y-120100000D03*
D13*
X119200000Y-122500000D03*
D12*
X119200000Y-124900000D03*
X120897056Y-120802944D03*
X120897056Y-124197056D03*
X121600000Y-122500000D03*
D19*
X154200000Y-116100000D03*
X154200000Y-114100000D03*
X150700000Y-116000000D03*
X150700000Y-114000000D03*
D20*
X182800000Y-114000000D03*
X144200000Y-93200000D03*
X152193870Y-93306130D03*
X155700000Y-95700000D03*
X147000000Y-93200000D03*
X182800000Y-73300000D03*
X140400000Y-116600000D03*
X182800000Y-105100000D03*
X117600000Y-99200000D03*
X133550000Y-116600000D03*
X142000000Y-68300000D03*
X126400000Y-105190000D03*
X139600000Y-89790000D03*
X122000000Y-94190000D03*
X133000000Y-113990000D03*
X161600000Y-102990000D03*
X188000000Y-87590000D03*
X124200000Y-94190000D03*
X163800000Y-69990000D03*
X188000000Y-105190000D03*
X179200000Y-74390000D03*
X137400000Y-94190000D03*
X158100000Y-114800000D03*
X150600000Y-78790000D03*
X185800000Y-87590000D03*
X146600000Y-114800000D03*
X133000000Y-96390000D03*
X177000000Y-72190000D03*
X189400000Y-100300000D03*
X148400000Y-74390000D03*
X127600000Y-120500000D03*
X163000000Y-118100000D03*
X183600000Y-69990000D03*
X131000000Y-97000000D03*
X146200000Y-105190000D03*
X170400000Y-94190000D03*
X122000000Y-85390000D03*
X155000000Y-74390000D03*
X139600000Y-87590000D03*
X122000000Y-78790000D03*
X170400000Y-98590000D03*
X177000000Y-87590000D03*
X149700000Y-105300000D03*
X157099503Y-94109287D03*
X124300000Y-90300000D03*
X135200000Y-91990000D03*
X141800000Y-102990000D03*
X159400000Y-83190000D03*
X174800000Y-113990000D03*
X163800000Y-89790000D03*
X137400000Y-96390000D03*
X128600000Y-69990000D03*
X128900000Y-77800000D03*
X119800000Y-78790000D03*
X148400000Y-78790000D03*
X157200000Y-69990000D03*
X188000000Y-122790000D03*
X156500000Y-120600000D03*
X181400000Y-89790000D03*
X119800000Y-83190000D03*
X185800000Y-105190000D03*
X155000000Y-80990000D03*
X185800000Y-124990000D03*
X172600000Y-98590000D03*
X174800000Y-122790000D03*
X174800000Y-69990000D03*
X187400000Y-95200000D03*
X141800000Y-120590000D03*
X168200000Y-91990000D03*
X188000000Y-117700000D03*
X188000000Y-69990000D03*
X157200000Y-115800000D03*
X130800000Y-118390000D03*
X170400000Y-96390000D03*
X174800000Y-85390000D03*
X189400000Y-110100000D03*
X130800000Y-116190000D03*
X185400000Y-110100000D03*
X183600000Y-85390000D03*
X172600000Y-74390000D03*
X116900000Y-110100000D03*
X172600000Y-76590000D03*
X181400000Y-72190000D03*
X179200000Y-120590000D03*
X161600000Y-105190000D03*
X188000000Y-74390000D03*
X179200000Y-89790000D03*
X122000000Y-111790000D03*
X124200000Y-78790000D03*
X128600000Y-83190000D03*
X183600000Y-78790000D03*
X166000000Y-124990000D03*
X147400000Y-69200000D03*
X174800000Y-76590000D03*
X181400000Y-120590000D03*
X146200000Y-100790000D03*
X146200000Y-72190000D03*
X148400000Y-122790000D03*
X139600000Y-94190000D03*
X120200000Y-106000000D03*
X158100000Y-115500000D03*
X119800000Y-89790000D03*
X163800000Y-105190000D03*
X159400000Y-96390000D03*
X155000000Y-83190000D03*
X141800000Y-118390000D03*
X148400000Y-72190000D03*
X159400000Y-80990000D03*
X130600000Y-76700000D03*
X152800000Y-124990000D03*
X147500000Y-114500000D03*
X168200000Y-96390000D03*
X166000000Y-69990000D03*
X188000000Y-124990000D03*
X185800000Y-122790000D03*
X170400000Y-109590000D03*
X130800000Y-111790000D03*
X166900000Y-116200000D03*
X187400000Y-90100000D03*
X150800000Y-92000000D03*
X155000000Y-78790000D03*
X189400000Y-90100000D03*
X152800000Y-83190000D03*
X122000000Y-96390000D03*
X146600000Y-115500000D03*
X185800000Y-69990000D03*
X152800000Y-80990000D03*
X117600000Y-118390000D03*
X124200000Y-83190000D03*
X133000000Y-94190000D03*
X150600000Y-122790000D03*
X177000000Y-89790000D03*
X152800000Y-78790000D03*
X187400000Y-110100000D03*
X185800000Y-120590000D03*
X179200000Y-87590000D03*
X166000000Y-91990000D03*
X157200000Y-74390000D03*
X185800000Y-117700000D03*
X159400000Y-72190000D03*
X159400000Y-74390000D03*
X185400000Y-95200000D03*
X148400000Y-118390000D03*
X181400000Y-74390000D03*
X156400000Y-105300000D03*
X150600000Y-124990000D03*
X158100000Y-114100000D03*
X144000000Y-91990000D03*
X174800000Y-74390000D03*
X146200000Y-102990000D03*
X174800000Y-124990000D03*
X118900000Y-113500000D03*
X172600000Y-96390000D03*
X172600000Y-100790000D03*
X185400000Y-82100000D03*
X130800000Y-69990000D03*
X146200000Y-74390000D03*
X157200000Y-114400000D03*
X137400000Y-91990000D03*
X157200000Y-80990000D03*
X187400000Y-82100000D03*
X144000000Y-124990000D03*
X161600000Y-100790000D03*
X148400000Y-124990000D03*
X181400000Y-105190000D03*
X188000000Y-72190000D03*
X126400000Y-83190000D03*
X137400000Y-74390000D03*
X119800000Y-96390000D03*
X148400000Y-120590000D03*
X124200000Y-96390000D03*
X159800000Y-114300000D03*
X146200000Y-124990000D03*
X185400000Y-90100000D03*
X155000000Y-72190000D03*
X135200000Y-111800000D03*
X128600000Y-85390000D03*
X185800000Y-72190000D03*
X122000000Y-76590000D03*
X156500000Y-118400000D03*
X135200000Y-109590000D03*
X117600000Y-76590000D03*
X139600000Y-91990000D03*
X179200000Y-69990000D03*
X144000000Y-89790000D03*
X130800000Y-120590000D03*
X146200000Y-122790000D03*
X146200000Y-80990000D03*
X139600000Y-69990000D03*
X168200000Y-94190000D03*
X165900000Y-98200000D03*
X185800000Y-74390000D03*
X122000000Y-83190000D03*
X153800000Y-89300000D03*
X150600000Y-85390000D03*
X147500000Y-113800000D03*
X157200000Y-78790000D03*
X187400000Y-100300000D03*
X157200000Y-115100000D03*
X135200000Y-94190000D03*
X144000000Y-87590000D03*
X172600000Y-111790000D03*
X145300000Y-91700000D03*
X144000000Y-122790000D03*
X144000000Y-102990000D03*
X135200000Y-96390000D03*
X126400000Y-85390000D03*
X177000000Y-124990000D03*
X137400000Y-89790000D03*
X141800000Y-124990000D03*
X147500000Y-115200000D03*
X189400000Y-82100000D03*
X157200000Y-72190000D03*
X137400000Y-124990000D03*
X146600000Y-114100000D03*
X159400000Y-69990000D03*
X135200000Y-74390000D03*
X126400000Y-87590000D03*
X159400000Y-78790000D03*
X137400000Y-122790000D03*
X157200000Y-83190000D03*
X122000000Y-113990000D03*
X183600000Y-72190000D03*
X181400000Y-87590000D03*
X179200000Y-105190000D03*
X188000000Y-120590000D03*
X170400000Y-76590000D03*
X122800000Y-102900000D03*
X130800000Y-83190000D03*
X148400000Y-83190000D03*
X183600000Y-87590000D03*
X165900000Y-111200000D03*
X146200000Y-83190000D03*
X183600000Y-80990000D03*
X130800000Y-105190000D03*
X135200000Y-69990000D03*
X185400000Y-100300000D03*
X137400000Y-69990000D03*
X189400000Y-95200000D03*
X155000000Y-69990000D03*
X150600000Y-80990000D03*
X179200000Y-124990000D03*
X130100000Y-100700000D03*
X117600000Y-100700000D03*
X167600000Y-118700000D03*
X167200000Y-109000000D03*
X162100000Y-109000000D03*
X184200000Y-102600000D03*
X117600000Y-112100000D03*
X148800000Y-98600000D03*
X148800000Y-95100000D03*
X147594490Y-107300640D03*
X148900000Y-110800000D03*
X157000000Y-125700000D03*
X157000000Y-124500000D03*
X153200000Y-111200000D03*
X158100000Y-116600000D03*
X152910793Y-106427452D03*
X141800000Y-85500000D03*
X145900000Y-85500000D03*
X148852998Y-111639710D03*
X151770185Y-101816527D03*
X152400000Y-107100000D03*
X152400000Y-111200000D03*
X138600000Y-123800000D03*
X140400000Y-123800000D03*
X142900000Y-84900000D03*
X136200000Y-78600000D03*
X130600000Y-75800000D03*
X125800000Y-75800000D03*
X136900000Y-78000000D03*
X142900000Y-83700000D03*
X163400000Y-98200000D03*
X162000000Y-98200000D03*
X145600000Y-78000000D03*
X141200000Y-73600000D03*
X156300000Y-97273000D03*
X164300000Y-101800000D03*
X140500000Y-111000000D03*
X129800000Y-107200000D03*
X129800000Y-108000000D03*
X139700000Y-111000000D03*
X140600000Y-74200000D03*
X143000000Y-76600000D03*
X163400000Y-76100000D03*
X160600000Y-76100000D03*
X160600000Y-74900000D03*
X163400000Y-74900000D03*
X129800000Y-106400000D03*
X141300000Y-111000000D03*
X151493870Y-92606130D03*
X159000000Y-92600000D03*
X163400000Y-97300000D03*
X161800000Y-97300000D03*
X158474000Y-90500000D03*
X157000000Y-90500000D03*
X157527000Y-96200000D03*
X155000000Y-96200000D03*
X152500000Y-91300000D03*
X150193870Y-91306130D03*
D21*
X117600000Y-99200000D02*
X117600000Y-79085103D01*
X128000000Y-68300000D02*
X142000000Y-68300000D01*
X153306130Y-93306130D02*
X152193870Y-93306130D01*
X182800000Y-72100000D02*
X179000000Y-68300000D01*
X179000000Y-68300000D02*
X142000000Y-68300000D01*
X140400000Y-116600000D02*
X133550000Y-116600000D01*
X147000000Y-93200000D02*
X144200000Y-93200000D01*
X123055000Y-73630103D02*
X123055000Y-73245000D01*
X182800000Y-114000000D02*
X182800000Y-105100000D01*
X123055000Y-73245000D02*
X128000000Y-68300000D01*
X117600000Y-79085103D02*
X123055000Y-73630103D01*
X155700000Y-95700000D02*
X153306130Y-93306130D01*
X182800000Y-73300000D02*
X182800000Y-72100000D01*
D22*
X172300000Y-126700000D02*
X170100000Y-126700000D01*
X184200000Y-124200000D02*
X181700000Y-126700000D01*
X130100000Y-100700000D02*
X117600000Y-100700000D01*
X172800000Y-123991169D02*
X170100000Y-126691169D01*
X117600000Y-112100000D02*
X117600000Y-100700000D01*
X181700000Y-126700000D02*
X172300000Y-126700000D01*
X184200000Y-102600000D02*
X184200000Y-124200000D01*
X170100000Y-126700000D02*
X128491169Y-126700000D01*
X170491169Y-118700000D02*
X172800000Y-121008831D01*
X172800000Y-121008831D02*
X172800000Y-123991169D01*
X128491169Y-126700000D02*
X117600000Y-115808831D01*
X167600000Y-118700000D02*
X170491169Y-118700000D01*
X117600000Y-115808831D02*
X117600000Y-112100000D01*
X162100000Y-109000000D02*
X167200000Y-109000000D01*
X170100000Y-126691169D02*
X170100000Y-126700000D01*
X148800000Y-95100000D02*
X148800000Y-98600000D01*
X148900000Y-110800000D02*
X148900000Y-108606150D01*
D23*
X150700000Y-118900000D02*
X150700000Y-116000000D01*
D22*
X150700000Y-118900000D02*
X150700000Y-119400000D01*
X150700000Y-119400000D02*
X157000000Y-125700000D01*
X148900000Y-108606150D02*
X147594490Y-107300640D01*
X156500000Y-116600000D02*
X154200000Y-118900000D01*
X157000000Y-124500000D02*
X154200000Y-121700000D01*
X153200000Y-111200000D02*
X153200000Y-106716659D01*
X153200000Y-106716659D02*
X152910793Y-106427452D01*
X154200000Y-121700000D02*
X154200000Y-118900000D01*
X158100000Y-116600000D02*
X156500000Y-116600000D01*
D23*
X154200000Y-118900000D02*
X154200000Y-116100000D01*
D24*
X145900000Y-85500000D02*
X141800000Y-85500000D01*
D22*
X151770185Y-108816527D02*
X151770185Y-101816527D01*
X148852998Y-111639710D02*
X148947002Y-111639710D01*
X148947002Y-111639710D02*
X151770185Y-108816527D01*
X152400000Y-107100000D02*
X152400000Y-111200000D01*
D24*
X138600000Y-123800000D02*
X140400000Y-123800000D01*
X136600000Y-78600000D02*
X142900000Y-84900000D01*
X136200000Y-78600000D02*
X136600000Y-78600000D01*
X125800000Y-75800000D02*
X130600000Y-75800000D01*
X137200000Y-78000000D02*
X136900000Y-78000000D01*
X142900000Y-83700000D02*
X137200000Y-78000000D01*
X162000000Y-98200000D02*
X163400000Y-98200000D01*
X141200000Y-73600000D02*
X145600000Y-78000000D01*
X164300000Y-101800000D02*
X160827000Y-101800000D01*
X160827000Y-101800000D02*
X156300000Y-97273000D01*
X136700000Y-107200000D02*
X140500000Y-111000000D01*
X129800000Y-107200000D02*
X136700000Y-107200000D01*
X136700000Y-108000000D02*
X139700000Y-111000000D01*
X129800000Y-108000000D02*
X136700000Y-108000000D01*
X143000000Y-76600000D02*
X140600000Y-74200000D01*
X163400000Y-76100000D02*
X160600000Y-76100000D01*
X160600000Y-74900000D02*
X163400000Y-74900000D01*
X136700000Y-106400000D02*
X141300000Y-111000000D01*
X129800000Y-106400000D02*
X136700000Y-106400000D01*
X151500000Y-92600000D02*
X151493870Y-92606130D01*
X154200000Y-92600000D02*
X151500000Y-92600000D01*
X159000000Y-92600000D02*
X154200000Y-92600000D01*
X161800000Y-97300000D02*
X163400000Y-97300000D01*
X157000000Y-90500000D02*
X158474000Y-90500000D01*
X157500000Y-96227000D02*
X157527000Y-96200000D01*
X155027000Y-96227000D02*
X157500000Y-96227000D01*
X152493870Y-91306130D02*
X152500000Y-91300000D01*
X150193870Y-91306130D02*
X152493870Y-91306130D01*
X155000000Y-96200000D02*
X155027000Y-96227000D01*
G04 #@! TA.AperFunction,Conductor*
G36*
X127710088Y-68020185D02*
G01*
X127755843Y-68072989D01*
X127765787Y-68142147D01*
X127736762Y-68205703D01*
X127730730Y-68212181D01*
X122840942Y-73101968D01*
X122840941Y-73101969D01*
X122802500Y-73194773D01*
X122802500Y-73474152D01*
X122782815Y-73541191D01*
X122766181Y-73561833D01*
X117385942Y-78942071D01*
X117385941Y-78942072D01*
X117347500Y-79034876D01*
X117347500Y-98699616D01*
X117327815Y-98766655D01*
X117290542Y-98803930D01*
X117268872Y-98817856D01*
X117268866Y-98817862D01*
X117174625Y-98926622D01*
X117174622Y-98926628D01*
X117114834Y-99057543D01*
X117094353Y-99200000D01*
X117114834Y-99342456D01*
X117174622Y-99473371D01*
X117174623Y-99473373D01*
X117268872Y-99582143D01*
X117389947Y-99659953D01*
X117389950Y-99659954D01*
X117389949Y-99659954D01*
X117528036Y-99700499D01*
X117528038Y-99700500D01*
X117528039Y-99700500D01*
X117671962Y-99700500D01*
X117671962Y-99700499D01*
X117810053Y-99659953D01*
X117931128Y-99582143D01*
X118025377Y-99473373D01*
X118085165Y-99342457D01*
X118105647Y-99200000D01*
X118085165Y-99057543D01*
X118025377Y-98926627D01*
X118025375Y-98926625D01*
X118025374Y-98926622D01*
X117931133Y-98817862D01*
X117931127Y-98817856D01*
X117909458Y-98803930D01*
X117863704Y-98751125D01*
X117852500Y-98699616D01*
X117852500Y-95100000D01*
X148294353Y-95100000D01*
X148314834Y-95242456D01*
X148349269Y-95317856D01*
X148374623Y-95373373D01*
X148442213Y-95451377D01*
X148471238Y-95514932D01*
X148472500Y-95532579D01*
X148472500Y-98167420D01*
X148452815Y-98234459D01*
X148442214Y-98248622D01*
X148374623Y-98326627D01*
X148374622Y-98326628D01*
X148314834Y-98457543D01*
X148294353Y-98600000D01*
X148314834Y-98742456D01*
X148374622Y-98873371D01*
X148374623Y-98873373D01*
X148468872Y-98982143D01*
X148589947Y-99059953D01*
X148589950Y-99059954D01*
X148589949Y-99059954D01*
X148728036Y-99100499D01*
X148728038Y-99100500D01*
X148728039Y-99100500D01*
X148871962Y-99100500D01*
X148871962Y-99100499D01*
X149010053Y-99059953D01*
X149131128Y-98982143D01*
X149225377Y-98873373D01*
X149285165Y-98742457D01*
X149305647Y-98600000D01*
X149285165Y-98457543D01*
X149225377Y-98326627D01*
X149157786Y-98248622D01*
X149128762Y-98185066D01*
X149127500Y-98167420D01*
X149127500Y-97273000D01*
X155794353Y-97273000D01*
X155814834Y-97415456D01*
X155843254Y-97477685D01*
X155874623Y-97546373D01*
X155968872Y-97655143D01*
X156089947Y-97732953D01*
X156089950Y-97732954D01*
X156089949Y-97732954D01*
X156196100Y-97764122D01*
X156216071Y-97769986D01*
X156228036Y-97773499D01*
X156228038Y-97773500D01*
X156228039Y-97773500D01*
X156371962Y-97773500D01*
X156383929Y-97769986D01*
X156453799Y-97769984D01*
X156506548Y-97801281D01*
X160698132Y-101992866D01*
X160698134Y-101992868D01*
X160762801Y-102019652D01*
X160781747Y-102027500D01*
X160872253Y-102027500D01*
X163778245Y-102027500D01*
X163845284Y-102047185D01*
X163871958Y-102070297D01*
X163874622Y-102073371D01*
X163874623Y-102073373D01*
X163968872Y-102182143D01*
X164089947Y-102259953D01*
X164089950Y-102259954D01*
X164089949Y-102259954D01*
X164228036Y-102300499D01*
X164228038Y-102300500D01*
X164228039Y-102300500D01*
X164371962Y-102300500D01*
X164371962Y-102300499D01*
X164510053Y-102259953D01*
X164631128Y-102182143D01*
X164725377Y-102073373D01*
X164785165Y-101942457D01*
X164805647Y-101800000D01*
X164785165Y-101657543D01*
X164725377Y-101526627D01*
X164631128Y-101417857D01*
X164510053Y-101340047D01*
X164510051Y-101340046D01*
X164510049Y-101340045D01*
X164510050Y-101340045D01*
X164371963Y-101299500D01*
X164371961Y-101299500D01*
X164228039Y-101299500D01*
X164228036Y-101299500D01*
X164089949Y-101340045D01*
X163968873Y-101417856D01*
X163968872Y-101417856D01*
X163968872Y-101417857D01*
X163954552Y-101434384D01*
X163871958Y-101529703D01*
X163813180Y-101567477D01*
X163778245Y-101572500D01*
X160972596Y-101572500D01*
X160905557Y-101552815D01*
X160884915Y-101536181D01*
X156826418Y-97477685D01*
X156792933Y-97416362D01*
X156791361Y-97372361D01*
X156801765Y-97300000D01*
X161294353Y-97300000D01*
X161314834Y-97442456D01*
X161330923Y-97477685D01*
X161374623Y-97573373D01*
X161468872Y-97682143D01*
X161552483Y-97735876D01*
X161598237Y-97788679D01*
X161608181Y-97857837D01*
X161579162Y-97921387D01*
X161574625Y-97926622D01*
X161574622Y-97926628D01*
X161514834Y-98057543D01*
X161494353Y-98200000D01*
X161514834Y-98342456D01*
X161573218Y-98470297D01*
X161574623Y-98473373D01*
X161668872Y-98582143D01*
X161789947Y-98659953D01*
X161789950Y-98659954D01*
X161789949Y-98659954D01*
X161897107Y-98691417D01*
X161925028Y-98699616D01*
X161928036Y-98700499D01*
X161928038Y-98700500D01*
X161928039Y-98700500D01*
X162071962Y-98700500D01*
X162071962Y-98700499D01*
X162210053Y-98659953D01*
X162331128Y-98582143D01*
X162425377Y-98473373D01*
X162425378Y-98473371D01*
X162428042Y-98470297D01*
X162486820Y-98432523D01*
X162521755Y-98427500D01*
X162878245Y-98427500D01*
X162945284Y-98447185D01*
X162971958Y-98470297D01*
X162974622Y-98473371D01*
X162974623Y-98473373D01*
X163068872Y-98582143D01*
X163189947Y-98659953D01*
X163189950Y-98659954D01*
X163189949Y-98659954D01*
X163297107Y-98691417D01*
X163325028Y-98699616D01*
X163328036Y-98700499D01*
X163328038Y-98700500D01*
X163328039Y-98700500D01*
X163471962Y-98700500D01*
X163471962Y-98700499D01*
X163610053Y-98659953D01*
X163731128Y-98582143D01*
X163825377Y-98473373D01*
X163885165Y-98342457D01*
X163905647Y-98200000D01*
X163885165Y-98057543D01*
X163825377Y-97926627D01*
X163742689Y-97831199D01*
X163713666Y-97767647D01*
X163723610Y-97698489D01*
X163742687Y-97668802D01*
X163825377Y-97573373D01*
X163885165Y-97442457D01*
X163905647Y-97300000D01*
X163885165Y-97157543D01*
X163825377Y-97026627D01*
X163731128Y-96917857D01*
X163610053Y-96840047D01*
X163610051Y-96840046D01*
X163610049Y-96840045D01*
X163610050Y-96840045D01*
X163471963Y-96799500D01*
X163471961Y-96799500D01*
X163328039Y-96799500D01*
X163328036Y-96799500D01*
X163189949Y-96840045D01*
X163068873Y-96917856D01*
X163068872Y-96917856D01*
X163068872Y-96917857D01*
X162998019Y-96999627D01*
X162971958Y-97029703D01*
X162913180Y-97067477D01*
X162878245Y-97072500D01*
X162321755Y-97072500D01*
X162254716Y-97052815D01*
X162228042Y-97029703D01*
X162201982Y-96999628D01*
X162131128Y-96917857D01*
X162010053Y-96840047D01*
X162010051Y-96840046D01*
X162010049Y-96840045D01*
X162010050Y-96840045D01*
X161871963Y-96799500D01*
X161871961Y-96799500D01*
X161728039Y-96799500D01*
X161728036Y-96799500D01*
X161589949Y-96840045D01*
X161468873Y-96917856D01*
X161374623Y-97026626D01*
X161374622Y-97026628D01*
X161314834Y-97157543D01*
X161294353Y-97300000D01*
X156801765Y-97300000D01*
X156805647Y-97273000D01*
X156785165Y-97130543D01*
X156725377Y-96999627D01*
X156631128Y-96890857D01*
X156510053Y-96813047D01*
X156510051Y-96813046D01*
X156510049Y-96813045D01*
X156510050Y-96813045D01*
X156371963Y-96772500D01*
X156371961Y-96772500D01*
X156228039Y-96772500D01*
X156228036Y-96772500D01*
X156089949Y-96813045D01*
X155968873Y-96890856D01*
X155874623Y-96999626D01*
X155874622Y-96999628D01*
X155814834Y-97130543D01*
X155794353Y-97273000D01*
X149127500Y-97273000D01*
X149127500Y-95532579D01*
X149147185Y-95465540D01*
X149157783Y-95451380D01*
X149225377Y-95373373D01*
X149285165Y-95242457D01*
X149305647Y-95100000D01*
X149285165Y-94957543D01*
X149225377Y-94826627D01*
X149131128Y-94717857D01*
X149010053Y-94640047D01*
X149010051Y-94640046D01*
X149010049Y-94640045D01*
X149010050Y-94640045D01*
X148871963Y-94599500D01*
X148871961Y-94599500D01*
X148728039Y-94599500D01*
X148728036Y-94599500D01*
X148589949Y-94640045D01*
X148468873Y-94717856D01*
X148374623Y-94826626D01*
X148374622Y-94826628D01*
X148314834Y-94957543D01*
X148294353Y-95100000D01*
X117852500Y-95100000D01*
X117852500Y-93200000D01*
X143694353Y-93200000D01*
X143714834Y-93342456D01*
X143767384Y-93457523D01*
X143774623Y-93473373D01*
X143868872Y-93582143D01*
X143989947Y-93659953D01*
X143989950Y-93659954D01*
X143989949Y-93659954D01*
X144128036Y-93700499D01*
X144128038Y-93700500D01*
X144128039Y-93700500D01*
X144271962Y-93700500D01*
X144271962Y-93700499D01*
X144410053Y-93659953D01*
X144531128Y-93582143D01*
X144606380Y-93495297D01*
X144665158Y-93457523D01*
X144700093Y-93452500D01*
X146499907Y-93452500D01*
X146566946Y-93472185D01*
X146593620Y-93495297D01*
X146668872Y-93582143D01*
X146789947Y-93659953D01*
X146789950Y-93659954D01*
X146789949Y-93659954D01*
X146928036Y-93700499D01*
X146928038Y-93700500D01*
X146928039Y-93700500D01*
X147071962Y-93700500D01*
X147071962Y-93700499D01*
X147210053Y-93659953D01*
X147331128Y-93582143D01*
X147425377Y-93473373D01*
X147485165Y-93342457D01*
X147505647Y-93200000D01*
X147485165Y-93057543D01*
X147425377Y-92926627D01*
X147331128Y-92817857D01*
X147210053Y-92740047D01*
X147210051Y-92740046D01*
X147210049Y-92740045D01*
X147210050Y-92740045D01*
X147071963Y-92699500D01*
X147071961Y-92699500D01*
X146928039Y-92699500D01*
X146928036Y-92699500D01*
X146789949Y-92740045D01*
X146668873Y-92817856D01*
X146593620Y-92904703D01*
X146534842Y-92942477D01*
X146499907Y-92947500D01*
X144700093Y-92947500D01*
X144633054Y-92927815D01*
X144606380Y-92904703D01*
X144600017Y-92897360D01*
X144531128Y-92817857D01*
X144410053Y-92740047D01*
X144410051Y-92740046D01*
X144410049Y-92740045D01*
X144410050Y-92740045D01*
X144271963Y-92699500D01*
X144271961Y-92699500D01*
X144128039Y-92699500D01*
X144128036Y-92699500D01*
X143989949Y-92740045D01*
X143868873Y-92817856D01*
X143774623Y-92926626D01*
X143774622Y-92926628D01*
X143714834Y-93057543D01*
X143694353Y-93200000D01*
X117852500Y-93200000D01*
X117852500Y-92606130D01*
X150988223Y-92606130D01*
X151008704Y-92748586D01*
X151065693Y-92873373D01*
X151068493Y-92879503D01*
X151162742Y-92988273D01*
X151283817Y-93066083D01*
X151283820Y-93066084D01*
X151283819Y-93066084D01*
X151372325Y-93092071D01*
X151401028Y-93100499D01*
X151421906Y-93106629D01*
X151421908Y-93106630D01*
X151573803Y-93106630D01*
X151640842Y-93126315D01*
X151686597Y-93179119D01*
X151696541Y-93248277D01*
X151688223Y-93306130D01*
X151708704Y-93448586D01*
X151761254Y-93563653D01*
X151768493Y-93579503D01*
X151862742Y-93688273D01*
X151983817Y-93766083D01*
X151983820Y-93766084D01*
X151983819Y-93766084D01*
X152121906Y-93806629D01*
X152121908Y-93806630D01*
X152121909Y-93806630D01*
X152265832Y-93806630D01*
X152265832Y-93806629D01*
X152403923Y-93766083D01*
X152524998Y-93688273D01*
X152600250Y-93601427D01*
X152659028Y-93563653D01*
X152693963Y-93558630D01*
X153150179Y-93558630D01*
X153217218Y-93578315D01*
X153237860Y-93594949D01*
X155130730Y-95487819D01*
X155164215Y-95549142D01*
X155159231Y-95618834D01*
X155117359Y-95674767D01*
X155051895Y-95699184D01*
X155043049Y-95699500D01*
X154928036Y-95699500D01*
X154789949Y-95740045D01*
X154668873Y-95817856D01*
X154574623Y-95926626D01*
X154574622Y-95926628D01*
X154514834Y-96057543D01*
X154494353Y-96200000D01*
X154514834Y-96342456D01*
X154566004Y-96454500D01*
X154574623Y-96473373D01*
X154668872Y-96582143D01*
X154789947Y-96659953D01*
X154789950Y-96659954D01*
X154789949Y-96659954D01*
X154928036Y-96700499D01*
X154928038Y-96700500D01*
X154928039Y-96700500D01*
X155071962Y-96700500D01*
X155071962Y-96700499D01*
X155210053Y-96659953D01*
X155331128Y-96582143D01*
X155404647Y-96497297D01*
X155463425Y-96459523D01*
X155498360Y-96454500D01*
X157028640Y-96454500D01*
X157095679Y-96474185D01*
X157122353Y-96497297D01*
X157195872Y-96582143D01*
X157316947Y-96659953D01*
X157316950Y-96659954D01*
X157316949Y-96659954D01*
X157455036Y-96700499D01*
X157455038Y-96700500D01*
X157455039Y-96700500D01*
X157598962Y-96700500D01*
X157598962Y-96700499D01*
X157737053Y-96659953D01*
X157858128Y-96582143D01*
X157952377Y-96473373D01*
X158012165Y-96342457D01*
X158032647Y-96200000D01*
X158012165Y-96057543D01*
X157952377Y-95926627D01*
X157858128Y-95817857D01*
X157737053Y-95740047D01*
X157737051Y-95740046D01*
X157737049Y-95740045D01*
X157737050Y-95740045D01*
X157598963Y-95699500D01*
X157598961Y-95699500D01*
X157455039Y-95699500D01*
X157455036Y-95699500D01*
X157316949Y-95740045D01*
X157195873Y-95817856D01*
X157101623Y-95926626D01*
X157101447Y-95927013D01*
X157101168Y-95927334D01*
X157096829Y-95934087D01*
X157095857Y-95933462D01*
X157055691Y-95979816D01*
X156988653Y-95999500D01*
X156304698Y-95999500D01*
X156237659Y-95979815D01*
X156191904Y-95927011D01*
X156181960Y-95857853D01*
X156184883Y-95844412D01*
X156185163Y-95842459D01*
X156185165Y-95842457D01*
X156205647Y-95700000D01*
X156185165Y-95557543D01*
X156125377Y-95426627D01*
X156031128Y-95317857D01*
X155910053Y-95240047D01*
X155910051Y-95240046D01*
X155910049Y-95240045D01*
X155910050Y-95240045D01*
X155771963Y-95199500D01*
X155771961Y-95199500D01*
X155628039Y-95199500D01*
X155627002Y-95199649D01*
X155625966Y-95199500D01*
X155619171Y-95199500D01*
X155619171Y-95198522D01*
X155557844Y-95189702D01*
X155521680Y-95164591D01*
X153449160Y-93092071D01*
X153386366Y-93066061D01*
X153331963Y-93022220D01*
X153309898Y-92955925D01*
X153327177Y-92888226D01*
X153378315Y-92840616D01*
X153433819Y-92827500D01*
X154154747Y-92827500D01*
X158478245Y-92827500D01*
X158545284Y-92847185D01*
X158571958Y-92870297D01*
X158574622Y-92873371D01*
X158574623Y-92873373D01*
X158668872Y-92982143D01*
X158789947Y-93059953D01*
X158789950Y-93059954D01*
X158789949Y-93059954D01*
X158928036Y-93100499D01*
X158928038Y-93100500D01*
X158928039Y-93100500D01*
X159071962Y-93100500D01*
X159071962Y-93100499D01*
X159179121Y-93069035D01*
X159210050Y-93059954D01*
X159210050Y-93059953D01*
X159210053Y-93059953D01*
X159331128Y-92982143D01*
X159425377Y-92873373D01*
X159485165Y-92742457D01*
X159505647Y-92600000D01*
X159485165Y-92457543D01*
X159425377Y-92326627D01*
X159331128Y-92217857D01*
X159210053Y-92140047D01*
X159210051Y-92140046D01*
X159210049Y-92140045D01*
X159210050Y-92140045D01*
X159071963Y-92099500D01*
X159071961Y-92099500D01*
X158928039Y-92099500D01*
X158928036Y-92099500D01*
X158789949Y-92140045D01*
X158668873Y-92217856D01*
X158668872Y-92217856D01*
X158668872Y-92217857D01*
X158663561Y-92223987D01*
X158571958Y-92329703D01*
X158513180Y-92367477D01*
X158478245Y-92372500D01*
X152010314Y-92372500D01*
X151943275Y-92352815D01*
X151916601Y-92329703D01*
X151898183Y-92308448D01*
X151824998Y-92223987D01*
X151703923Y-92146177D01*
X151703921Y-92146176D01*
X151703919Y-92146175D01*
X151703920Y-92146175D01*
X151565833Y-92105630D01*
X151565831Y-92105630D01*
X151421909Y-92105630D01*
X151421906Y-92105630D01*
X151283819Y-92146175D01*
X151162743Y-92223986D01*
X151068493Y-92332756D01*
X151068492Y-92332758D01*
X151008704Y-92463673D01*
X150988223Y-92606130D01*
X117852500Y-92606130D01*
X117852500Y-91306130D01*
X149688223Y-91306130D01*
X149708704Y-91448586D01*
X149765693Y-91573373D01*
X149768493Y-91579503D01*
X149862742Y-91688273D01*
X149983817Y-91766083D01*
X149983820Y-91766084D01*
X149983819Y-91766084D01*
X150090977Y-91797547D01*
X150101028Y-91800499D01*
X150121906Y-91806629D01*
X150121908Y-91806630D01*
X150121909Y-91806630D01*
X150265832Y-91806630D01*
X150265832Y-91806629D01*
X150403923Y-91766083D01*
X150524998Y-91688273D01*
X150619247Y-91579503D01*
X150619248Y-91579501D01*
X150621912Y-91576427D01*
X150680690Y-91538653D01*
X150715625Y-91533630D01*
X151983556Y-91533630D01*
X152050595Y-91553315D01*
X152077269Y-91576427D01*
X152097599Y-91599889D01*
X152168872Y-91682143D01*
X152289947Y-91759953D01*
X152289950Y-91759954D01*
X152289949Y-91759954D01*
X152428036Y-91800499D01*
X152428038Y-91800500D01*
X152428039Y-91800500D01*
X152571962Y-91800500D01*
X152571962Y-91800499D01*
X152679121Y-91769035D01*
X152710050Y-91759954D01*
X152710050Y-91759953D01*
X152710053Y-91759953D01*
X152831128Y-91682143D01*
X152925377Y-91573373D01*
X152985165Y-91442457D01*
X153005647Y-91300000D01*
X152985165Y-91157543D01*
X152925377Y-91026627D01*
X152831128Y-90917857D01*
X152710053Y-90840047D01*
X152710051Y-90840046D01*
X152710049Y-90840045D01*
X152710050Y-90840045D01*
X152571963Y-90799500D01*
X152571961Y-90799500D01*
X152428039Y-90799500D01*
X152428036Y-90799500D01*
X152289949Y-90840045D01*
X152168873Y-90917856D01*
X152168872Y-90917856D01*
X152168872Y-90917857D01*
X152163561Y-90923987D01*
X152068815Y-91033330D01*
X152066584Y-91031397D01*
X152024991Y-91067430D01*
X151973493Y-91078630D01*
X150715625Y-91078630D01*
X150648586Y-91058945D01*
X150621912Y-91035833D01*
X150619246Y-91032756D01*
X150524998Y-90923987D01*
X150403923Y-90846177D01*
X150403921Y-90846176D01*
X150403919Y-90846175D01*
X150403920Y-90846175D01*
X150265833Y-90805630D01*
X150265831Y-90805630D01*
X150121909Y-90805630D01*
X150121906Y-90805630D01*
X149983819Y-90846175D01*
X149862743Y-90923986D01*
X149768493Y-91032756D01*
X149768492Y-91032758D01*
X149708704Y-91163673D01*
X149688223Y-91306130D01*
X117852500Y-91306130D01*
X117852500Y-90500000D01*
X156494353Y-90500000D01*
X156514834Y-90642456D01*
X156553673Y-90727500D01*
X156574623Y-90773373D01*
X156668872Y-90882143D01*
X156789947Y-90959953D01*
X156789950Y-90959954D01*
X156789949Y-90959954D01*
X156928036Y-91000499D01*
X156928038Y-91000500D01*
X156928039Y-91000500D01*
X157071962Y-91000500D01*
X157071962Y-91000499D01*
X157210053Y-90959953D01*
X157331128Y-90882143D01*
X157425377Y-90773373D01*
X157425378Y-90773371D01*
X157428042Y-90770297D01*
X157486820Y-90732523D01*
X157521755Y-90727500D01*
X157952245Y-90727500D01*
X158019284Y-90747185D01*
X158045958Y-90770297D01*
X158048622Y-90773371D01*
X158048623Y-90773373D01*
X158142872Y-90882143D01*
X158263947Y-90959953D01*
X158263950Y-90959954D01*
X158263949Y-90959954D01*
X158402036Y-91000499D01*
X158402038Y-91000500D01*
X158402039Y-91000500D01*
X158545962Y-91000500D01*
X158545962Y-91000499D01*
X158684053Y-90959953D01*
X158805128Y-90882143D01*
X158899377Y-90773373D01*
X158959165Y-90642457D01*
X158979647Y-90500000D01*
X158959165Y-90357543D01*
X158899377Y-90226627D01*
X158805128Y-90117857D01*
X158684053Y-90040047D01*
X158684051Y-90040046D01*
X158684049Y-90040045D01*
X158684050Y-90040045D01*
X158545963Y-89999500D01*
X158545961Y-89999500D01*
X158402039Y-89999500D01*
X158402036Y-89999500D01*
X158263949Y-90040045D01*
X158142873Y-90117856D01*
X158045958Y-90229703D01*
X157987180Y-90267477D01*
X157952245Y-90272500D01*
X157521755Y-90272500D01*
X157454716Y-90252815D01*
X157428042Y-90229703D01*
X157425376Y-90226626D01*
X157331128Y-90117857D01*
X157210053Y-90040047D01*
X157210051Y-90040046D01*
X157210049Y-90040045D01*
X157210050Y-90040045D01*
X157071963Y-89999500D01*
X157071961Y-89999500D01*
X156928039Y-89999500D01*
X156928036Y-89999500D01*
X156789949Y-90040045D01*
X156668873Y-90117856D01*
X156574623Y-90226626D01*
X156574622Y-90226628D01*
X156514834Y-90357543D01*
X156494353Y-90500000D01*
X117852500Y-90500000D01*
X117852500Y-79241054D01*
X117872185Y-79174015D01*
X117888819Y-79153373D01*
X118442192Y-78600000D01*
X135694353Y-78600000D01*
X135714834Y-78742456D01*
X135773559Y-78871044D01*
X135774623Y-78873373D01*
X135868872Y-78982143D01*
X135989947Y-79059953D01*
X135989950Y-79059954D01*
X135989949Y-79059954D01*
X136128036Y-79100499D01*
X136128038Y-79100500D01*
X136128039Y-79100500D01*
X136271962Y-79100500D01*
X136271962Y-79100499D01*
X136410050Y-79059954D01*
X136410051Y-79059954D01*
X136410053Y-79059953D01*
X136525770Y-78985585D01*
X136592806Y-78965902D01*
X136659846Y-78985586D01*
X136680488Y-79002221D01*
X142373581Y-84695314D01*
X142407066Y-84756637D01*
X142408638Y-84800641D01*
X142394353Y-84899999D01*
X142414834Y-85042456D01*
X142439739Y-85096988D01*
X142449683Y-85166146D01*
X142420658Y-85229702D01*
X142361881Y-85267477D01*
X142326945Y-85272500D01*
X142321755Y-85272500D01*
X142254716Y-85252815D01*
X142228042Y-85229703D01*
X142202314Y-85200011D01*
X142131128Y-85117857D01*
X142010053Y-85040047D01*
X142010051Y-85040046D01*
X142010049Y-85040045D01*
X142010050Y-85040045D01*
X141871963Y-84999500D01*
X141871961Y-84999500D01*
X141728039Y-84999500D01*
X141728036Y-84999500D01*
X141589949Y-85040045D01*
X141468873Y-85117856D01*
X141374623Y-85226626D01*
X141374622Y-85226628D01*
X141314834Y-85357543D01*
X141294353Y-85500000D01*
X141314834Y-85642456D01*
X141353673Y-85727500D01*
X141374623Y-85773373D01*
X141468872Y-85882143D01*
X141589947Y-85959953D01*
X141589950Y-85959954D01*
X141589949Y-85959954D01*
X141728036Y-86000499D01*
X141728038Y-86000500D01*
X141728039Y-86000500D01*
X141871962Y-86000500D01*
X141871962Y-86000499D01*
X142010053Y-85959953D01*
X142131128Y-85882143D01*
X142225377Y-85773373D01*
X142225378Y-85773371D01*
X142228042Y-85770297D01*
X142286820Y-85732523D01*
X142321755Y-85727500D01*
X145378245Y-85727500D01*
X145445284Y-85747185D01*
X145471958Y-85770297D01*
X145474622Y-85773371D01*
X145474623Y-85773373D01*
X145568872Y-85882143D01*
X145689947Y-85959953D01*
X145689950Y-85959954D01*
X145689949Y-85959954D01*
X145828036Y-86000499D01*
X145828038Y-86000500D01*
X145828039Y-86000500D01*
X145971962Y-86000500D01*
X145971962Y-86000499D01*
X146110053Y-85959953D01*
X146231128Y-85882143D01*
X146325377Y-85773373D01*
X146385165Y-85642457D01*
X146405647Y-85500000D01*
X146385165Y-85357543D01*
X146325377Y-85226627D01*
X146231128Y-85117857D01*
X146110053Y-85040047D01*
X146110051Y-85040046D01*
X146110049Y-85040045D01*
X146110050Y-85040045D01*
X145971963Y-84999500D01*
X145971961Y-84999500D01*
X145828039Y-84999500D01*
X145828036Y-84999500D01*
X145689949Y-85040045D01*
X145568873Y-85117856D01*
X145568872Y-85117856D01*
X145568872Y-85117857D01*
X145520768Y-85173373D01*
X145471958Y-85229703D01*
X145413180Y-85267477D01*
X145378245Y-85272500D01*
X143473055Y-85272500D01*
X143406016Y-85252815D01*
X143360261Y-85200011D01*
X143350317Y-85130853D01*
X143360261Y-85096988D01*
X143385165Y-85042456D01*
X143405647Y-84900000D01*
X143385165Y-84757543D01*
X143325377Y-84626627D01*
X143231128Y-84517857D01*
X143110053Y-84440047D01*
X143110051Y-84440046D01*
X143110049Y-84440045D01*
X143110050Y-84440045D01*
X143038296Y-84418977D01*
X142979518Y-84381203D01*
X142950492Y-84317648D01*
X142960435Y-84248489D01*
X143006190Y-84195685D01*
X143038296Y-84181023D01*
X143110050Y-84159954D01*
X143110050Y-84159953D01*
X143110053Y-84159953D01*
X143231128Y-84082143D01*
X143325377Y-83973373D01*
X143385165Y-83842457D01*
X143405647Y-83700000D01*
X143385165Y-83557543D01*
X143325377Y-83426627D01*
X143231128Y-83317857D01*
X143110053Y-83240047D01*
X143110051Y-83240046D01*
X143110049Y-83240045D01*
X143110050Y-83240045D01*
X142971963Y-83199500D01*
X142971961Y-83199500D01*
X142828039Y-83199500D01*
X142828035Y-83199500D01*
X142816060Y-83203016D01*
X142746190Y-83203012D01*
X142693451Y-83171718D01*
X137405935Y-77884202D01*
X137380822Y-77848033D01*
X137325377Y-77726628D01*
X137325376Y-77726626D01*
X137231128Y-77617857D01*
X137110053Y-77540047D01*
X137110051Y-77540046D01*
X137110049Y-77540045D01*
X137110050Y-77540045D01*
X136971963Y-77499500D01*
X136971961Y-77499500D01*
X136828039Y-77499500D01*
X136828036Y-77499500D01*
X136689949Y-77540045D01*
X136568873Y-77617856D01*
X136474623Y-77726626D01*
X136474622Y-77726628D01*
X136414834Y-77857543D01*
X136395338Y-77993147D01*
X136366313Y-78056703D01*
X136307535Y-78094477D01*
X136272600Y-78099500D01*
X136128036Y-78099500D01*
X135989949Y-78140045D01*
X135868873Y-78217856D01*
X135774623Y-78326626D01*
X135774622Y-78326628D01*
X135714834Y-78457543D01*
X135694353Y-78600000D01*
X118442192Y-78600000D01*
X120577774Y-76464418D01*
X121242192Y-75800000D01*
X125294353Y-75800000D01*
X125314834Y-75942456D01*
X125353673Y-76027500D01*
X125374623Y-76073373D01*
X125468872Y-76182143D01*
X125589947Y-76259953D01*
X125589950Y-76259954D01*
X125589949Y-76259954D01*
X125728036Y-76300499D01*
X125728038Y-76300500D01*
X125728039Y-76300500D01*
X125871962Y-76300500D01*
X125871962Y-76300499D01*
X126010053Y-76259953D01*
X126131128Y-76182143D01*
X126225377Y-76073373D01*
X126225378Y-76073371D01*
X126228042Y-76070297D01*
X126286820Y-76032523D01*
X126321755Y-76027500D01*
X130078245Y-76027500D01*
X130145284Y-76047185D01*
X130171958Y-76070297D01*
X130174622Y-76073371D01*
X130174623Y-76073373D01*
X130268872Y-76182143D01*
X130389947Y-76259953D01*
X130389950Y-76259954D01*
X130389949Y-76259954D01*
X130528036Y-76300499D01*
X130528038Y-76300500D01*
X130528039Y-76300500D01*
X130671962Y-76300500D01*
X130671962Y-76300499D01*
X130810053Y-76259953D01*
X130931128Y-76182143D01*
X131025377Y-76073373D01*
X131085165Y-75942457D01*
X131105647Y-75800000D01*
X131085165Y-75657543D01*
X131025377Y-75526627D01*
X130931128Y-75417857D01*
X130810053Y-75340047D01*
X130810051Y-75340046D01*
X130810049Y-75340045D01*
X130810050Y-75340045D01*
X130671963Y-75299500D01*
X130671961Y-75299500D01*
X130528039Y-75299500D01*
X130528036Y-75299500D01*
X130389949Y-75340045D01*
X130268873Y-75417856D01*
X130268872Y-75417856D01*
X130268872Y-75417857D01*
X130182404Y-75517648D01*
X130171958Y-75529703D01*
X130113180Y-75567477D01*
X130078245Y-75572500D01*
X126321755Y-75572500D01*
X126254716Y-75552815D01*
X126228042Y-75529703D01*
X126225376Y-75526626D01*
X126131128Y-75417857D01*
X126010053Y-75340047D01*
X126010051Y-75340046D01*
X126010049Y-75340045D01*
X126010050Y-75340045D01*
X125871963Y-75299500D01*
X125871961Y-75299500D01*
X125728039Y-75299500D01*
X125728036Y-75299500D01*
X125589949Y-75340045D01*
X125468873Y-75417856D01*
X125468872Y-75417856D01*
X125468872Y-75417857D01*
X125456290Y-75432377D01*
X125374623Y-75526626D01*
X125374622Y-75526628D01*
X125314834Y-75657543D01*
X125294353Y-75800000D01*
X121242192Y-75800000D01*
X123269059Y-73773133D01*
X123307500Y-73680328D01*
X123307500Y-73635817D01*
X124784500Y-73635817D01*
X124784500Y-73774183D01*
X124796203Y-73817857D01*
X124820312Y-73907835D01*
X124820313Y-73907838D01*
X124889492Y-74027661D01*
X124889494Y-74027664D01*
X124889495Y-74027665D01*
X124987335Y-74125505D01*
X125107164Y-74194688D01*
X125240817Y-74230500D01*
X125240819Y-74230500D01*
X125379181Y-74230500D01*
X125379183Y-74230500D01*
X125512836Y-74194688D01*
X125632665Y-74125505D01*
X125730505Y-74027665D01*
X125799688Y-73907836D01*
X125835500Y-73774183D01*
X125835500Y-73635817D01*
X130564500Y-73635817D01*
X130564500Y-73774183D01*
X130576203Y-73817857D01*
X130600312Y-73907835D01*
X130600313Y-73907838D01*
X130669492Y-74027661D01*
X130669494Y-74027664D01*
X130669495Y-74027665D01*
X130767335Y-74125505D01*
X130887164Y-74194688D01*
X131020817Y-74230500D01*
X131020819Y-74230500D01*
X131159181Y-74230500D01*
X131159183Y-74230500D01*
X131273011Y-74200000D01*
X140094353Y-74200000D01*
X140114834Y-74342456D01*
X140121410Y-74356855D01*
X140174623Y-74473373D01*
X140268872Y-74582143D01*
X140389947Y-74659953D01*
X140389950Y-74659954D01*
X140389949Y-74659954D01*
X140497107Y-74691417D01*
X140516071Y-74696986D01*
X140528036Y-74700499D01*
X140528038Y-74700500D01*
X140528039Y-74700500D01*
X140671962Y-74700500D01*
X140683929Y-74696986D01*
X140753799Y-74696984D01*
X140806548Y-74728281D01*
X142473581Y-76395315D01*
X142507066Y-76456638D01*
X142508638Y-76500643D01*
X142494353Y-76599999D01*
X142514834Y-76742456D01*
X142574622Y-76873371D01*
X142574623Y-76873373D01*
X142668872Y-76982143D01*
X142789947Y-77059953D01*
X142789950Y-77059954D01*
X142789949Y-77059954D01*
X142928036Y-77100499D01*
X142928038Y-77100500D01*
X142928039Y-77100500D01*
X143071962Y-77100500D01*
X143071962Y-77100499D01*
X143210053Y-77059953D01*
X143331128Y-76982143D01*
X143425377Y-76873373D01*
X143485165Y-76742457D01*
X143505647Y-76600000D01*
X143496097Y-76533577D01*
X143506041Y-76464418D01*
X143551796Y-76411614D01*
X143618835Y-76391930D01*
X143685875Y-76411615D01*
X143706512Y-76428246D01*
X144749984Y-77471718D01*
X145073581Y-77795315D01*
X145107066Y-77856638D01*
X145108638Y-77900643D01*
X145094353Y-77999999D01*
X145114834Y-78142456D01*
X145115263Y-78143395D01*
X145174623Y-78273373D01*
X145268872Y-78382143D01*
X145389947Y-78459953D01*
X145389950Y-78459954D01*
X145389949Y-78459954D01*
X145528036Y-78500499D01*
X145528038Y-78500500D01*
X145528039Y-78500500D01*
X145671962Y-78500500D01*
X145671962Y-78500499D01*
X145810053Y-78459953D01*
X145931128Y-78382143D01*
X146025377Y-78273373D01*
X146085165Y-78142457D01*
X146105647Y-78000000D01*
X146085165Y-77857543D01*
X146025377Y-77726627D01*
X145931128Y-77617857D01*
X145810053Y-77540047D01*
X145810051Y-77540046D01*
X145810049Y-77540045D01*
X145810050Y-77540045D01*
X145671963Y-77499500D01*
X145671961Y-77499500D01*
X145528039Y-77499500D01*
X145528037Y-77499500D01*
X145516064Y-77503015D01*
X145446194Y-77503013D01*
X145393452Y-77471718D01*
X142821733Y-74900000D01*
X160094353Y-74900000D01*
X160114834Y-75042456D01*
X160153673Y-75127500D01*
X160174623Y-75173373D01*
X160268872Y-75282143D01*
X160346683Y-75332148D01*
X160389948Y-75359954D01*
X160461704Y-75381023D01*
X160520482Y-75418797D01*
X160549507Y-75482353D01*
X160539563Y-75551511D01*
X160493809Y-75604315D01*
X160461704Y-75618977D01*
X160389948Y-75640045D01*
X160268873Y-75717856D01*
X160174623Y-75826626D01*
X160174622Y-75826628D01*
X160114834Y-75957543D01*
X160094353Y-76100000D01*
X160114834Y-76242456D01*
X160153673Y-76327500D01*
X160174623Y-76373373D01*
X160268872Y-76482143D01*
X160389947Y-76559953D01*
X160389950Y-76559954D01*
X160389949Y-76559954D01*
X160497107Y-76591417D01*
X160526336Y-76600000D01*
X160528036Y-76600499D01*
X160528038Y-76600500D01*
X160528039Y-76600500D01*
X160671962Y-76600500D01*
X160671962Y-76600499D01*
X160810053Y-76559953D01*
X160931128Y-76482143D01*
X161025377Y-76373373D01*
X161025378Y-76373371D01*
X161028042Y-76370297D01*
X161086820Y-76332523D01*
X161121755Y-76327500D01*
X162878245Y-76327500D01*
X162945284Y-76347185D01*
X162971958Y-76370297D01*
X162974622Y-76373371D01*
X162974623Y-76373373D01*
X163068872Y-76482143D01*
X163189947Y-76559953D01*
X163189950Y-76559954D01*
X163189949Y-76559954D01*
X163297107Y-76591417D01*
X163326336Y-76600000D01*
X163328036Y-76600499D01*
X163328038Y-76600500D01*
X163328039Y-76600500D01*
X163471962Y-76600500D01*
X163471962Y-76600499D01*
X163610053Y-76559953D01*
X163731128Y-76482143D01*
X163825377Y-76373373D01*
X163885165Y-76242457D01*
X163905647Y-76100000D01*
X163885165Y-75957543D01*
X163825377Y-75826627D01*
X163731128Y-75717857D01*
X163610053Y-75640047D01*
X163610051Y-75640046D01*
X163610049Y-75640045D01*
X163610050Y-75640045D01*
X163538296Y-75618977D01*
X163479518Y-75581203D01*
X163450492Y-75517648D01*
X163460435Y-75448489D01*
X163506190Y-75395685D01*
X163538296Y-75381023D01*
X163610050Y-75359954D01*
X163610050Y-75359953D01*
X163610053Y-75359953D01*
X163731128Y-75282143D01*
X163825377Y-75173373D01*
X163885165Y-75042457D01*
X163905647Y-74900000D01*
X163885165Y-74757543D01*
X163825377Y-74626627D01*
X163731128Y-74517857D01*
X163610053Y-74440047D01*
X163610051Y-74440046D01*
X163610049Y-74440045D01*
X163610050Y-74440045D01*
X163471963Y-74399500D01*
X163471961Y-74399500D01*
X163328039Y-74399500D01*
X163328036Y-74399500D01*
X163189949Y-74440045D01*
X163068873Y-74517856D01*
X163068872Y-74517856D01*
X163068872Y-74517857D01*
X163013169Y-74582143D01*
X162971958Y-74629703D01*
X162913180Y-74667477D01*
X162878245Y-74672500D01*
X161121755Y-74672500D01*
X161054716Y-74652815D01*
X161028042Y-74629703D01*
X161025376Y-74626626D01*
X160931128Y-74517857D01*
X160810053Y-74440047D01*
X160810051Y-74440046D01*
X160810049Y-74440045D01*
X160810050Y-74440045D01*
X160671963Y-74399500D01*
X160671961Y-74399500D01*
X160528039Y-74399500D01*
X160528036Y-74399500D01*
X160389949Y-74440045D01*
X160268873Y-74517856D01*
X160174623Y-74626626D01*
X160174622Y-74626628D01*
X160114834Y-74757543D01*
X160094353Y-74900000D01*
X142821733Y-74900000D01*
X141726418Y-73804685D01*
X141692933Y-73743362D01*
X141691361Y-73699361D01*
X141705647Y-73600000D01*
X141685165Y-73457543D01*
X141625377Y-73326627D01*
X141531128Y-73217857D01*
X141410053Y-73140047D01*
X141410051Y-73140046D01*
X141410049Y-73140045D01*
X141410050Y-73140045D01*
X141271963Y-73099500D01*
X141271961Y-73099500D01*
X141128039Y-73099500D01*
X141128036Y-73099500D01*
X140989949Y-73140045D01*
X140868873Y-73217856D01*
X140774623Y-73326626D01*
X140774622Y-73326628D01*
X140714834Y-73457543D01*
X140695338Y-73593147D01*
X140666313Y-73656703D01*
X140607535Y-73694477D01*
X140572600Y-73699500D01*
X140528036Y-73699500D01*
X140389949Y-73740045D01*
X140268873Y-73817856D01*
X140174623Y-73926626D01*
X140174622Y-73926628D01*
X140114834Y-74057543D01*
X140094353Y-74200000D01*
X131273011Y-74200000D01*
X131292836Y-74194688D01*
X131412665Y-74125505D01*
X131510505Y-74027665D01*
X131579688Y-73907836D01*
X131615500Y-73774183D01*
X131615500Y-73635817D01*
X131579688Y-73502164D01*
X131510505Y-73382335D01*
X131412665Y-73284495D01*
X131412664Y-73284494D01*
X131412661Y-73284492D01*
X131292838Y-73215313D01*
X131292837Y-73215312D01*
X131292836Y-73215312D01*
X131159183Y-73179500D01*
X131020817Y-73179500D01*
X130887164Y-73215312D01*
X130887161Y-73215313D01*
X130767338Y-73284492D01*
X130767333Y-73284496D01*
X130669496Y-73382333D01*
X130669492Y-73382338D01*
X130600313Y-73502161D01*
X130600312Y-73502164D01*
X130564500Y-73635817D01*
X125835500Y-73635817D01*
X125799688Y-73502164D01*
X125730505Y-73382335D01*
X125632665Y-73284495D01*
X125632664Y-73284494D01*
X125632661Y-73284492D01*
X125512838Y-73215313D01*
X125512837Y-73215312D01*
X125512836Y-73215312D01*
X125379183Y-73179500D01*
X125240817Y-73179500D01*
X125107164Y-73215312D01*
X125107161Y-73215313D01*
X124987338Y-73284492D01*
X124987333Y-73284496D01*
X124889496Y-73382333D01*
X124889492Y-73382338D01*
X124820313Y-73502161D01*
X124820312Y-73502164D01*
X124784500Y-73635817D01*
X123307500Y-73635817D01*
X123307500Y-73579878D01*
X123307500Y-73400951D01*
X123327185Y-73333912D01*
X123343819Y-73313270D01*
X128068270Y-68588819D01*
X128129593Y-68555334D01*
X128155951Y-68552500D01*
X141499907Y-68552500D01*
X141566946Y-68572185D01*
X141593620Y-68595297D01*
X141668872Y-68682143D01*
X141789947Y-68759953D01*
X141789950Y-68759954D01*
X141789949Y-68759954D01*
X141928036Y-68800499D01*
X141928038Y-68800500D01*
X141928039Y-68800500D01*
X142071962Y-68800500D01*
X142071962Y-68800499D01*
X142210053Y-68759953D01*
X142331128Y-68682143D01*
X142406380Y-68595297D01*
X142465158Y-68557523D01*
X142500093Y-68552500D01*
X178844049Y-68552500D01*
X178911088Y-68572185D01*
X178931730Y-68588819D01*
X182511181Y-72168270D01*
X182544666Y-72229593D01*
X182547500Y-72255951D01*
X182547500Y-72799616D01*
X182527815Y-72866655D01*
X182490542Y-72903930D01*
X182468872Y-72917856D01*
X182468866Y-72917862D01*
X182374625Y-73026622D01*
X182374622Y-73026628D01*
X182314834Y-73157543D01*
X182294353Y-73300000D01*
X182314834Y-73442456D01*
X182352766Y-73525514D01*
X182374623Y-73573373D01*
X182468872Y-73682143D01*
X182589947Y-73759953D01*
X182589950Y-73759954D01*
X182589949Y-73759954D01*
X182728036Y-73800499D01*
X182728038Y-73800500D01*
X182728039Y-73800500D01*
X182871962Y-73800500D01*
X182871962Y-73800499D01*
X183010053Y-73759953D01*
X183131128Y-73682143D01*
X183225377Y-73573373D01*
X183285165Y-73442457D01*
X183305647Y-73300000D01*
X183285165Y-73157543D01*
X183225377Y-73026627D01*
X183225375Y-73026625D01*
X183225374Y-73026622D01*
X183131133Y-72917862D01*
X183131127Y-72917856D01*
X183109458Y-72903930D01*
X183063704Y-72851125D01*
X183052500Y-72799616D01*
X183052500Y-72049776D01*
X183052499Y-72049773D01*
X183014059Y-71956970D01*
X182943030Y-71885941D01*
X179269270Y-68212181D01*
X179235785Y-68150858D01*
X179240769Y-68081166D01*
X179282641Y-68025233D01*
X179348105Y-68000816D01*
X179356951Y-68000500D01*
X189875500Y-68000500D01*
X189942539Y-68020185D01*
X189988294Y-68072989D01*
X189999500Y-68124500D01*
X189999500Y-126875500D01*
X189979815Y-126942539D01*
X189927011Y-126988294D01*
X189875500Y-126999500D01*
X182163017Y-126999500D01*
X182095978Y-126979815D01*
X182050223Y-126927011D01*
X182040279Y-126857853D01*
X182069304Y-126794297D01*
X182075336Y-126787819D01*
X183241966Y-125621189D01*
X184462065Y-124401090D01*
X184505181Y-124326410D01*
X184527500Y-124243116D01*
X184527500Y-124156884D01*
X184527500Y-103032579D01*
X184547185Y-102965540D01*
X184557783Y-102951380D01*
X184625377Y-102873373D01*
X184685165Y-102742457D01*
X184705647Y-102600000D01*
X184685165Y-102457543D01*
X184625377Y-102326627D01*
X184531128Y-102217857D01*
X184410053Y-102140047D01*
X184410051Y-102140046D01*
X184410049Y-102140045D01*
X184410050Y-102140045D01*
X184271963Y-102099500D01*
X184271961Y-102099500D01*
X184128039Y-102099500D01*
X184128036Y-102099500D01*
X183989949Y-102140045D01*
X183868873Y-102217856D01*
X183774623Y-102326626D01*
X183774622Y-102326628D01*
X183714834Y-102457543D01*
X183694353Y-102600000D01*
X183714834Y-102742456D01*
X183774622Y-102873371D01*
X183774623Y-102873373D01*
X183842213Y-102951377D01*
X183871238Y-103014932D01*
X183872500Y-103032579D01*
X183872500Y-124012983D01*
X183852815Y-124080022D01*
X183836181Y-124100664D01*
X181600664Y-126336181D01*
X181539341Y-126369666D01*
X181512983Y-126372500D01*
X171181186Y-126372500D01*
X171114147Y-126352815D01*
X171068392Y-126300011D01*
X171058448Y-126230853D01*
X171087473Y-126167297D01*
X171093505Y-126160819D01*
X172073121Y-125181203D01*
X173062065Y-124192259D01*
X173105181Y-124117579D01*
X173127500Y-124034285D01*
X173127500Y-123948053D01*
X173127500Y-120965715D01*
X173105181Y-120882421D01*
X173062065Y-120807741D01*
X173001090Y-120746766D01*
X170692259Y-118437935D01*
X170617579Y-118394819D01*
X170617580Y-118394819D01*
X170589814Y-118387379D01*
X170534285Y-118372500D01*
X170534283Y-118372500D01*
X168035105Y-118372500D01*
X167968066Y-118352815D01*
X167941394Y-118329704D01*
X167931128Y-118317857D01*
X167810053Y-118240047D01*
X167810051Y-118240046D01*
X167810049Y-118240045D01*
X167810050Y-118240045D01*
X167671963Y-118199500D01*
X167671961Y-118199500D01*
X167528039Y-118199500D01*
X167528036Y-118199500D01*
X167389949Y-118240045D01*
X167268873Y-118317856D01*
X167174623Y-118426626D01*
X167174622Y-118426628D01*
X167114834Y-118557543D01*
X167094353Y-118700000D01*
X167114834Y-118842456D01*
X167174622Y-118973371D01*
X167174623Y-118973373D01*
X167268872Y-119082143D01*
X167389947Y-119159953D01*
X167389950Y-119159954D01*
X167389949Y-119159954D01*
X167528036Y-119200499D01*
X167528038Y-119200500D01*
X167528039Y-119200500D01*
X167671962Y-119200500D01*
X167671962Y-119200499D01*
X167810053Y-119159953D01*
X167931128Y-119082143D01*
X167941393Y-119070296D01*
X168000170Y-119032523D01*
X168035105Y-119027500D01*
X170304152Y-119027500D01*
X170371191Y-119047185D01*
X170391833Y-119063819D01*
X172436181Y-121108167D01*
X172469666Y-121169490D01*
X172472500Y-121195848D01*
X172472500Y-123804152D01*
X172452815Y-123871191D01*
X172436181Y-123891833D01*
X169991833Y-126336181D01*
X169930510Y-126369666D01*
X169904152Y-126372500D01*
X157301629Y-126372500D01*
X157234590Y-126352815D01*
X157188835Y-126300011D01*
X157178891Y-126230853D01*
X157207916Y-126167297D01*
X157234590Y-126144185D01*
X157331123Y-126082146D01*
X157331122Y-126082146D01*
X157331128Y-126082143D01*
X157425377Y-125973373D01*
X157485165Y-125842457D01*
X157505647Y-125700000D01*
X157485165Y-125557543D01*
X157425377Y-125426627D01*
X157331128Y-125317857D01*
X157210053Y-125240047D01*
X157210051Y-125240046D01*
X157210049Y-125240045D01*
X157210050Y-125240045D01*
X157138296Y-125218977D01*
X157079518Y-125181203D01*
X157050492Y-125117648D01*
X157060435Y-125048489D01*
X157106190Y-124995685D01*
X157138296Y-124981023D01*
X157210050Y-124959954D01*
X157210050Y-124959953D01*
X157210053Y-124959953D01*
X157331128Y-124882143D01*
X157425377Y-124773373D01*
X157485165Y-124642457D01*
X157505647Y-124500000D01*
X157485165Y-124357543D01*
X157425377Y-124226627D01*
X157331128Y-124117857D01*
X157210053Y-124040047D01*
X157210051Y-124040046D01*
X157210049Y-124040045D01*
X157210050Y-124040045D01*
X157071963Y-123999500D01*
X157071961Y-123999500D01*
X157014017Y-123999500D01*
X156946978Y-123979815D01*
X156926336Y-123963181D01*
X154563819Y-121600664D01*
X154530334Y-121539341D01*
X154527500Y-121512983D01*
X154527500Y-120940813D01*
X154547185Y-120873774D01*
X154599989Y-120828019D01*
X154613173Y-120822885D01*
X154622445Y-120819873D01*
X154776788Y-120741232D01*
X154916928Y-120639414D01*
X155039414Y-120516928D01*
X155141232Y-120376788D01*
X155219873Y-120222445D01*
X155273402Y-120057701D01*
X155300500Y-119886611D01*
X155300500Y-118314017D01*
X155320185Y-118246978D01*
X155336819Y-118226336D01*
X156599336Y-116963819D01*
X156660659Y-116930334D01*
X156687017Y-116927500D01*
X157664895Y-116927500D01*
X157731934Y-116947185D01*
X157758605Y-116970295D01*
X157768872Y-116982143D01*
X157889947Y-117059953D01*
X157889950Y-117059954D01*
X157889949Y-117059954D01*
X158028036Y-117100499D01*
X158028038Y-117100500D01*
X158028039Y-117100500D01*
X158171962Y-117100500D01*
X158171962Y-117100499D01*
X158279121Y-117069035D01*
X158310050Y-117059954D01*
X158310050Y-117059953D01*
X158310053Y-117059953D01*
X158431128Y-116982143D01*
X158525377Y-116873373D01*
X158585165Y-116742457D01*
X158605647Y-116600000D01*
X158585165Y-116457543D01*
X158525377Y-116326627D01*
X158431128Y-116217857D01*
X158310053Y-116140047D01*
X158310051Y-116140046D01*
X158310049Y-116140045D01*
X158310050Y-116140045D01*
X158171963Y-116099500D01*
X158171961Y-116099500D01*
X158028039Y-116099500D01*
X158028036Y-116099500D01*
X157889949Y-116140045D01*
X157768873Y-116217856D01*
X157768872Y-116217856D01*
X157768872Y-116217857D01*
X157758606Y-116229703D01*
X157699830Y-116267477D01*
X157664895Y-116272500D01*
X156543116Y-116272500D01*
X156456884Y-116272500D01*
X156401354Y-116287379D01*
X156373589Y-116294819D01*
X156298911Y-116337934D01*
X156298908Y-116337936D01*
X155274359Y-117362484D01*
X155213036Y-117395969D01*
X155143344Y-117390985D01*
X155087411Y-117349113D01*
X155086360Y-117347688D01*
X155048613Y-117295734D01*
X155039414Y-117283072D01*
X154916928Y-117160586D01*
X154804968Y-117079242D01*
X154762304Y-117023913D01*
X154756325Y-116954299D01*
X154788931Y-116892504D01*
X154836897Y-116861885D01*
X154862882Y-116852793D01*
X154972150Y-116772150D01*
X155052793Y-116662882D01*
X155075219Y-116598790D01*
X155097646Y-116534701D01*
X155097646Y-116534699D01*
X155100500Y-116504269D01*
X155100500Y-115695730D01*
X155097646Y-115665300D01*
X155097646Y-115665298D01*
X155052793Y-115537119D01*
X155052792Y-115537117D01*
X154972150Y-115427850D01*
X154862882Y-115347207D01*
X154862880Y-115347206D01*
X154734700Y-115302353D01*
X154704270Y-115299500D01*
X154704266Y-115299500D01*
X153695734Y-115299500D01*
X153695730Y-115299500D01*
X153665300Y-115302353D01*
X153665298Y-115302353D01*
X153537119Y-115347206D01*
X153537117Y-115347207D01*
X153427850Y-115427850D01*
X153347207Y-115537117D01*
X153347206Y-115537119D01*
X153302353Y-115665298D01*
X153302353Y-115665300D01*
X153299500Y-115695730D01*
X153299500Y-116504269D01*
X153302353Y-116534699D01*
X153302353Y-116534701D01*
X153347206Y-116662880D01*
X153347207Y-116662882D01*
X153427850Y-116772150D01*
X153537118Y-116852793D01*
X153550636Y-116857523D01*
X153563099Y-116861884D01*
X153619875Y-116902605D01*
X153645622Y-116967558D01*
X153632166Y-117036120D01*
X153595030Y-117079243D01*
X153483070Y-117160587D01*
X153360588Y-117283069D01*
X153360588Y-117283070D01*
X153360586Y-117283072D01*
X153316859Y-117343256D01*
X153258768Y-117423211D01*
X153180128Y-117577552D01*
X153126597Y-117742302D01*
X153099500Y-117913389D01*
X153099500Y-119886610D01*
X153119413Y-120012341D01*
X153126598Y-120057701D01*
X153180127Y-120222445D01*
X153258768Y-120376788D01*
X153360586Y-120516928D01*
X153483072Y-120639414D01*
X153588177Y-120715777D01*
X153623213Y-120741233D01*
X153736524Y-120798967D01*
X153777555Y-120819873D01*
X153786813Y-120822881D01*
X153844488Y-120862313D01*
X153871691Y-120926669D01*
X153872500Y-120940813D01*
X153872500Y-121656884D01*
X153872500Y-121743116D01*
X153886775Y-121796389D01*
X153885112Y-121866239D01*
X153845950Y-121924102D01*
X153781721Y-121951606D01*
X153712819Y-121940020D01*
X153679319Y-121916164D01*
X151836819Y-120073664D01*
X151803334Y-120012341D01*
X151800500Y-119985983D01*
X151800500Y-117295730D01*
X151797646Y-117265300D01*
X151797646Y-117265298D01*
X151752793Y-117137119D01*
X151752792Y-117137117D01*
X151745140Y-117126749D01*
X151672150Y-117027850D01*
X151562882Y-116947207D01*
X151562819Y-116947185D01*
X151469961Y-116914692D01*
X151413186Y-116873970D01*
X151387439Y-116809017D01*
X151400896Y-116740455D01*
X151437282Y-116697883D01*
X151472150Y-116672150D01*
X151552793Y-116562882D01*
X151589653Y-116457543D01*
X151597646Y-116434701D01*
X151597646Y-116434699D01*
X151600500Y-116404269D01*
X151600500Y-115595730D01*
X151597646Y-115565300D01*
X151597646Y-115565298D01*
X151552793Y-115437119D01*
X151552792Y-115437117D01*
X151545953Y-115427850D01*
X151472150Y-115327850D01*
X151362882Y-115247207D01*
X151362880Y-115247206D01*
X151234700Y-115202353D01*
X151204270Y-115199500D01*
X151204266Y-115199500D01*
X150195734Y-115199500D01*
X150195730Y-115199500D01*
X150165300Y-115202353D01*
X150165298Y-115202353D01*
X150037119Y-115247206D01*
X150037117Y-115247207D01*
X149927850Y-115327850D01*
X149847207Y-115437117D01*
X149847206Y-115437119D01*
X149802353Y-115565298D01*
X149802353Y-115565300D01*
X149799500Y-115595730D01*
X149799500Y-116404269D01*
X149802353Y-116434699D01*
X149802353Y-116434701D01*
X149847206Y-116562880D01*
X149847207Y-116562882D01*
X149927850Y-116672150D01*
X149962715Y-116697881D01*
X150004966Y-116753527D01*
X150010425Y-116823183D01*
X149977359Y-116884733D01*
X149930038Y-116914692D01*
X149837117Y-116947207D01*
X149727850Y-117027850D01*
X149647207Y-117137117D01*
X149647206Y-117137119D01*
X149602353Y-117265298D01*
X149602353Y-117265300D01*
X149599500Y-117295730D01*
X149599500Y-120504269D01*
X149602353Y-120534699D01*
X149602353Y-120534701D01*
X149638994Y-120639411D01*
X149647207Y-120662882D01*
X149727850Y-120772150D01*
X149837118Y-120852793D01*
X149864325Y-120862313D01*
X149965299Y-120897646D01*
X149995730Y-120900500D01*
X149995734Y-120900500D01*
X151404270Y-120900500D01*
X151434699Y-120897646D01*
X151434701Y-120897646D01*
X151535675Y-120862313D01*
X151562882Y-120852793D01*
X151562884Y-120852791D01*
X151564897Y-120851728D01*
X151567353Y-120851228D01*
X151571653Y-120849724D01*
X151571858Y-120850312D01*
X151633365Y-120837804D01*
X151698492Y-120863108D01*
X151710521Y-120873676D01*
X156458034Y-125621189D01*
X156491519Y-125682512D01*
X156493091Y-125691223D01*
X156514834Y-125842456D01*
X156574622Y-125973371D01*
X156574623Y-125973373D01*
X156668872Y-126082143D01*
X156668874Y-126082144D01*
X156668876Y-126082146D01*
X156765410Y-126144185D01*
X156811165Y-126196988D01*
X156821109Y-126266147D01*
X156792084Y-126329703D01*
X156733306Y-126367477D01*
X156698371Y-126372500D01*
X128678186Y-126372500D01*
X128611147Y-126352815D01*
X128590505Y-126336181D01*
X126054324Y-123800000D01*
X138094353Y-123800000D01*
X138114834Y-123942456D01*
X138153673Y-124027500D01*
X138174623Y-124073373D01*
X138268872Y-124182143D01*
X138389947Y-124259953D01*
X138389950Y-124259954D01*
X138389949Y-124259954D01*
X138528036Y-124300499D01*
X138528038Y-124300500D01*
X138528039Y-124300500D01*
X138671962Y-124300500D01*
X138671962Y-124300499D01*
X138810053Y-124259953D01*
X138931128Y-124182143D01*
X139025377Y-124073373D01*
X139025378Y-124073371D01*
X139028042Y-124070297D01*
X139086820Y-124032523D01*
X139121755Y-124027500D01*
X139878245Y-124027500D01*
X139945284Y-124047185D01*
X139971958Y-124070297D01*
X139974622Y-124073371D01*
X139974623Y-124073373D01*
X140068872Y-124182143D01*
X140189947Y-124259953D01*
X140189950Y-124259954D01*
X140189949Y-124259954D01*
X140328036Y-124300499D01*
X140328038Y-124300500D01*
X140328039Y-124300500D01*
X140471962Y-124300500D01*
X140471962Y-124300499D01*
X140610053Y-124259953D01*
X140731128Y-124182143D01*
X140825377Y-124073373D01*
X140885165Y-123942457D01*
X140905647Y-123800000D01*
X140885165Y-123657543D01*
X140825377Y-123526627D01*
X140731128Y-123417857D01*
X140610053Y-123340047D01*
X140610051Y-123340046D01*
X140610049Y-123340045D01*
X140610050Y-123340045D01*
X140471963Y-123299500D01*
X140471961Y-123299500D01*
X140328039Y-123299500D01*
X140328036Y-123299500D01*
X140189949Y-123340045D01*
X140068873Y-123417856D01*
X139971958Y-123529703D01*
X139913180Y-123567477D01*
X139878245Y-123572500D01*
X139121755Y-123572500D01*
X139054716Y-123552815D01*
X139028042Y-123529703D01*
X139025376Y-123526626D01*
X138931128Y-123417857D01*
X138810053Y-123340047D01*
X138810051Y-123340046D01*
X138810049Y-123340045D01*
X138810050Y-123340045D01*
X138671963Y-123299500D01*
X138671961Y-123299500D01*
X138528039Y-123299500D01*
X138528036Y-123299500D01*
X138389949Y-123340045D01*
X138268873Y-123417856D01*
X138174623Y-123526626D01*
X138174622Y-123526628D01*
X138114834Y-123657543D01*
X138094353Y-123800000D01*
X126054324Y-123800000D01*
X118854324Y-116600000D01*
X133044353Y-116600000D01*
X133064834Y-116742456D01*
X133115223Y-116852791D01*
X133124623Y-116873373D01*
X133218872Y-116982143D01*
X133339947Y-117059953D01*
X133339950Y-117059954D01*
X133339949Y-117059954D01*
X133478036Y-117100499D01*
X133478038Y-117100500D01*
X133478039Y-117100500D01*
X133621962Y-117100500D01*
X133621962Y-117100499D01*
X133729121Y-117069035D01*
X133760050Y-117059954D01*
X133760050Y-117059953D01*
X133760053Y-117059953D01*
X133881128Y-116982143D01*
X133953760Y-116898321D01*
X133956380Y-116895297D01*
X134015158Y-116857523D01*
X134050093Y-116852500D01*
X138411634Y-116852500D01*
X138478673Y-116872185D01*
X138524428Y-116924989D01*
X138534372Y-116994147D01*
X138511404Y-117050133D01*
X138447209Y-117137113D01*
X138447206Y-117137119D01*
X138402353Y-117265298D01*
X138402353Y-117265300D01*
X138399500Y-117295730D01*
X138399500Y-120504269D01*
X138402353Y-120534699D01*
X138402353Y-120534701D01*
X138438994Y-120639411D01*
X138447207Y-120662882D01*
X138527850Y-120772150D01*
X138637118Y-120852793D01*
X138664325Y-120862313D01*
X138765299Y-120897646D01*
X138795730Y-120900500D01*
X138795734Y-120900500D01*
X140204270Y-120900500D01*
X140234699Y-120897646D01*
X140234701Y-120897646D01*
X140298790Y-120875219D01*
X140362882Y-120852793D01*
X140472150Y-120772150D01*
X140552793Y-120662882D01*
X140575219Y-120598790D01*
X140597646Y-120534701D01*
X140597646Y-120534699D01*
X140600500Y-120504269D01*
X140600500Y-117913389D01*
X143479500Y-117913389D01*
X143479500Y-119886610D01*
X143499413Y-120012341D01*
X143506598Y-120057701D01*
X143560127Y-120222445D01*
X143638768Y-120376788D01*
X143740586Y-120516928D01*
X143863072Y-120639414D01*
X144003212Y-120741232D01*
X144157555Y-120819873D01*
X144322299Y-120873402D01*
X144493389Y-120900500D01*
X144493390Y-120900500D01*
X144666610Y-120900500D01*
X144666611Y-120900500D01*
X144837701Y-120873402D01*
X145002445Y-120819873D01*
X145156788Y-120741232D01*
X145296928Y-120639414D01*
X145419414Y-120516928D01*
X145521232Y-120376788D01*
X145599873Y-120222445D01*
X145653402Y-120057701D01*
X145680500Y-119886611D01*
X145680500Y-117913389D01*
X145653402Y-117742299D01*
X145599873Y-117577555D01*
X145521232Y-117423212D01*
X145419414Y-117283072D01*
X145296928Y-117160586D01*
X145156788Y-117058768D01*
X145002445Y-116980127D01*
X144837701Y-116926598D01*
X144837699Y-116926597D01*
X144837698Y-116926597D01*
X144684630Y-116902354D01*
X144666611Y-116899500D01*
X144493389Y-116899500D01*
X144475370Y-116902354D01*
X144322302Y-116926597D01*
X144157552Y-116980128D01*
X144003211Y-117058768D01*
X143945774Y-117100499D01*
X143863072Y-117160586D01*
X143863070Y-117160588D01*
X143863069Y-117160588D01*
X143740588Y-117283069D01*
X143740588Y-117283070D01*
X143740586Y-117283072D01*
X143696859Y-117343256D01*
X143638768Y-117423211D01*
X143560128Y-117577552D01*
X143506597Y-117742302D01*
X143479500Y-117913389D01*
X140600500Y-117913389D01*
X140600500Y-117295730D01*
X140597646Y-117265301D01*
X140573581Y-117196528D01*
X140570018Y-117126749D01*
X140604747Y-117066121D01*
X140623575Y-117051262D01*
X140731128Y-116982143D01*
X140825377Y-116873373D01*
X140885165Y-116742457D01*
X140905647Y-116600000D01*
X140885165Y-116457543D01*
X140825377Y-116326627D01*
X140731128Y-116217857D01*
X140610053Y-116140047D01*
X140610051Y-116140046D01*
X140610049Y-116140045D01*
X140610050Y-116140045D01*
X140471963Y-116099500D01*
X140471961Y-116099500D01*
X140328039Y-116099500D01*
X140328036Y-116099500D01*
X140189949Y-116140045D01*
X140068873Y-116217856D01*
X140068872Y-116217856D01*
X140068872Y-116217857D01*
X140026693Y-116266534D01*
X139993620Y-116304703D01*
X139934842Y-116342477D01*
X139899907Y-116347500D01*
X134050093Y-116347500D01*
X133983054Y-116327815D01*
X133956380Y-116304703D01*
X133928476Y-116272500D01*
X133881128Y-116217857D01*
X133760053Y-116140047D01*
X133760051Y-116140046D01*
X133760049Y-116140045D01*
X133760050Y-116140045D01*
X133621963Y-116099500D01*
X133621961Y-116099500D01*
X133478039Y-116099500D01*
X133478036Y-116099500D01*
X133339949Y-116140045D01*
X133218873Y-116217856D01*
X133124623Y-116326626D01*
X133124622Y-116326628D01*
X133064834Y-116457543D01*
X133044353Y-116600000D01*
X118854324Y-116600000D01*
X117963819Y-115709495D01*
X117930334Y-115648172D01*
X117927500Y-115621814D01*
X117927500Y-112532579D01*
X117947185Y-112465540D01*
X117957783Y-112451380D01*
X118025377Y-112373373D01*
X118085165Y-112242457D01*
X118105647Y-112100000D01*
X118085165Y-111957543D01*
X118025377Y-111826627D01*
X117957786Y-111748622D01*
X117928762Y-111685066D01*
X117927500Y-111667420D01*
X117927500Y-106400000D01*
X129294353Y-106400000D01*
X129314834Y-106542456D01*
X129374622Y-106673371D01*
X129374625Y-106673377D01*
X129413983Y-106718798D01*
X129443008Y-106782353D01*
X129433064Y-106851512D01*
X129413983Y-106881202D01*
X129374625Y-106926622D01*
X129374622Y-106926628D01*
X129314834Y-107057543D01*
X129294353Y-107200000D01*
X129314834Y-107342456D01*
X129374622Y-107473371D01*
X129374625Y-107473377D01*
X129413983Y-107518798D01*
X129443008Y-107582353D01*
X129433064Y-107651512D01*
X129413983Y-107681202D01*
X129374625Y-107726622D01*
X129374622Y-107726628D01*
X129314834Y-107857543D01*
X129294353Y-108000000D01*
X129314834Y-108142456D01*
X129353673Y-108227500D01*
X129374623Y-108273373D01*
X129468872Y-108382143D01*
X129589947Y-108459953D01*
X129589950Y-108459954D01*
X129589949Y-108459954D01*
X129657336Y-108479740D01*
X129724633Y-108499500D01*
X129728036Y-108500499D01*
X129728038Y-108500500D01*
X129728039Y-108500500D01*
X129871962Y-108500500D01*
X129871962Y-108500499D01*
X130010053Y-108459953D01*
X130131128Y-108382143D01*
X130225377Y-108273373D01*
X130225378Y-108273371D01*
X130228042Y-108270297D01*
X130286820Y-108232523D01*
X130321755Y-108227500D01*
X136554405Y-108227500D01*
X136621444Y-108247185D01*
X136642086Y-108263819D01*
X139173581Y-110795315D01*
X139207066Y-110856638D01*
X139208638Y-110900643D01*
X139194353Y-110999999D01*
X139214834Y-111142456D01*
X139274622Y-111273371D01*
X139274623Y-111273373D01*
X139368872Y-111382143D01*
X139489947Y-111459953D01*
X139489950Y-111459954D01*
X139489949Y-111459954D01*
X139628036Y-111500499D01*
X139628038Y-111500500D01*
X139628039Y-111500500D01*
X139771962Y-111500500D01*
X139771962Y-111500499D01*
X139910050Y-111459954D01*
X139910051Y-111459954D01*
X139910053Y-111459953D01*
X140031128Y-111382143D01*
X140031129Y-111382141D01*
X140032960Y-111380965D01*
X140100000Y-111361280D01*
X140167039Y-111380964D01*
X140167040Y-111380965D01*
X140168870Y-111382141D01*
X140168872Y-111382143D01*
X140246251Y-111431871D01*
X140289948Y-111459954D01*
X140428036Y-111500499D01*
X140428038Y-111500500D01*
X140428039Y-111500500D01*
X140571962Y-111500500D01*
X140571962Y-111500499D01*
X140710050Y-111459954D01*
X140710051Y-111459954D01*
X140710053Y-111459953D01*
X140831128Y-111382143D01*
X140831129Y-111382141D01*
X140832960Y-111380965D01*
X140900000Y-111361280D01*
X140967039Y-111380964D01*
X140967040Y-111380965D01*
X140968870Y-111382141D01*
X140968872Y-111382143D01*
X141046251Y-111431871D01*
X141089948Y-111459954D01*
X141228036Y-111500499D01*
X141228038Y-111500500D01*
X141228039Y-111500500D01*
X141371962Y-111500500D01*
X141371962Y-111500499D01*
X141510053Y-111459953D01*
X141631128Y-111382143D01*
X141725377Y-111273373D01*
X141785165Y-111142457D01*
X141805647Y-111000000D01*
X141785165Y-110857543D01*
X141725377Y-110726627D01*
X141631128Y-110617857D01*
X141510053Y-110540047D01*
X141510051Y-110540046D01*
X141510049Y-110540045D01*
X141510050Y-110540045D01*
X141371963Y-110499500D01*
X141371961Y-110499500D01*
X141228039Y-110499500D01*
X141228035Y-110499500D01*
X141216060Y-110503016D01*
X141146190Y-110503012D01*
X141093451Y-110471718D01*
X137922374Y-107300640D01*
X147088843Y-107300640D01*
X147109324Y-107443096D01*
X147127157Y-107482143D01*
X147169113Y-107574013D01*
X147263362Y-107682783D01*
X147384437Y-107760593D01*
X147384440Y-107760594D01*
X147384439Y-107760594D01*
X147522526Y-107801139D01*
X147522528Y-107801140D01*
X147522529Y-107801140D01*
X147580473Y-107801140D01*
X147647512Y-107820825D01*
X147668154Y-107837459D01*
X148536181Y-108705486D01*
X148569666Y-108766809D01*
X148572500Y-108793167D01*
X148572500Y-110367420D01*
X148552815Y-110434459D01*
X148542214Y-110448622D01*
X148474623Y-110526627D01*
X148474622Y-110526628D01*
X148414834Y-110657543D01*
X148394353Y-110800000D01*
X148414834Y-110942456D01*
X148474622Y-111073371D01*
X148474625Y-111073377D01*
X148507685Y-111111529D01*
X148536711Y-111175084D01*
X148526768Y-111244243D01*
X148507687Y-111273934D01*
X148427621Y-111366337D01*
X148427620Y-111366338D01*
X148367832Y-111497253D01*
X148347351Y-111639710D01*
X148367832Y-111782166D01*
X148427619Y-111913079D01*
X148427621Y-111913083D01*
X148521870Y-112021853D01*
X148642945Y-112099663D01*
X148642948Y-112099664D01*
X148642947Y-112099664D01*
X148781034Y-112140209D01*
X148781036Y-112140210D01*
X148781037Y-112140210D01*
X148924960Y-112140210D01*
X148924960Y-112140209D01*
X149032119Y-112108745D01*
X149063048Y-112099664D01*
X149063048Y-112099663D01*
X149063051Y-112099663D01*
X149184126Y-112021853D01*
X149278375Y-111913083D01*
X149338163Y-111782167D01*
X149344121Y-111740722D01*
X149373144Y-111677167D01*
X149379164Y-111670701D01*
X151860821Y-109189045D01*
X151922142Y-109155562D01*
X151991834Y-109160546D01*
X152047767Y-109202418D01*
X152072184Y-109267882D01*
X152072500Y-109276728D01*
X152072500Y-110767420D01*
X152052815Y-110834459D01*
X152042214Y-110848622D01*
X151974623Y-110926627D01*
X151974622Y-110926628D01*
X151914834Y-111057543D01*
X151894353Y-111200000D01*
X151914834Y-111342456D01*
X151932421Y-111380965D01*
X151974623Y-111473373D01*
X152068872Y-111582143D01*
X152189947Y-111659953D01*
X152189950Y-111659954D01*
X152189949Y-111659954D01*
X152328036Y-111700499D01*
X152328038Y-111700500D01*
X152328039Y-111700500D01*
X152471962Y-111700500D01*
X152471962Y-111700499D01*
X152579121Y-111669035D01*
X152610050Y-111659954D01*
X152610051Y-111659954D01*
X152610053Y-111659953D01*
X152731128Y-111582143D01*
X152731129Y-111582141D01*
X152732960Y-111580965D01*
X152800000Y-111561280D01*
X152867039Y-111580964D01*
X152867040Y-111580965D01*
X152868870Y-111582141D01*
X152868872Y-111582143D01*
X152946251Y-111631871D01*
X152989948Y-111659954D01*
X153128036Y-111700499D01*
X153128038Y-111700500D01*
X153128039Y-111700500D01*
X153271962Y-111700500D01*
X153271962Y-111700499D01*
X153379121Y-111669035D01*
X153410050Y-111659954D01*
X153410050Y-111659953D01*
X153410053Y-111659953D01*
X153531128Y-111582143D01*
X153625377Y-111473373D01*
X153685165Y-111342457D01*
X153705647Y-111200000D01*
X153685165Y-111057543D01*
X153625377Y-110926627D01*
X153557786Y-110848622D01*
X153528762Y-110785066D01*
X153527500Y-110767420D01*
X153527500Y-109000000D01*
X161594353Y-109000000D01*
X161614834Y-109142456D01*
X161672115Y-109267882D01*
X161674623Y-109273373D01*
X161768872Y-109382143D01*
X161889947Y-109459953D01*
X161889950Y-109459954D01*
X161889949Y-109459954D01*
X162028036Y-109500499D01*
X162028038Y-109500500D01*
X162028039Y-109500500D01*
X162171962Y-109500500D01*
X162171962Y-109500499D01*
X162310053Y-109459953D01*
X162431128Y-109382143D01*
X162441393Y-109370296D01*
X162500170Y-109332523D01*
X162535105Y-109327500D01*
X166764895Y-109327500D01*
X166831934Y-109347185D01*
X166858605Y-109370295D01*
X166868872Y-109382143D01*
X166989947Y-109459953D01*
X166989950Y-109459954D01*
X166989949Y-109459954D01*
X167128036Y-109500499D01*
X167128038Y-109500500D01*
X167128039Y-109500500D01*
X167271962Y-109500500D01*
X167271962Y-109500499D01*
X167410053Y-109459953D01*
X167531128Y-109382143D01*
X167625377Y-109273373D01*
X167685165Y-109142457D01*
X167705647Y-109000000D01*
X167685165Y-108857543D01*
X167625377Y-108726627D01*
X167531128Y-108617857D01*
X167410053Y-108540047D01*
X167410051Y-108540046D01*
X167410049Y-108540045D01*
X167410050Y-108540045D01*
X167271963Y-108499500D01*
X167271961Y-108499500D01*
X167128039Y-108499500D01*
X167128036Y-108499500D01*
X166989949Y-108540045D01*
X166868873Y-108617856D01*
X166868872Y-108617856D01*
X166868872Y-108617857D01*
X166858606Y-108629703D01*
X166799830Y-108667477D01*
X166764895Y-108672500D01*
X162535105Y-108672500D01*
X162468066Y-108652815D01*
X162441394Y-108629704D01*
X162431128Y-108617857D01*
X162310053Y-108540047D01*
X162310051Y-108540046D01*
X162310049Y-108540045D01*
X162310050Y-108540045D01*
X162171963Y-108499500D01*
X162171961Y-108499500D01*
X162028039Y-108499500D01*
X162028036Y-108499500D01*
X161889949Y-108540045D01*
X161768873Y-108617856D01*
X161674623Y-108726626D01*
X161674622Y-108726628D01*
X161614834Y-108857543D01*
X161594353Y-109000000D01*
X153527500Y-109000000D01*
X153527500Y-106673544D01*
X153527455Y-106673377D01*
X153505181Y-106590249D01*
X153505181Y-106590248D01*
X153505181Y-106590247D01*
X153462067Y-106515572D01*
X153462062Y-106515566D01*
X153452758Y-106506262D01*
X153419273Y-106444939D01*
X153417701Y-106436227D01*
X153416439Y-106427454D01*
X153416440Y-106427452D01*
X153395958Y-106284995D01*
X153336170Y-106154079D01*
X153241921Y-106045309D01*
X153120846Y-105967499D01*
X153120844Y-105967498D01*
X153120842Y-105967497D01*
X153120843Y-105967497D01*
X152982756Y-105926952D01*
X152982754Y-105926952D01*
X152838832Y-105926952D01*
X152838829Y-105926952D01*
X152700742Y-105967497D01*
X152579666Y-106045308D01*
X152485416Y-106154078D01*
X152485415Y-106154080D01*
X152425627Y-106284995D01*
X152405146Y-106427452D01*
X152410466Y-106464454D01*
X152400522Y-106533613D01*
X152354767Y-106586417D01*
X152322661Y-106601079D01*
X152256618Y-106620470D01*
X152186749Y-106620469D01*
X152127971Y-106582693D01*
X152098947Y-106519137D01*
X152097685Y-106501492D01*
X152097685Y-105100000D01*
X182294353Y-105100000D01*
X182314834Y-105242456D01*
X182374622Y-105373371D01*
X182374623Y-105373373D01*
X182468872Y-105482143D01*
X182468874Y-105482144D01*
X182468874Y-105482145D01*
X182490538Y-105496067D01*
X182536294Y-105548870D01*
X182547500Y-105600383D01*
X182547500Y-113499616D01*
X182527815Y-113566655D01*
X182490542Y-113603930D01*
X182468872Y-113617856D01*
X182468866Y-113617862D01*
X182374625Y-113726622D01*
X182374622Y-113726628D01*
X182314834Y-113857543D01*
X182294353Y-114000000D01*
X182314834Y-114142456D01*
X182374622Y-114273371D01*
X182374623Y-114273373D01*
X182468872Y-114382143D01*
X182589947Y-114459953D01*
X182589950Y-114459954D01*
X182589949Y-114459954D01*
X182728036Y-114500499D01*
X182728038Y-114500500D01*
X182728039Y-114500500D01*
X182871962Y-114500500D01*
X182871962Y-114500499D01*
X183010053Y-114459953D01*
X183131128Y-114382143D01*
X183225377Y-114273373D01*
X183285165Y-114142457D01*
X183305647Y-114000000D01*
X183285165Y-113857543D01*
X183225377Y-113726627D01*
X183225375Y-113726625D01*
X183225374Y-113726622D01*
X183131133Y-113617862D01*
X183131127Y-113617856D01*
X183109458Y-113603930D01*
X183063704Y-113551125D01*
X183052500Y-113499616D01*
X183052500Y-105600383D01*
X183072185Y-105533344D01*
X183109462Y-105496067D01*
X183131125Y-105482145D01*
X183131125Y-105482144D01*
X183131128Y-105482143D01*
X183225377Y-105373373D01*
X183285165Y-105242457D01*
X183305647Y-105100000D01*
X183285165Y-104957543D01*
X183225377Y-104826627D01*
X183131128Y-104717857D01*
X183010053Y-104640047D01*
X183010051Y-104640046D01*
X183010049Y-104640045D01*
X183010050Y-104640045D01*
X182871963Y-104599500D01*
X182871961Y-104599500D01*
X182728039Y-104599500D01*
X182728036Y-104599500D01*
X182589949Y-104640045D01*
X182468873Y-104717856D01*
X182374623Y-104826626D01*
X182374622Y-104826628D01*
X182314834Y-104957543D01*
X182294353Y-105100000D01*
X152097685Y-105100000D01*
X152097685Y-102249106D01*
X152117370Y-102182067D01*
X152127968Y-102167907D01*
X152195562Y-102089900D01*
X152255350Y-101958984D01*
X152275832Y-101816527D01*
X152255350Y-101674070D01*
X152195562Y-101543154D01*
X152101313Y-101434384D01*
X151980238Y-101356574D01*
X151980236Y-101356573D01*
X151980234Y-101356572D01*
X151980235Y-101356572D01*
X151842148Y-101316027D01*
X151842146Y-101316027D01*
X151698224Y-101316027D01*
X151698221Y-101316027D01*
X151560134Y-101356572D01*
X151439058Y-101434383D01*
X151344808Y-101543153D01*
X151344807Y-101543155D01*
X151285019Y-101674070D01*
X151264538Y-101816527D01*
X151285019Y-101958983D01*
X151337259Y-102073371D01*
X151344808Y-102089900D01*
X151412398Y-102167904D01*
X151441423Y-102231459D01*
X151442685Y-102249106D01*
X151442685Y-108629509D01*
X151423000Y-108696548D01*
X151406366Y-108717190D01*
X149536796Y-110586759D01*
X149475473Y-110620244D01*
X149405781Y-110615260D01*
X149349848Y-110573388D01*
X149336321Y-110550591D01*
X149325377Y-110526627D01*
X149297088Y-110493979D01*
X149257786Y-110448622D01*
X149228762Y-110385066D01*
X149227500Y-110367420D01*
X149227500Y-108563035D01*
X149227500Y-108563034D01*
X149205181Y-108479740D01*
X149162065Y-108405060D01*
X149101090Y-108344085D01*
X148136455Y-107379450D01*
X148102970Y-107318127D01*
X148101398Y-107309415D01*
X148100136Y-107300642D01*
X148100137Y-107300640D01*
X148079655Y-107158183D01*
X148019867Y-107027267D01*
X147925618Y-106918497D01*
X147804543Y-106840687D01*
X147804541Y-106840686D01*
X147804539Y-106840685D01*
X147804540Y-106840685D01*
X147666453Y-106800140D01*
X147666451Y-106800140D01*
X147522529Y-106800140D01*
X147522526Y-106800140D01*
X147384439Y-106840685D01*
X147263363Y-106918496D01*
X147169113Y-107027266D01*
X147169112Y-107027268D01*
X147109324Y-107158183D01*
X147088843Y-107300640D01*
X137922374Y-107300640D01*
X136828870Y-106207136D01*
X136745253Y-106172500D01*
X130321755Y-106172500D01*
X130254716Y-106152815D01*
X130228042Y-106129703D01*
X130225376Y-106126626D01*
X130131128Y-106017857D01*
X130010053Y-105940047D01*
X130010051Y-105940046D01*
X130010049Y-105940045D01*
X130010050Y-105940045D01*
X129871963Y-105899500D01*
X129871961Y-105899500D01*
X129728039Y-105899500D01*
X129728036Y-105899500D01*
X129589949Y-105940045D01*
X129468873Y-106017856D01*
X129374623Y-106126626D01*
X129374622Y-106126628D01*
X129314834Y-106257543D01*
X129294353Y-106400000D01*
X117927500Y-106400000D01*
X117927500Y-101151500D01*
X117947185Y-101084461D01*
X117999989Y-101038706D01*
X118051500Y-101027500D01*
X129664895Y-101027500D01*
X129731934Y-101047185D01*
X129758605Y-101070295D01*
X129768872Y-101082143D01*
X129889947Y-101159953D01*
X129889950Y-101159954D01*
X129889949Y-101159954D01*
X130028036Y-101200499D01*
X130028038Y-101200500D01*
X130028039Y-101200500D01*
X130171962Y-101200500D01*
X130171962Y-101200499D01*
X130310053Y-101159953D01*
X130431128Y-101082143D01*
X130525377Y-100973373D01*
X130585165Y-100842457D01*
X130605647Y-100700000D01*
X130585165Y-100557543D01*
X130525377Y-100426627D01*
X130431128Y-100317857D01*
X130310053Y-100240047D01*
X130310051Y-100240046D01*
X130310049Y-100240045D01*
X130310050Y-100240045D01*
X130171963Y-100199500D01*
X130171961Y-100199500D01*
X130028039Y-100199500D01*
X130028036Y-100199500D01*
X129889949Y-100240045D01*
X129768873Y-100317856D01*
X129768872Y-100317856D01*
X129768872Y-100317857D01*
X129758606Y-100329703D01*
X129699830Y-100367477D01*
X129664895Y-100372500D01*
X118035105Y-100372500D01*
X117968066Y-100352815D01*
X117941394Y-100329704D01*
X117931128Y-100317857D01*
X117810053Y-100240047D01*
X117810051Y-100240046D01*
X117810049Y-100240045D01*
X117810050Y-100240045D01*
X117671963Y-100199500D01*
X117671961Y-100199500D01*
X117528039Y-100199500D01*
X117528036Y-100199500D01*
X117389949Y-100240045D01*
X117268873Y-100317856D01*
X117174623Y-100426626D01*
X117174622Y-100426628D01*
X117114834Y-100557543D01*
X117094353Y-100700000D01*
X117114834Y-100842456D01*
X117174622Y-100973371D01*
X117174623Y-100973373D01*
X117242213Y-101051377D01*
X117271238Y-101114932D01*
X117272500Y-101132579D01*
X117272500Y-111667420D01*
X117252815Y-111734459D01*
X117242214Y-111748622D01*
X117174623Y-111826627D01*
X117174622Y-111826628D01*
X117114834Y-111957543D01*
X117094353Y-112100000D01*
X117114834Y-112242456D01*
X117174622Y-112373371D01*
X117174623Y-112373373D01*
X117242213Y-112451377D01*
X117271238Y-112514932D01*
X117272500Y-112532579D01*
X117272500Y-115765715D01*
X117272500Y-115851947D01*
X117294819Y-115935241D01*
X117337934Y-116009919D01*
X117337936Y-116009922D01*
X128115833Y-126787819D01*
X128149318Y-126849142D01*
X128144334Y-126918834D01*
X128102462Y-126974767D01*
X128036998Y-126999184D01*
X128028152Y-126999500D01*
X116124500Y-126999500D01*
X116057461Y-126979815D01*
X116011706Y-126927011D01*
X116000500Y-126875500D01*
X116000500Y-68124500D01*
X116020185Y-68057461D01*
X116072989Y-68011706D01*
X116124500Y-68000500D01*
X127643049Y-68000500D01*
X127710088Y-68020185D01*
G37*
G04 #@! TD.AperFunction*
M02*
