G04 #@! TF.GenerationSoftware,KiCad,Pcbnew,8.0.6*
G04 #@! TF.CreationDate,2024-11-03T17:59:08+01:00*
G04 #@! TF.ProjectId,s3main,73336d61-696e-42e6-9b69-6361645f7063,A*
G04 #@! TF.SameCoordinates,Original*
G04 #@! TF.FileFunction,Paste,Top*
G04 #@! TF.FilePolarity,Positive*
%FSLAX46Y46*%
G04 Gerber Fmt 4.6, Leading zero omitted, Abs format (unit mm)*
G04 Created by KiCad (PCBNEW 8.0.6) date 2024-11-03 17:59:08*
%MOMM*%
%LPD*%
G01*
G04 APERTURE LIST*
G04 Aperture macros list*
%AMRoundRect*
0 Rectangle with rounded corners*
0 $1 Rounding radius*
0 $2 $3 $4 $5 $6 $7 $8 $9 X,Y pos of 4 corners*
0 Add a 4 corners polygon primitive as box body*
4,1,4,$2,$3,$4,$5,$6,$7,$8,$9,$2,$3,0*
0 Add four circle primitives for the rounded corners*
1,1,$1+$1,$2,$3*
1,1,$1+$1,$4,$5*
1,1,$1+$1,$6,$7*
1,1,$1+$1,$8,$9*
0 Add four rect primitives between the rounded corners*
20,1,$1+$1,$2,$3,$4,$5,0*
20,1,$1+$1,$4,$5,$6,$7,0*
20,1,$1+$1,$6,$7,$8,$9,0*
20,1,$1+$1,$8,$9,$2,$3,0*%
%AMFreePoly0*
4,1,21,1.372500,0.787500,0.862500,0.787500,0.862500,0.532500,1.372500,0.532500,1.372500,0.127500,0.862500,0.127500,0.862500,-0.127500,1.372500,-0.127500,1.372500,-0.532500,0.862500,-0.532500,0.862500,-0.787500,1.372500,-0.787500,1.372500,-1.195000,0.612500,-1.195000,0.612500,-1.117500,-0.862500,-1.117500,-0.862500,1.117500,0.612500,1.117500,0.612500,1.195000,1.372500,1.195000,
1.372500,0.787500,1.372500,0.787500,$1*%
%AMFreePoly1*
4,1,9,3.862500,-0.866500,0.737500,-0.866500,0.737500,-0.450000,-0.737500,-0.450000,-0.737500,0.450000,0.737500,0.450000,0.737500,0.866500,3.862500,0.866500,3.862500,-0.866500,3.862500,-0.866500,$1*%
G04 Aperture macros list end*
%ADD10RoundRect,0.147500X-0.172500X0.147500X-0.172500X-0.147500X0.172500X-0.147500X0.172500X0.147500X0*%
%ADD11RoundRect,0.135000X0.135000X0.185000X-0.135000X0.185000X-0.135000X-0.185000X0.135000X-0.185000X0*%
%ADD12RoundRect,0.135000X-0.135000X-0.185000X0.135000X-0.185000X0.135000X0.185000X-0.135000X0.185000X0*%
%ADD13RoundRect,0.150000X0.200000X-0.150000X0.200000X0.150000X-0.200000X0.150000X-0.200000X-0.150000X0*%
%ADD14RoundRect,0.135000X-0.185000X0.135000X-0.185000X-0.135000X0.185000X-0.135000X0.185000X0.135000X0*%
%ADD15RoundRect,0.250000X-0.325000X-0.650000X0.325000X-0.650000X0.325000X0.650000X-0.325000X0.650000X0*%
%ADD16RoundRect,0.250000X-0.315000X-0.315000X0.315000X-0.315000X0.315000X0.315000X-0.315000X0.315000X0*%
%ADD17RoundRect,0.050000X-0.387500X-0.050000X0.387500X-0.050000X0.387500X0.050000X-0.387500X0.050000X0*%
%ADD18RoundRect,0.050000X-0.050000X-0.387500X0.050000X-0.387500X0.050000X0.387500X-0.050000X0.387500X0*%
%ADD19R,0.990000X0.405000*%
%ADD20FreePoly0,180.000000*%
%ADD21R,0.405000X0.990000*%
%ADD22FreePoly0,90.000000*%
%ADD23RoundRect,0.150000X-0.150000X0.512500X-0.150000X-0.512500X0.150000X-0.512500X0.150000X0.512500X0*%
%ADD24RoundRect,0.140000X0.140000X0.170000X-0.140000X0.170000X-0.140000X-0.170000X0.140000X-0.170000X0*%
%ADD25RoundRect,0.135000X0.185000X-0.135000X0.185000X0.135000X-0.185000X0.135000X-0.185000X-0.135000X0*%
%ADD26R,1.600000X0.300000*%
%ADD27RoundRect,0.140000X-0.170000X0.140000X-0.170000X-0.140000X0.170000X-0.140000X0.170000X0.140000X0*%
%ADD28RoundRect,0.250000X0.350000X0.450000X-0.350000X0.450000X-0.350000X-0.450000X0.350000X-0.450000X0*%
%ADD29RoundRect,0.150000X0.150000X-0.587500X0.150000X0.587500X-0.150000X0.587500X-0.150000X-0.587500X0*%
%ADD30R,1.500000X0.900000*%
%ADD31R,0.900000X1.500000*%
%ADD32R,1.000000X1.000000*%
%ADD33RoundRect,0.150000X-0.150000X-0.200000X0.150000X-0.200000X0.150000X0.200000X-0.150000X0.200000X0*%
%ADD34RoundRect,0.250000X1.500000X0.550000X-1.500000X0.550000X-1.500000X-0.550000X1.500000X-0.550000X0*%
%ADD35RoundRect,0.150000X0.150000X0.425000X-0.150000X0.425000X-0.150000X-0.425000X0.150000X-0.425000X0*%
%ADD36RoundRect,0.075000X0.075000X0.500000X-0.075000X0.500000X-0.075000X-0.500000X0.075000X-0.500000X0*%
%ADD37O,1.000000X2.100000*%
%ADD38O,1.000000X1.800000*%
%ADD39RoundRect,0.250000X0.550000X-1.500000X0.550000X1.500000X-0.550000X1.500000X-0.550000X-1.500000X0*%
%ADD40R,2.750000X1.000000*%
%ADD41RoundRect,0.140000X0.170000X-0.140000X0.170000X0.140000X-0.170000X0.140000X-0.170000X-0.140000X0*%
%ADD42RoundRect,0.150000X-0.587500X-0.150000X0.587500X-0.150000X0.587500X0.150000X-0.587500X0.150000X0*%
%ADD43RoundRect,0.218750X-0.218750X-0.381250X0.218750X-0.381250X0.218750X0.381250X-0.218750X0.381250X0*%
%ADD44RoundRect,0.375000X-0.625000X-0.375000X0.625000X-0.375000X0.625000X0.375000X-0.625000X0.375000X0*%
%ADD45RoundRect,0.500000X-0.500000X-1.400000X0.500000X-1.400000X0.500000X1.400000X-0.500000X1.400000X0*%
%ADD46RoundRect,0.100000X0.637500X0.100000X-0.637500X0.100000X-0.637500X-0.100000X0.637500X-0.100000X0*%
%ADD47RoundRect,0.255000X2.245000X0.255000X-2.245000X0.255000X-2.245000X-0.255000X2.245000X-0.255000X0*%
%ADD48RoundRect,0.150000X0.150000X-0.512500X0.150000X0.512500X-0.150000X0.512500X-0.150000X-0.512500X0*%
%ADD49RoundRect,0.150000X-0.150000X-0.625000X0.150000X-0.625000X0.150000X0.625000X-0.150000X0.625000X0*%
%ADD50RoundRect,0.250000X-0.350000X-0.650000X0.350000X-0.650000X0.350000X0.650000X-0.350000X0.650000X0*%
%ADD51FreePoly0,0.000000*%
%ADD52RoundRect,0.250000X-0.650000X0.325000X-0.650000X-0.325000X0.650000X-0.325000X0.650000X0.325000X0*%
%ADD53RoundRect,0.150000X0.512500X0.150000X-0.512500X0.150000X-0.512500X-0.150000X0.512500X-0.150000X0*%
%ADD54RoundRect,0.225000X-0.425000X-0.225000X0.425000X-0.225000X0.425000X0.225000X-0.425000X0.225000X0*%
%ADD55FreePoly1,0.000000*%
%ADD56RoundRect,0.250000X-0.400000X0.315000X-0.400000X-0.315000X0.400000X-0.315000X0.400000X0.315000X0*%
%ADD57RoundRect,0.062500X-0.062500X0.375000X-0.062500X-0.375000X0.062500X-0.375000X0.062500X0.375000X0*%
%ADD58RoundRect,0.100000X-0.100000X0.225000X-0.100000X-0.225000X0.100000X-0.225000X0.100000X0.225000X0*%
%ADD59RoundRect,0.150000X0.150000X-0.825000X0.150000X0.825000X-0.150000X0.825000X-0.150000X-0.825000X0*%
%ADD60RoundRect,0.150000X0.150000X0.200000X-0.150000X0.200000X-0.150000X-0.200000X0.150000X-0.200000X0*%
%ADD61RoundRect,0.250000X0.650000X-0.325000X0.650000X0.325000X-0.650000X0.325000X-0.650000X-0.325000X0*%
%ADD62RoundRect,0.140000X-0.140000X-0.170000X0.140000X-0.170000X0.140000X0.170000X-0.140000X0.170000X0*%
G04 APERTURE END LIST*
D10*
X166900000Y-94015000D03*
X166900000Y-94985000D03*
D11*
X129010000Y-98700000D03*
X127990000Y-98700000D03*
D12*
X149590000Y-95100000D03*
X150610000Y-95100000D03*
D13*
X157200000Y-111000000D03*
X157200000Y-112400000D03*
D12*
X131390000Y-76400000D03*
X132410000Y-76400000D03*
D14*
X126000000Y-118390000D03*
X126000000Y-119410000D03*
X124100000Y-76290000D03*
X124100000Y-77310000D03*
D15*
X150825000Y-103700000D03*
X153775000Y-103700000D03*
D16*
X152750000Y-97550000D03*
X152750000Y-98850000D03*
X154050000Y-97550000D03*
X154050000Y-98850000D03*
D17*
X151462500Y-97000000D03*
X151462500Y-97400000D03*
X151462500Y-97800000D03*
X151462500Y-98200000D03*
X151462500Y-98600000D03*
X151462500Y-99000000D03*
X151462500Y-99400000D03*
D18*
X152200000Y-100137500D03*
X152600000Y-100137500D03*
X153000000Y-100137500D03*
X153400000Y-100137500D03*
X153800000Y-100137500D03*
X154200000Y-100137500D03*
X154600000Y-100137500D03*
D17*
X155337500Y-99400000D03*
X155337500Y-99000000D03*
X155337500Y-98600000D03*
X155337500Y-98200000D03*
X155337500Y-97800000D03*
X155337500Y-97400000D03*
X155337500Y-97000000D03*
D18*
X154600000Y-96262500D03*
X154200000Y-96262500D03*
X153800000Y-96262500D03*
X153400000Y-96262500D03*
X153000000Y-96262500D03*
X152600000Y-96262500D03*
X152200000Y-96262500D03*
D19*
X156335000Y-115790000D03*
X156335000Y-115130000D03*
X156335000Y-114470000D03*
X156335000Y-113810000D03*
D20*
X154342500Y-114800000D03*
D14*
X131200000Y-121890000D03*
X131200000Y-122910000D03*
D12*
X151490000Y-95100000D03*
X152510000Y-95100000D03*
D21*
X153710000Y-111235000D03*
X154370000Y-111235000D03*
X155030000Y-111235000D03*
X155690000Y-111235000D03*
D22*
X154700000Y-109242500D03*
D12*
X136890000Y-103000000D03*
X137910000Y-103000000D03*
D23*
X163950000Y-117062500D03*
X163000000Y-117062500D03*
X162050000Y-117062500D03*
X162050000Y-119337500D03*
X163950000Y-119337500D03*
D12*
X165590000Y-115600000D03*
X166610000Y-115600000D03*
D24*
X160780000Y-115000000D03*
X159820000Y-115000000D03*
D11*
X166610000Y-114600000D03*
X165590000Y-114600000D03*
D25*
X118400000Y-111210000D03*
X118400000Y-110190000D03*
D13*
X150600000Y-105600000D03*
X150600000Y-107000000D03*
D26*
X123400000Y-112775000D03*
X123400000Y-112125000D03*
X123400000Y-111475000D03*
X123400000Y-110825000D03*
X120000000Y-110825000D03*
X120000000Y-111475000D03*
X120000000Y-112125000D03*
X120000000Y-112775000D03*
D11*
X132410000Y-77400000D03*
X131390000Y-77400000D03*
D27*
X160800000Y-107120000D03*
X160800000Y-108080000D03*
D25*
X165900000Y-100010000D03*
X165900000Y-98990000D03*
D28*
X163500000Y-122700000D03*
X161500000Y-122700000D03*
D14*
X156400000Y-91390000D03*
X156400000Y-92410000D03*
D11*
X137710000Y-98200000D03*
X136690000Y-98200000D03*
D25*
X147600000Y-89610000D03*
X147600000Y-88590000D03*
D12*
X136990000Y-108200000D03*
X138010000Y-108200000D03*
D14*
X158400000Y-111490000D03*
X158400000Y-112510000D03*
D11*
X164710000Y-115600000D03*
X163690000Y-115600000D03*
D29*
X135450000Y-101537500D03*
X137350000Y-101537500D03*
X136400000Y-99662500D03*
D30*
X144350000Y-69040000D03*
X144350000Y-70310000D03*
X144350000Y-71580000D03*
X144350000Y-72850000D03*
X144350000Y-74120000D03*
X144350000Y-75390000D03*
X144350000Y-76660000D03*
X144350000Y-77930000D03*
X144350000Y-79200000D03*
X144350000Y-80470000D03*
X144350000Y-81740000D03*
X144350000Y-83010000D03*
X144350000Y-84280000D03*
X144350000Y-85550000D03*
D31*
X146115000Y-86800000D03*
X147385000Y-86800000D03*
X148655000Y-86800000D03*
X149925000Y-86800000D03*
X151195000Y-86800000D03*
X152465000Y-86800000D03*
X153735000Y-86800000D03*
X155005000Y-86800000D03*
X156275000Y-86800000D03*
X157545000Y-86800000D03*
X158815000Y-86800000D03*
X160085000Y-86800000D03*
D30*
X161850000Y-85550000D03*
X161850000Y-84280000D03*
X161850000Y-83010000D03*
X161850000Y-81740000D03*
X161850000Y-80470000D03*
X161850000Y-79200000D03*
X161850000Y-77930000D03*
X161850000Y-76660000D03*
X161850000Y-75390000D03*
X161850000Y-74120000D03*
X161850000Y-72850000D03*
X161850000Y-71580000D03*
X161850000Y-70310000D03*
X161850000Y-69040000D03*
D32*
X150240000Y-72890000D03*
X150240000Y-74390000D03*
X150240000Y-74390000D03*
X150240000Y-75890000D03*
X151740000Y-72890000D03*
X151740000Y-72890000D03*
X151740000Y-74390000D03*
X151740000Y-75890000D03*
X153240000Y-72890000D03*
X153240000Y-74390000D03*
X153240000Y-75890000D03*
D14*
X149400000Y-106090000D03*
X149400000Y-107110000D03*
D13*
X160400000Y-124400000D03*
X160400000Y-125800000D03*
D33*
X159100000Y-124600000D03*
X157700000Y-124600000D03*
D27*
X118400000Y-112120000D03*
X118400000Y-113080000D03*
D34*
X131900000Y-109900000D03*
X126500000Y-109900000D03*
D35*
X131400000Y-74780000D03*
X130600000Y-74780000D03*
D36*
X129450000Y-74780000D03*
X128450000Y-74780000D03*
X127950000Y-74780000D03*
X126950000Y-74780000D03*
D35*
X125800000Y-74780000D03*
X125000000Y-74780000D03*
X125000000Y-74780000D03*
X125800000Y-74780000D03*
D36*
X126450000Y-74780000D03*
X127450000Y-74780000D03*
X128950000Y-74780000D03*
X129950000Y-74780000D03*
D35*
X130600000Y-74780000D03*
X131400000Y-74780000D03*
D37*
X132520000Y-74205000D03*
D38*
X132520000Y-70025000D03*
D37*
X123880000Y-74205000D03*
D38*
X123880000Y-70025000D03*
D39*
X142700000Y-105800000D03*
X142700000Y-100400000D03*
D14*
X142800000Y-70590000D03*
X142800000Y-71610000D03*
D12*
X126090000Y-98700000D03*
X127110000Y-98700000D03*
D40*
X118620000Y-87100000D03*
X124380000Y-87100000D03*
X118620000Y-91100000D03*
X124380000Y-91100000D03*
D11*
X126910000Y-93500000D03*
X125890000Y-93500000D03*
D41*
X150200000Y-96980000D03*
X150200000Y-96020000D03*
X147600000Y-93380000D03*
X147600000Y-92420000D03*
D11*
X155010000Y-95100000D03*
X153990000Y-95100000D03*
D25*
X145300000Y-93310000D03*
X145300000Y-92290000D03*
D12*
X158790000Y-89400000D03*
X159810000Y-89400000D03*
D15*
X156125000Y-102000000D03*
X159075000Y-102000000D03*
D27*
X157100000Y-106120000D03*
X157100000Y-107080000D03*
D14*
X129500000Y-76290000D03*
X129500000Y-77310000D03*
D23*
X128350000Y-94962500D03*
X127400000Y-94962500D03*
X126450000Y-94962500D03*
X126450000Y-97237500D03*
X127400000Y-97237500D03*
X128350000Y-97237500D03*
D14*
X151800000Y-106090000D03*
X151800000Y-107110000D03*
X156100000Y-106090000D03*
X156100000Y-107110000D03*
D40*
X118620000Y-80600000D03*
X124380000Y-80600000D03*
X118620000Y-84600000D03*
X124380000Y-84600000D03*
D42*
X133462500Y-123850000D03*
X133462500Y-125750000D03*
X135337500Y-124800000D03*
D24*
X162580000Y-125600000D03*
X161620000Y-125600000D03*
D15*
X132525000Y-121900000D03*
X135475000Y-121900000D03*
D13*
X159600000Y-111000000D03*
X159600000Y-112400000D03*
D21*
X149810000Y-111235000D03*
X150470000Y-111235000D03*
X151130000Y-111235000D03*
X151790000Y-111235000D03*
D22*
X150800000Y-109242500D03*
D43*
X120537500Y-104900000D03*
X122662500Y-104900000D03*
D44*
X128750000Y-114800000D03*
X128750000Y-117100000D03*
X128750000Y-119400000D03*
D45*
X135050000Y-117100000D03*
D25*
X165900000Y-95010000D03*
X165900000Y-93990000D03*
D14*
X125000000Y-118390000D03*
X125000000Y-119410000D03*
D41*
X166200000Y-117680000D03*
X166200000Y-116720000D03*
D11*
X130910000Y-98700000D03*
X129890000Y-98700000D03*
D14*
X157400000Y-91390000D03*
X157400000Y-92410000D03*
D46*
X154862500Y-93250000D03*
X154862500Y-92600000D03*
X154862500Y-91950000D03*
X154862500Y-91300000D03*
X154862500Y-90650000D03*
X154862500Y-90000000D03*
X154862500Y-89350000D03*
X149137500Y-89350000D03*
X149137500Y-90000000D03*
X149137500Y-90650000D03*
X149137500Y-91300000D03*
X149137500Y-91950000D03*
X149137500Y-92600000D03*
X149137500Y-93250000D03*
D25*
X165900000Y-90010000D03*
X165900000Y-88990000D03*
D41*
X127000000Y-120380000D03*
X127000000Y-119420000D03*
D24*
X157280000Y-93300000D03*
X156320000Y-93300000D03*
D47*
X187300000Y-121630000D03*
X179700000Y-121630000D03*
X187300000Y-119090000D03*
X179700000Y-119090000D03*
X187300000Y-116550000D03*
X179700000Y-116550000D03*
X187300000Y-114010000D03*
X179700000Y-114010000D03*
X187300000Y-111470000D03*
X179700000Y-111470000D03*
X187300000Y-108930000D03*
X179700000Y-108930000D03*
X187300000Y-106390000D03*
X179700000Y-106390000D03*
X187300000Y-103850000D03*
X179700000Y-103850000D03*
X187300000Y-101310000D03*
X179700000Y-101310000D03*
X187300000Y-98770000D03*
X179700000Y-98770000D03*
X187300000Y-96230000D03*
X179700000Y-96230000D03*
X187300000Y-93690000D03*
X179700000Y-93690000D03*
X187300000Y-91150000D03*
X179700000Y-91150000D03*
X187300000Y-88610000D03*
X179700000Y-88610000D03*
X187300000Y-86070000D03*
X179700000Y-86070000D03*
X187300000Y-83530000D03*
X179700000Y-83530000D03*
X187300000Y-80990000D03*
X179700000Y-80990000D03*
X187300000Y-78450000D03*
X179700000Y-78450000D03*
X187300000Y-75910000D03*
X179700000Y-75910000D03*
X187300000Y-73370000D03*
X179700000Y-73370000D03*
D48*
X135450000Y-106737500D03*
X137350000Y-106737500D03*
X136400000Y-104462500D03*
D41*
X124000000Y-120380000D03*
X124000000Y-119420000D03*
D25*
X156400000Y-90510000D03*
X156400000Y-89490000D03*
D11*
X128910000Y-93500000D03*
X127890000Y-93500000D03*
D49*
X125300000Y-122100000D03*
X126300000Y-122100000D03*
X127300000Y-122100000D03*
X128300000Y-122100000D03*
D50*
X124000000Y-125975000D03*
X129600000Y-125975000D03*
D19*
X148365000Y-113810000D03*
X148365000Y-114470000D03*
X148365000Y-115130000D03*
X148365000Y-115790000D03*
D51*
X150357500Y-114800000D03*
D41*
X165200000Y-119680000D03*
X165200000Y-118720000D03*
D52*
X148300000Y-101825000D03*
X148300000Y-104775000D03*
D27*
X125100000Y-111520000D03*
X125100000Y-112480000D03*
D41*
X141800000Y-71580000D03*
X141800000Y-70620000D03*
D15*
X143325000Y-97200000D03*
X146275000Y-97200000D03*
D52*
X124500000Y-97925000D03*
X124500000Y-100875000D03*
D19*
X142665000Y-113810000D03*
X142665000Y-114470000D03*
X142665000Y-115130000D03*
X142665000Y-115790000D03*
D51*
X144657500Y-114800000D03*
D25*
X164900000Y-123210000D03*
X164900000Y-122190000D03*
D14*
X146500000Y-111490000D03*
X146500000Y-112510000D03*
D13*
X158100000Y-97000000D03*
X158100000Y-98400000D03*
D14*
X153700000Y-106090000D03*
X153700000Y-107110000D03*
D24*
X149880000Y-112500000D03*
X148920000Y-112500000D03*
D53*
X122437500Y-108450000D03*
X122437500Y-107500000D03*
X122437500Y-106550000D03*
X120162500Y-106550000D03*
X120162500Y-107500000D03*
X120162500Y-108450000D03*
D25*
X145300000Y-95210000D03*
X145300000Y-94190000D03*
D54*
X119050000Y-97700000D03*
D55*
X119137500Y-99200000D03*
D54*
X119050000Y-100700000D03*
D12*
X159790000Y-116000000D03*
X160810000Y-116000000D03*
D25*
X161800000Y-115710000D03*
X161800000Y-114690000D03*
D56*
X140350000Y-113250000D03*
X138850000Y-113250000D03*
X140350000Y-114550000D03*
X138850000Y-114550000D03*
D57*
X140850000Y-111962500D03*
X140350000Y-111962500D03*
X139850000Y-111962500D03*
X139350000Y-111962500D03*
X138850000Y-111962500D03*
X138350000Y-111962500D03*
X138350000Y-115837500D03*
X138850000Y-115837500D03*
X139350000Y-115837500D03*
X139850000Y-115837500D03*
X140350000Y-115837500D03*
X140850000Y-115837500D03*
D14*
X134200000Y-105590000D03*
X134200000Y-106610000D03*
D13*
X154900000Y-105600000D03*
X154900000Y-107000000D03*
D53*
X127837500Y-78550000D03*
X127837500Y-77600000D03*
X127837500Y-76650000D03*
X125562500Y-76650000D03*
X125562500Y-77600000D03*
X125562500Y-78550000D03*
D52*
X144800000Y-109025000D03*
X144800000Y-111975000D03*
D12*
X134890000Y-103000000D03*
X135910000Y-103000000D03*
D58*
X162350000Y-88550000D03*
X161700000Y-88550000D03*
X161050000Y-88550000D03*
X161050000Y-90450000D03*
X161700000Y-90450000D03*
X162350000Y-90450000D03*
D25*
X165200000Y-117710000D03*
X165200000Y-116690000D03*
X167200000Y-108210000D03*
X167200000Y-107190000D03*
D12*
X158790000Y-88400000D03*
X159810000Y-88400000D03*
D14*
X160800000Y-111490000D03*
X160800000Y-112510000D03*
D10*
X166900000Y-89015000D03*
X166900000Y-89985000D03*
D29*
X157950000Y-122837500D03*
X159850000Y-122837500D03*
X158900000Y-120962500D03*
D53*
X160337500Y-119150000D03*
X160337500Y-118200000D03*
X160337500Y-117250000D03*
X158062500Y-117250000D03*
X158062500Y-118200000D03*
X158062500Y-119150000D03*
D13*
X131700000Y-124500000D03*
X131700000Y-125900000D03*
D59*
X162095000Y-112475000D03*
X163365000Y-112475000D03*
X164635000Y-112475000D03*
X165905000Y-112475000D03*
X165905000Y-107525000D03*
X164635000Y-107525000D03*
X163365000Y-107525000D03*
X162095000Y-107525000D03*
D41*
X136800000Y-115580000D03*
X136800000Y-114620000D03*
D60*
X161700000Y-124400000D03*
X163100000Y-124400000D03*
D13*
X147700000Y-111000000D03*
X147700000Y-112400000D03*
D41*
X142800000Y-69680000D03*
X142800000Y-68720000D03*
D10*
X166900000Y-99015000D03*
X166900000Y-99985000D03*
D11*
X162110000Y-121200000D03*
X161090000Y-121200000D03*
D12*
X163690000Y-114600000D03*
X164710000Y-114600000D03*
D15*
X120725000Y-102900000D03*
X123675000Y-102900000D03*
D61*
X148300000Y-100175000D03*
X148300000Y-97225000D03*
D12*
X129890000Y-97700000D03*
X130910000Y-97700000D03*
D41*
X162800000Y-115680000D03*
X162800000Y-114720000D03*
D34*
X131900000Y-102800000D03*
X126500000Y-102800000D03*
D62*
X131820000Y-98700000D03*
X132780000Y-98700000D03*
D27*
X148400000Y-106120000D03*
X148400000Y-107080000D03*
D61*
X124500000Y-107975000D03*
X124500000Y-105025000D03*
D14*
X159300000Y-97290000D03*
X159300000Y-98310000D03*
D27*
X159300000Y-99420000D03*
X159300000Y-100380000D03*
D60*
X163100000Y-121000000D03*
X164500000Y-121000000D03*
D14*
X147600000Y-90490000D03*
X147600000Y-91510000D03*
D62*
X155020000Y-112500000D03*
X155980000Y-112500000D03*
D27*
X118700000Y-107220000D03*
X118700000Y-108180000D03*
M02*
