G04 #@! TF.GenerationSoftware,KiCad,Pcbnew,9.0.5*
G04 #@! TF.CreationDate,2025-12-14T20:02:12+01:00*
G04 #@! TF.ProjectId,s3main,73336d61-696e-42e6-9b69-6361645f7063,0.1.1*
G04 #@! TF.SameCoordinates,Original*
G04 #@! TF.FileFunction,Copper,L2,Bot*
G04 #@! TF.FilePolarity,Positive*
%FSLAX46Y46*%
G04 Gerber Fmt 4.6, Leading zero omitted, Abs format (unit mm)*
G04 Created by KiCad (PCBNEW 9.0.5) date 2025-12-14 20:02:12*
%MOMM*%
%LPD*%
G01*
G04 APERTURE LIST*
G04 Aperture macros list*
%AMRoundRect*
0 Rectangle with rounded corners*
0 $1 Rounding radius*
0 $2 $3 $4 $5 $6 $7 $8 $9 X,Y pos of 4 corners*
0 Add a 4 corners polygon primitive as box body*
4,1,4,$2,$3,$4,$5,$6,$7,$8,$9,$2,$3,0*
0 Add four circle primitives for the rounded corners*
1,1,$1+$1,$2,$3*
1,1,$1+$1,$4,$5*
1,1,$1+$1,$6,$7*
1,1,$1+$1,$8,$9*
0 Add four rect primitives between the rounded corners*
20,1,$1+$1,$2,$3,$4,$5,0*
20,1,$1+$1,$4,$5,$6,$7,0*
20,1,$1+$1,$6,$7,$8,$9,0*
20,1,$1+$1,$8,$9,$2,$3,0*%
G04 Aperture macros list end*
G04 #@! TA.AperFunction,HeatsinkPad*
%ADD10C,0.500000*%
G04 #@! TD*
G04 #@! TA.AperFunction,HeatsinkPad*
%ADD11R,2.600000X2.600000*%
G04 #@! TD*
G04 #@! TA.AperFunction,ComponentPad*
%ADD12C,0.800000*%
G04 #@! TD*
G04 #@! TA.AperFunction,ComponentPad*
%ADD13C,6.400000*%
G04 #@! TD*
G04 #@! TA.AperFunction,HeatsinkPad*
%ADD14O,1.000000X2.100000*%
G04 #@! TD*
G04 #@! TA.AperFunction,HeatsinkPad*
%ADD15O,1.000000X1.800000*%
G04 #@! TD*
G04 #@! TA.AperFunction,ComponentPad*
%ADD16RoundRect,0.250000X-0.650000X-1.550000X0.650000X-1.550000X0.650000X1.550000X-0.650000X1.550000X0*%
G04 #@! TD*
G04 #@! TA.AperFunction,ComponentPad*
%ADD17O,1.800000X3.600000*%
G04 #@! TD*
G04 #@! TA.AperFunction,HeatsinkPad*
%ADD18R,3.000000X2.600000*%
G04 #@! TD*
G04 #@! TA.AperFunction,SMDPad,CuDef*
%ADD19RoundRect,0.250000X0.450000X-0.350000X0.450000X0.350000X-0.450000X0.350000X-0.450000X-0.350000X0*%
G04 #@! TD*
G04 #@! TA.AperFunction,ViaPad*
%ADD20C,0.600000*%
G04 #@! TD*
G04 #@! TA.AperFunction,Conductor*
%ADD21C,0.250000*%
G04 #@! TD*
G04 #@! TA.AperFunction,Conductor*
%ADD22C,0.400000*%
G04 #@! TD*
G04 #@! TA.AperFunction,Conductor*
%ADD23C,0.800000*%
G04 #@! TD*
G04 #@! TA.AperFunction,Conductor*
%ADD24C,0.200000*%
G04 #@! TD*
G04 APERTURE END LIST*
D10*
X152350000Y-97150000D03*
X152350000Y-98200000D03*
X152350000Y-99250000D03*
X153400000Y-97150000D03*
X153400000Y-98200000D03*
D11*
X153400000Y-98200000D03*
D10*
X153400000Y-99250000D03*
X154450000Y-97150000D03*
X154450000Y-98200000D03*
X154450000Y-99250000D03*
D12*
X116800000Y-72500000D03*
X117502944Y-70802944D03*
X117502944Y-74197056D03*
X119200000Y-70100000D03*
D13*
X119200000Y-72500000D03*
D12*
X119200000Y-74900000D03*
X120897056Y-70802944D03*
X120897056Y-74197056D03*
X121600000Y-72500000D03*
D14*
X132520000Y-74205000D03*
D15*
X132520000Y-70025000D03*
D14*
X123880000Y-74205000D03*
D15*
X123880000Y-70025000D03*
D12*
X166800000Y-72500000D03*
X167502944Y-70802944D03*
X167502944Y-74197056D03*
X169200000Y-70100000D03*
D13*
X169200000Y-72500000D03*
D12*
X169200000Y-74900000D03*
X170897056Y-70802944D03*
X170897056Y-74197056D03*
X171600000Y-72500000D03*
X166800000Y-122500000D03*
X167502944Y-120802944D03*
X167502944Y-124197056D03*
X169200000Y-120100000D03*
D13*
X169200000Y-122500000D03*
D12*
X169200000Y-124900000D03*
X170897056Y-120802944D03*
X170897056Y-124197056D03*
X171600000Y-122500000D03*
D16*
X150700000Y-118900000D03*
D17*
X154200000Y-118900000D03*
D16*
X139500000Y-118900000D03*
D17*
X144580000Y-118900000D03*
D10*
X140850000Y-112850000D03*
X139600000Y-112850000D03*
X138350000Y-112850000D03*
X140850000Y-113900000D03*
X139600000Y-113900000D03*
D18*
X139600000Y-113900000D03*
D10*
X138350000Y-113900000D03*
X140850000Y-114950000D03*
X139600000Y-114950000D03*
X138350000Y-114950000D03*
D12*
X116800000Y-122500000D03*
X117502944Y-120802944D03*
X117502944Y-124197056D03*
X119200000Y-120100000D03*
D13*
X119200000Y-122500000D03*
D12*
X119200000Y-124900000D03*
X120897056Y-120802944D03*
X120897056Y-124197056D03*
X121600000Y-122500000D03*
D19*
X154200000Y-116100000D03*
X154200000Y-114100000D03*
X150700000Y-116000000D03*
X150700000Y-114000000D03*
D20*
X182800000Y-114000000D03*
X144200000Y-93200000D03*
X152193870Y-93306130D03*
X155700000Y-95700000D03*
X133500000Y-115800000D03*
X147000000Y-93200000D03*
X182800000Y-73300000D03*
X182800000Y-105100000D03*
X117600000Y-99200000D03*
X142000000Y-68300000D03*
X141400000Y-115800000D03*
X122000000Y-83190000D03*
X159400000Y-80990000D03*
X144000000Y-102990000D03*
X177000000Y-124990000D03*
X155000000Y-78790000D03*
X185800000Y-122790000D03*
X130800000Y-83190000D03*
X161600000Y-102990000D03*
X119800000Y-96390000D03*
X126400000Y-85390000D03*
X158100000Y-114800000D03*
X179200000Y-74390000D03*
X152800000Y-83190000D03*
X146200000Y-74390000D03*
X166000000Y-124990000D03*
X146600000Y-114800000D03*
X122000000Y-78790000D03*
X172600000Y-76590000D03*
X189400000Y-100300000D03*
X170400000Y-76590000D03*
X148400000Y-118390000D03*
X135200000Y-102990000D03*
X150600000Y-78790000D03*
X127600000Y-120500000D03*
X163000000Y-118100000D03*
X131000000Y-97000000D03*
X137400000Y-69990000D03*
X181400000Y-72190000D03*
X159400000Y-78790000D03*
X135200000Y-69990000D03*
X137400000Y-74390000D03*
X146200000Y-105190000D03*
X126400000Y-105190000D03*
X188000000Y-69990000D03*
X141800000Y-118390000D03*
X133000000Y-94190000D03*
X137400000Y-94190000D03*
X149700000Y-105300000D03*
X157099503Y-94109287D03*
X124300000Y-90300000D03*
X159400000Y-69990000D03*
X150600000Y-122790000D03*
X177000000Y-72190000D03*
X124200000Y-78790000D03*
X130800000Y-118390000D03*
X185800000Y-74390000D03*
X188000000Y-105190000D03*
X188000000Y-122790000D03*
X128900000Y-77800000D03*
X144000000Y-89790000D03*
X156500000Y-120600000D03*
X146200000Y-102990000D03*
X135200000Y-94190000D03*
X146200000Y-100790000D03*
X122000000Y-94190000D03*
X119800000Y-78790000D03*
X148400000Y-74390000D03*
X187400000Y-95200000D03*
X177000000Y-87590000D03*
X139600000Y-91990000D03*
X179200000Y-87590000D03*
X159400000Y-96390000D03*
X157200000Y-72190000D03*
X188000000Y-117700000D03*
X139600000Y-87590000D03*
X157200000Y-115800000D03*
X137400000Y-122790000D03*
X119800000Y-89790000D03*
X189400000Y-110100000D03*
X185400000Y-110100000D03*
X116900000Y-110100000D03*
X185800000Y-124990000D03*
X122000000Y-76590000D03*
X174800000Y-76590000D03*
X183600000Y-80990000D03*
X135200000Y-91990000D03*
X139600000Y-94190000D03*
X147400000Y-69200000D03*
X157200000Y-69990000D03*
X148400000Y-78790000D03*
X120200000Y-106000000D03*
X158100000Y-115500000D03*
X146200000Y-124990000D03*
X148400000Y-83190000D03*
X185800000Y-120590000D03*
X148400000Y-122790000D03*
X141800000Y-124990000D03*
X172600000Y-111790000D03*
X148400000Y-120590000D03*
X185800000Y-72190000D03*
X146200000Y-80990000D03*
X130600000Y-76700000D03*
X135200000Y-96390000D03*
X168200000Y-94190000D03*
X137400000Y-124990000D03*
X147500000Y-114500000D03*
X139600000Y-100790000D03*
X139600000Y-89790000D03*
X174800000Y-124990000D03*
X166000000Y-69990000D03*
X188000000Y-72190000D03*
X166900000Y-116200000D03*
X187400000Y-90100000D03*
X150800000Y-92000000D03*
X181400000Y-87590000D03*
X189400000Y-90100000D03*
X150600000Y-85390000D03*
X159400000Y-83190000D03*
X150600000Y-80990000D03*
X146600000Y-115500000D03*
X188000000Y-124990000D03*
X157200000Y-83190000D03*
X159400000Y-72190000D03*
X117600000Y-118390000D03*
X130800000Y-116190000D03*
X130800000Y-120590000D03*
X128600000Y-85390000D03*
X128600000Y-83190000D03*
X187400000Y-110100000D03*
X146200000Y-122790000D03*
X157200000Y-74390000D03*
X185800000Y-117700000D03*
X185400000Y-95200000D03*
X174800000Y-85390000D03*
X156400000Y-105300000D03*
X181400000Y-120590000D03*
X158100000Y-114100000D03*
X141800000Y-120590000D03*
X170400000Y-94190000D03*
X168200000Y-91990000D03*
X185800000Y-69990000D03*
X188000000Y-120590000D03*
X144000000Y-124990000D03*
X174800000Y-74390000D03*
X183600000Y-72190000D03*
X133000000Y-96390000D03*
X118900000Y-113500000D03*
X179200000Y-124990000D03*
X181400000Y-89790000D03*
X124200000Y-94190000D03*
X144000000Y-122790000D03*
X146200000Y-83190000D03*
X183600000Y-69990000D03*
X137400000Y-89790000D03*
X172600000Y-100790000D03*
X185400000Y-82100000D03*
X179200000Y-69990000D03*
X163800000Y-89790000D03*
X170400000Y-109590000D03*
X157200000Y-114400000D03*
X187400000Y-82100000D03*
X133000000Y-100790000D03*
X122000000Y-96390000D03*
X179200000Y-105190000D03*
X157200000Y-80990000D03*
X183600000Y-78790000D03*
X148400000Y-72190000D03*
X181400000Y-105190000D03*
X144000000Y-91990000D03*
X152800000Y-124990000D03*
X159400000Y-74390000D03*
X135200000Y-74390000D03*
X122000000Y-111790000D03*
X137400000Y-96390000D03*
X159800000Y-114300000D03*
X155000000Y-72190000D03*
X172600000Y-74390000D03*
X146200000Y-72190000D03*
X135200000Y-98590000D03*
X139600000Y-69990000D03*
X185400000Y-90100000D03*
X166000000Y-91990000D03*
X135200000Y-111800000D03*
X156500000Y-118400000D03*
X137400000Y-102990000D03*
X119800000Y-83190000D03*
X155000000Y-69990000D03*
X122000000Y-113990000D03*
X126400000Y-87590000D03*
X148400000Y-124990000D03*
X122000000Y-100790000D03*
X126400000Y-83190000D03*
X155000000Y-74390000D03*
X157200000Y-78790000D03*
X165900000Y-98200000D03*
X150600000Y-124990000D03*
X155000000Y-83190000D03*
X144000000Y-87590000D03*
X168200000Y-96390000D03*
X153800000Y-89300000D03*
X147500000Y-113800000D03*
X130800000Y-69990000D03*
X130800000Y-105190000D03*
X137400000Y-91990000D03*
X188000000Y-74390000D03*
X187400000Y-100300000D03*
X157200000Y-115100000D03*
X139600000Y-102990000D03*
X170400000Y-96390000D03*
X179200000Y-89790000D03*
X145300000Y-91700000D03*
X181400000Y-74390000D03*
X170400000Y-98590000D03*
X130800000Y-111790000D03*
X152800000Y-78790000D03*
X163800000Y-69990000D03*
X174800000Y-69990000D03*
X133000000Y-113990000D03*
X174800000Y-113990000D03*
X147500000Y-115200000D03*
X189400000Y-82100000D03*
X146600000Y-114100000D03*
X163800000Y-105190000D03*
X188000000Y-87590000D03*
X117600000Y-76590000D03*
X183600000Y-85390000D03*
X185800000Y-105190000D03*
X177000000Y-89790000D03*
X161600000Y-100790000D03*
X183600000Y-87590000D03*
X172600000Y-98590000D03*
X172600000Y-96390000D03*
X124200000Y-96390000D03*
X128600000Y-69990000D03*
X122800000Y-102900000D03*
X165900000Y-111200000D03*
X124200000Y-83190000D03*
X130800000Y-100790000D03*
X185400000Y-100300000D03*
X135200000Y-109590000D03*
X174800000Y-122790000D03*
X179200000Y-120590000D03*
X122000000Y-85390000D03*
X189400000Y-95200000D03*
X161600000Y-105190000D03*
X152800000Y-80990000D03*
X185800000Y-87590000D03*
X155000000Y-80990000D03*
X117600000Y-100700000D03*
X167600000Y-118700000D03*
X167200000Y-109000000D03*
X162100000Y-109000000D03*
X184200000Y-102600000D03*
X117600000Y-112100000D03*
X148800000Y-98600000D03*
X148800000Y-95100000D03*
X147594490Y-107300640D03*
X148900000Y-110800000D03*
X157000000Y-125700000D03*
X157000000Y-124500000D03*
X153200000Y-111200000D03*
X158100000Y-116600000D03*
X152910793Y-106427452D03*
X141800000Y-85500000D03*
X145900000Y-85500000D03*
X148852998Y-111639710D03*
X151770185Y-101816527D03*
X152400000Y-107100000D03*
X152400000Y-111200000D03*
X138600000Y-123800000D03*
X140400000Y-123800000D03*
X142900000Y-84900000D03*
X136200000Y-78600000D03*
X130600000Y-75800000D03*
X125800000Y-75800000D03*
X136900000Y-78000000D03*
X142900000Y-83700000D03*
X163400000Y-98200000D03*
X162000000Y-98200000D03*
X145600000Y-78000000D03*
X141200000Y-73600000D03*
X156300000Y-97273000D03*
X164300000Y-101800000D03*
X141400000Y-116600000D03*
X142400000Y-94000000D03*
X140500000Y-111000000D03*
X129800000Y-107200000D03*
X129800000Y-108000000D03*
X139700000Y-111000000D03*
X140600000Y-74200000D03*
X143000000Y-76600000D03*
X163400000Y-76100000D03*
X160600000Y-76100000D03*
X160600000Y-74900000D03*
X163400000Y-74900000D03*
X129800000Y-106400000D03*
X141300000Y-111000000D03*
X151493870Y-92606130D03*
X159000000Y-92600000D03*
X163400000Y-97300000D03*
X161800000Y-97300000D03*
X158474000Y-90500000D03*
X157000000Y-90500000D03*
X157527000Y-96200000D03*
X155000000Y-96200000D03*
X152500000Y-91300000D03*
X150193870Y-91306130D03*
D21*
X117600000Y-99200000D02*
X117600000Y-79085103D01*
X128000000Y-68300000D02*
X142000000Y-68300000D01*
X153306130Y-93306130D02*
X152193870Y-93306130D01*
X182800000Y-72100000D02*
X179000000Y-68300000D01*
X141400000Y-115800000D02*
X133500000Y-115800000D01*
X179000000Y-68300000D02*
X142000000Y-68300000D01*
X147000000Y-93200000D02*
X144200000Y-93200000D01*
X123055000Y-73630103D02*
X123055000Y-73245000D01*
X182800000Y-114000000D02*
X182800000Y-105100000D01*
X123055000Y-73245000D02*
X128000000Y-68300000D01*
X117600000Y-79085103D02*
X123055000Y-73630103D01*
X155700000Y-95700000D02*
X153306130Y-93306130D01*
X182800000Y-73300000D02*
X182800000Y-72100000D01*
D22*
X172300000Y-126700000D02*
X170100000Y-126700000D01*
X184200000Y-124200000D02*
X181700000Y-126700000D01*
X172800000Y-123991169D02*
X170100000Y-126691169D01*
X117600000Y-112100000D02*
X117600000Y-100700000D01*
X181700000Y-126700000D02*
X172300000Y-126700000D01*
X184200000Y-102600000D02*
X184200000Y-124200000D01*
X170100000Y-126700000D02*
X128491169Y-126700000D01*
X170491169Y-118700000D02*
X172800000Y-121008831D01*
X172800000Y-121008831D02*
X172800000Y-123991169D01*
X128491169Y-126700000D02*
X117600000Y-115808831D01*
X167600000Y-118700000D02*
X170491169Y-118700000D01*
X117600000Y-115808831D02*
X117600000Y-112100000D01*
X162100000Y-109000000D02*
X167200000Y-109000000D01*
X170100000Y-126691169D02*
X170100000Y-126700000D01*
X148800000Y-95100000D02*
X148800000Y-98600000D01*
X148900000Y-110800000D02*
X148900000Y-108606150D01*
D23*
X150700000Y-118900000D02*
X150700000Y-116000000D01*
D22*
X150700000Y-118900000D02*
X150700000Y-119400000D01*
X150700000Y-119400000D02*
X157000000Y-125700000D01*
X148900000Y-108606150D02*
X147594490Y-107300640D01*
X156500000Y-116600000D02*
X154200000Y-118900000D01*
X157000000Y-124500000D02*
X154200000Y-121700000D01*
X153200000Y-111200000D02*
X153200000Y-106716659D01*
X153200000Y-106716659D02*
X152910793Y-106427452D01*
X154200000Y-121700000D02*
X154200000Y-118900000D01*
X158100000Y-116600000D02*
X156500000Y-116600000D01*
D23*
X154200000Y-118900000D02*
X154200000Y-116100000D01*
D24*
X145900000Y-85500000D02*
X141800000Y-85500000D01*
D22*
X151770185Y-108816527D02*
X151770185Y-101816527D01*
X148852998Y-111639710D02*
X148947002Y-111639710D01*
X148947002Y-111639710D02*
X151770185Y-108816527D01*
X152400000Y-107100000D02*
X152400000Y-111200000D01*
D24*
X138600000Y-123800000D02*
X140400000Y-123800000D01*
X136600000Y-78600000D02*
X142900000Y-84900000D01*
X136200000Y-78600000D02*
X136600000Y-78600000D01*
X125800000Y-75800000D02*
X130600000Y-75800000D01*
X137200000Y-78000000D02*
X136900000Y-78000000D01*
X142900000Y-83700000D02*
X137200000Y-78000000D01*
X162000000Y-98200000D02*
X163400000Y-98200000D01*
X141200000Y-73600000D02*
X145600000Y-78000000D01*
X164300000Y-101800000D02*
X160827000Y-101800000D01*
X160827000Y-101800000D02*
X156300000Y-97273000D01*
X142400000Y-115600000D02*
X142400000Y-94000000D01*
X141400000Y-116600000D02*
X142400000Y-115600000D01*
X136700000Y-107200000D02*
X140500000Y-111000000D01*
X129800000Y-107200000D02*
X136700000Y-107200000D01*
X136700000Y-108000000D02*
X139700000Y-111000000D01*
X129800000Y-108000000D02*
X136700000Y-108000000D01*
X143000000Y-76600000D02*
X140600000Y-74200000D01*
X163400000Y-76100000D02*
X160600000Y-76100000D01*
X160600000Y-74900000D02*
X163400000Y-74900000D01*
X136700000Y-106400000D02*
X141300000Y-111000000D01*
X129800000Y-106400000D02*
X136700000Y-106400000D01*
X151500000Y-92600000D02*
X151493870Y-92606130D01*
X154200000Y-92600000D02*
X151500000Y-92600000D01*
X159000000Y-92600000D02*
X154200000Y-92600000D01*
X161800000Y-97300000D02*
X163400000Y-97300000D01*
X157000000Y-90500000D02*
X158474000Y-90500000D01*
X157500000Y-96227000D02*
X157527000Y-96200000D01*
X155027000Y-96227000D02*
X157500000Y-96227000D01*
X152493870Y-91306130D02*
X152500000Y-91300000D01*
X150193870Y-91306130D02*
X152493870Y-91306130D01*
X155000000Y-96200000D02*
X155027000Y-96227000D01*
G04 #@! TA.AperFunction,Conductor*
G36*
X127710088Y-68020185D02*
G01*
X127755843Y-68072989D01*
X127765787Y-68142147D01*
X127736762Y-68205703D01*
X127730730Y-68212181D01*
X122840942Y-73101968D01*
X122840941Y-73101969D01*
X122802500Y-73194773D01*
X122802500Y-73474152D01*
X122782815Y-73541191D01*
X122766181Y-73561833D01*
X117385942Y-78942071D01*
X117385941Y-78942072D01*
X117347500Y-79034876D01*
X117347500Y-98696289D01*
X117327815Y-98763328D01*
X117298992Y-98794661D01*
X117292684Y-98799501D01*
X117199502Y-98892683D01*
X117199500Y-98892686D01*
X117133608Y-99006812D01*
X117099500Y-99134108D01*
X117099500Y-99265891D01*
X117133608Y-99393187D01*
X117166554Y-99450250D01*
X117199500Y-99507314D01*
X117292686Y-99600500D01*
X117406814Y-99666392D01*
X117534108Y-99700500D01*
X117534110Y-99700500D01*
X117665890Y-99700500D01*
X117665892Y-99700500D01*
X117793186Y-99666392D01*
X117907314Y-99600500D01*
X118000500Y-99507314D01*
X118066392Y-99393186D01*
X118100500Y-99265892D01*
X118100500Y-99134108D01*
X118066392Y-99006814D01*
X118000500Y-98892686D01*
X117907314Y-98799500D01*
X117907312Y-98799499D01*
X117901008Y-98794661D01*
X117859808Y-98738231D01*
X117852500Y-98696289D01*
X117852500Y-93134108D01*
X143699500Y-93134108D01*
X143699500Y-93265891D01*
X143733608Y-93393187D01*
X143766554Y-93450250D01*
X143799500Y-93507314D01*
X143892686Y-93600500D01*
X144006814Y-93666392D01*
X144134108Y-93700500D01*
X144134110Y-93700500D01*
X144265890Y-93700500D01*
X144265892Y-93700500D01*
X144393186Y-93666392D01*
X144507314Y-93600500D01*
X144600500Y-93507314D01*
X144600502Y-93507309D01*
X144605335Y-93501013D01*
X144661763Y-93459811D01*
X144703710Y-93452500D01*
X146496290Y-93452500D01*
X146563329Y-93472185D01*
X146594665Y-93501013D01*
X146599499Y-93507313D01*
X146599500Y-93507314D01*
X146692686Y-93600500D01*
X146806814Y-93666392D01*
X146934108Y-93700500D01*
X146934110Y-93700500D01*
X147065890Y-93700500D01*
X147065892Y-93700500D01*
X147193186Y-93666392D01*
X147307314Y-93600500D01*
X147400500Y-93507314D01*
X147466392Y-93393186D01*
X147500500Y-93265892D01*
X147500500Y-93134108D01*
X147466392Y-93006814D01*
X147400500Y-92892686D01*
X147307314Y-92799500D01*
X147250250Y-92766554D01*
X147193187Y-92733608D01*
X147129539Y-92716554D01*
X147065892Y-92699500D01*
X146934108Y-92699500D01*
X146806812Y-92733608D01*
X146692686Y-92799500D01*
X146692683Y-92799502D01*
X146599499Y-92892686D01*
X146594665Y-92898987D01*
X146538237Y-92940189D01*
X146496290Y-92947500D01*
X144703710Y-92947500D01*
X144636671Y-92927815D01*
X144605335Y-92898987D01*
X144600500Y-92892686D01*
X144507316Y-92799502D01*
X144507314Y-92799500D01*
X144450250Y-92766554D01*
X144393187Y-92733608D01*
X144329539Y-92716554D01*
X144265892Y-92699500D01*
X144134108Y-92699500D01*
X144006812Y-92733608D01*
X143892686Y-92799500D01*
X143892683Y-92799502D01*
X143799502Y-92892683D01*
X143799500Y-92892686D01*
X143733608Y-93006812D01*
X143699500Y-93134108D01*
X117852500Y-93134108D01*
X117852500Y-92540238D01*
X150993370Y-92540238D01*
X150993370Y-92672021D01*
X151027478Y-92799317D01*
X151055115Y-92847185D01*
X151093370Y-92913444D01*
X151186556Y-93006630D01*
X151267962Y-93053630D01*
X151290066Y-93066392D01*
X151300684Y-93072522D01*
X151427978Y-93106630D01*
X151427980Y-93106630D01*
X151567889Y-93106630D01*
X151567889Y-93109730D01*
X151622410Y-93118215D01*
X151674680Y-93164579D01*
X151693586Y-93231842D01*
X151693370Y-93234875D01*
X151693370Y-93372021D01*
X151727478Y-93499317D01*
X151760424Y-93556380D01*
X151793370Y-93613444D01*
X151886556Y-93706630D01*
X152000684Y-93772522D01*
X152127978Y-93806630D01*
X152127980Y-93806630D01*
X152259760Y-93806630D01*
X152259762Y-93806630D01*
X152387056Y-93772522D01*
X152501184Y-93706630D01*
X152594370Y-93613444D01*
X152594372Y-93613439D01*
X152599205Y-93607143D01*
X152655633Y-93565941D01*
X152697580Y-93558630D01*
X153150179Y-93558630D01*
X153217218Y-93578315D01*
X153237860Y-93594949D01*
X155130730Y-95487819D01*
X155164215Y-95549142D01*
X155159231Y-95618834D01*
X155117359Y-95674767D01*
X155051895Y-95699184D01*
X155043049Y-95699500D01*
X154934108Y-95699500D01*
X154806812Y-95733608D01*
X154692686Y-95799500D01*
X154692683Y-95799502D01*
X154599502Y-95892683D01*
X154599500Y-95892686D01*
X154533608Y-96006812D01*
X154499500Y-96134108D01*
X154499500Y-96265891D01*
X154533608Y-96393187D01*
X154566554Y-96450250D01*
X154599500Y-96507314D01*
X154692686Y-96600500D01*
X154806814Y-96666392D01*
X154934108Y-96700500D01*
X154934110Y-96700500D01*
X155065890Y-96700500D01*
X155065892Y-96700500D01*
X155193186Y-96666392D01*
X155307314Y-96600500D01*
X155400500Y-96507314D01*
X155400501Y-96507311D01*
X155403804Y-96503009D01*
X155460233Y-96461809D01*
X155502176Y-96454500D01*
X157024824Y-96454500D01*
X157091863Y-96474185D01*
X157123196Y-96503009D01*
X157126498Y-96507312D01*
X157126499Y-96507313D01*
X157126500Y-96507314D01*
X157219686Y-96600500D01*
X157333814Y-96666392D01*
X157461108Y-96700500D01*
X157461110Y-96700500D01*
X157592890Y-96700500D01*
X157592892Y-96700500D01*
X157720186Y-96666392D01*
X157834314Y-96600500D01*
X157927500Y-96507314D01*
X157993392Y-96393186D01*
X158027500Y-96265892D01*
X158027500Y-96134108D01*
X157993392Y-96006814D01*
X157927500Y-95892686D01*
X157834314Y-95799500D01*
X157776100Y-95765890D01*
X157720187Y-95733608D01*
X157656539Y-95716554D01*
X157592892Y-95699500D01*
X157461108Y-95699500D01*
X157333812Y-95733608D01*
X157219686Y-95799500D01*
X157219683Y-95799502D01*
X157126501Y-95892684D01*
X157126500Y-95892686D01*
X157106683Y-95927011D01*
X157100627Y-95937500D01*
X157050060Y-95985716D01*
X156993240Y-95999500D01*
X156299505Y-95999500D01*
X156232466Y-95979815D01*
X156186711Y-95927011D01*
X156176767Y-95857853D01*
X156179730Y-95843407D01*
X156191494Y-95799502D01*
X156200500Y-95765892D01*
X156200500Y-95634108D01*
X156166392Y-95506814D01*
X156100500Y-95392686D01*
X156007314Y-95299500D01*
X155950250Y-95266554D01*
X155893187Y-95233608D01*
X155827027Y-95215881D01*
X155765892Y-95199500D01*
X155634108Y-95199500D01*
X155626229Y-95200537D01*
X155557194Y-95189768D01*
X155522367Y-95165278D01*
X153449160Y-93092071D01*
X153386366Y-93066061D01*
X153331963Y-93022220D01*
X153309898Y-92955925D01*
X153327177Y-92888226D01*
X153378315Y-92840616D01*
X153433819Y-92827500D01*
X154154747Y-92827500D01*
X158481828Y-92827500D01*
X158548867Y-92847185D01*
X158589215Y-92889500D01*
X158599500Y-92907314D01*
X158692686Y-93000500D01*
X158784710Y-93053630D01*
X158806240Y-93066061D01*
X158806814Y-93066392D01*
X158934108Y-93100500D01*
X158934110Y-93100500D01*
X159065890Y-93100500D01*
X159065892Y-93100500D01*
X159193186Y-93066392D01*
X159307314Y-93000500D01*
X159400500Y-92907314D01*
X159466392Y-92793186D01*
X159500500Y-92665892D01*
X159500500Y-92534108D01*
X159466392Y-92406814D01*
X159400500Y-92292686D01*
X159307314Y-92199500D01*
X159250250Y-92166554D01*
X159193187Y-92133608D01*
X159129539Y-92116554D01*
X159065892Y-92099500D01*
X158934108Y-92099500D01*
X158806812Y-92133608D01*
X158692686Y-92199500D01*
X158692683Y-92199502D01*
X158599502Y-92292683D01*
X158599498Y-92292689D01*
X158589215Y-92310500D01*
X158538648Y-92358716D01*
X158481828Y-92372500D01*
X152008503Y-92372500D01*
X151941464Y-92352815D01*
X151901117Y-92310501D01*
X151894373Y-92298822D01*
X151894370Y-92298816D01*
X151801184Y-92205630D01*
X151744120Y-92172684D01*
X151687057Y-92139738D01*
X151623409Y-92122684D01*
X151559762Y-92105630D01*
X151427978Y-92105630D01*
X151300682Y-92139738D01*
X151186556Y-92205630D01*
X151186553Y-92205632D01*
X151093372Y-92298813D01*
X151093370Y-92298816D01*
X151027478Y-92412942D01*
X150993370Y-92540238D01*
X117852500Y-92540238D01*
X117852500Y-91240238D01*
X149693370Y-91240238D01*
X149693370Y-91372021D01*
X149727478Y-91499317D01*
X149747289Y-91533630D01*
X149793370Y-91613444D01*
X149886556Y-91706630D01*
X149985391Y-91763693D01*
X149990066Y-91766392D01*
X150000684Y-91772522D01*
X150127978Y-91806630D01*
X150127980Y-91806630D01*
X150259760Y-91806630D01*
X150259762Y-91806630D01*
X150387056Y-91772522D01*
X150501184Y-91706630D01*
X150594370Y-91613444D01*
X150604656Y-91595629D01*
X150655222Y-91547414D01*
X150712042Y-91533630D01*
X151985367Y-91533630D01*
X152052406Y-91553315D01*
X152092753Y-91595629D01*
X152092754Y-91595630D01*
X152099500Y-91607314D01*
X152192686Y-91700500D01*
X152306814Y-91766392D01*
X152434108Y-91800500D01*
X152434110Y-91800500D01*
X152565890Y-91800500D01*
X152565892Y-91800500D01*
X152693186Y-91766392D01*
X152807314Y-91700500D01*
X152900500Y-91607314D01*
X152966392Y-91493186D01*
X153000500Y-91365892D01*
X153000500Y-91234108D01*
X152966392Y-91106814D01*
X152900500Y-90992686D01*
X152807314Y-90899500D01*
X152750250Y-90866554D01*
X152693187Y-90833608D01*
X152629539Y-90816554D01*
X152565892Y-90799500D01*
X152434108Y-90799500D01*
X152306812Y-90833608D01*
X152192686Y-90899500D01*
X152192683Y-90899502D01*
X152099502Y-90992683D01*
X152099498Y-90992689D01*
X152085676Y-91016630D01*
X152035109Y-91064846D01*
X151978289Y-91078630D01*
X150712042Y-91078630D01*
X150645003Y-91058945D01*
X150604655Y-91016630D01*
X150595342Y-91000500D01*
X150594370Y-90998816D01*
X150501184Y-90905630D01*
X150444120Y-90872684D01*
X150387057Y-90839738D01*
X150323409Y-90822684D01*
X150259762Y-90805630D01*
X150127978Y-90805630D01*
X150000682Y-90839738D01*
X149886556Y-90905630D01*
X149886553Y-90905632D01*
X149793372Y-90998813D01*
X149793370Y-90998816D01*
X149727478Y-91112942D01*
X149693370Y-91240238D01*
X117852500Y-91240238D01*
X117852500Y-90434108D01*
X156499500Y-90434108D01*
X156499500Y-90565891D01*
X156533608Y-90693187D01*
X156553419Y-90727500D01*
X156599500Y-90807314D01*
X156692686Y-90900500D01*
X156806814Y-90966392D01*
X156934108Y-91000500D01*
X156934110Y-91000500D01*
X157065890Y-91000500D01*
X157065892Y-91000500D01*
X157193186Y-90966392D01*
X157307314Y-90900500D01*
X157400500Y-90807314D01*
X157410785Y-90789500D01*
X157461352Y-90741284D01*
X157518172Y-90727500D01*
X157955828Y-90727500D01*
X158022867Y-90747185D01*
X158063215Y-90789500D01*
X158073500Y-90807314D01*
X158166686Y-90900500D01*
X158280814Y-90966392D01*
X158408108Y-91000500D01*
X158408110Y-91000500D01*
X158539890Y-91000500D01*
X158539892Y-91000500D01*
X158667186Y-90966392D01*
X158781314Y-90900500D01*
X158874500Y-90807314D01*
X158940392Y-90693186D01*
X158974500Y-90565892D01*
X158974500Y-90434108D01*
X158940392Y-90306814D01*
X158874500Y-90192686D01*
X158781314Y-90099500D01*
X158724250Y-90066554D01*
X158667187Y-90033608D01*
X158603539Y-90016554D01*
X158539892Y-89999500D01*
X158408108Y-89999500D01*
X158280812Y-90033608D01*
X158166686Y-90099500D01*
X158166683Y-90099502D01*
X158073502Y-90192683D01*
X158073498Y-90192689D01*
X158063215Y-90210500D01*
X158012648Y-90258716D01*
X157955828Y-90272500D01*
X157518172Y-90272500D01*
X157451133Y-90252815D01*
X157410785Y-90210500D01*
X157410775Y-90210482D01*
X157400500Y-90192686D01*
X157307314Y-90099500D01*
X157250250Y-90066554D01*
X157193187Y-90033608D01*
X157129539Y-90016554D01*
X157065892Y-89999500D01*
X156934108Y-89999500D01*
X156806812Y-90033608D01*
X156692686Y-90099500D01*
X156692683Y-90099502D01*
X156599502Y-90192683D01*
X156599500Y-90192686D01*
X156533608Y-90306812D01*
X156499500Y-90434108D01*
X117852500Y-90434108D01*
X117852500Y-79241054D01*
X117872185Y-79174015D01*
X117888819Y-79153373D01*
X118508084Y-78534108D01*
X135699500Y-78534108D01*
X135699500Y-78665891D01*
X135733608Y-78793187D01*
X135766554Y-78850250D01*
X135799500Y-78907314D01*
X135892686Y-79000500D01*
X136006814Y-79066392D01*
X136134108Y-79100500D01*
X136134110Y-79100500D01*
X136265890Y-79100500D01*
X136265892Y-79100500D01*
X136393186Y-79066392D01*
X136507314Y-79000500D01*
X136507316Y-79000497D01*
X136507321Y-79000495D01*
X136513765Y-78995551D01*
X136515019Y-78997186D01*
X136566650Y-78968976D01*
X136636343Y-78973942D01*
X136680721Y-79002454D01*
X142372730Y-84694463D01*
X142406215Y-84755786D01*
X142404824Y-84814234D01*
X142399500Y-84834108D01*
X142399500Y-84965892D01*
X142417644Y-85033608D01*
X142433609Y-85093188D01*
X142436720Y-85100700D01*
X142435745Y-85101103D01*
X142439322Y-85125983D01*
X142446217Y-85154460D01*
X142444238Y-85160168D01*
X142445098Y-85166147D01*
X142432928Y-85192793D01*
X142423333Y-85220476D01*
X142418582Y-85224208D01*
X142416073Y-85229703D01*
X142391426Y-85245542D01*
X142368390Y-85263640D01*
X142361074Y-85265048D01*
X142357295Y-85267477D01*
X142322360Y-85272500D01*
X142318172Y-85272500D01*
X142251133Y-85252815D01*
X142210785Y-85210500D01*
X142210775Y-85210482D01*
X142200500Y-85192686D01*
X142107314Y-85099500D01*
X142050250Y-85066554D01*
X141993187Y-85033608D01*
X141929539Y-85016554D01*
X141865892Y-84999500D01*
X141734108Y-84999500D01*
X141606812Y-85033608D01*
X141492686Y-85099500D01*
X141492683Y-85099502D01*
X141399502Y-85192683D01*
X141399500Y-85192686D01*
X141333608Y-85306812D01*
X141299500Y-85434108D01*
X141299500Y-85565891D01*
X141333608Y-85693187D01*
X141353419Y-85727500D01*
X141399500Y-85807314D01*
X141492686Y-85900500D01*
X141606814Y-85966392D01*
X141734108Y-86000500D01*
X141734110Y-86000500D01*
X141865890Y-86000500D01*
X141865892Y-86000500D01*
X141993186Y-85966392D01*
X142107314Y-85900500D01*
X142200500Y-85807314D01*
X142210785Y-85789500D01*
X142261352Y-85741284D01*
X142318172Y-85727500D01*
X145381828Y-85727500D01*
X145448867Y-85747185D01*
X145489215Y-85789500D01*
X145499500Y-85807314D01*
X145592686Y-85900500D01*
X145706814Y-85966392D01*
X145834108Y-86000500D01*
X145834110Y-86000500D01*
X145965890Y-86000500D01*
X145965892Y-86000500D01*
X146093186Y-85966392D01*
X146207314Y-85900500D01*
X146300500Y-85807314D01*
X146366392Y-85693186D01*
X146400500Y-85565892D01*
X146400500Y-85434108D01*
X146366392Y-85306814D01*
X146300500Y-85192686D01*
X146207314Y-85099500D01*
X146150250Y-85066554D01*
X146093187Y-85033608D01*
X146029539Y-85016554D01*
X145965892Y-84999500D01*
X145834108Y-84999500D01*
X145706812Y-85033608D01*
X145592686Y-85099500D01*
X145592683Y-85099502D01*
X145499502Y-85192683D01*
X145499498Y-85192689D01*
X145489215Y-85210500D01*
X145438648Y-85258716D01*
X145381828Y-85272500D01*
X143477640Y-85272500D01*
X143410601Y-85252815D01*
X143364846Y-85200011D01*
X143354902Y-85130853D01*
X143365073Y-85101442D01*
X143363280Y-85100700D01*
X143366387Y-85093193D01*
X143366392Y-85093186D01*
X143400500Y-84965892D01*
X143400500Y-84834108D01*
X143366392Y-84706814D01*
X143300500Y-84592686D01*
X143207314Y-84499500D01*
X143150250Y-84466554D01*
X143093187Y-84433608D01*
X143076259Y-84429072D01*
X143041556Y-84419774D01*
X142981897Y-84383410D01*
X142951368Y-84320564D01*
X142959662Y-84251188D01*
X143004147Y-84197310D01*
X143041555Y-84180226D01*
X143093186Y-84166392D01*
X143207314Y-84100500D01*
X143300500Y-84007314D01*
X143366392Y-83893186D01*
X143400500Y-83765892D01*
X143400500Y-83634108D01*
X143366392Y-83506814D01*
X143300500Y-83392686D01*
X143207314Y-83299500D01*
X143150250Y-83266554D01*
X143093187Y-83233608D01*
X142979551Y-83203160D01*
X142965892Y-83199500D01*
X142834108Y-83199500D01*
X142814234Y-83204825D01*
X142744384Y-83203160D01*
X142694463Y-83172730D01*
X137403738Y-77882005D01*
X137371644Y-77826416D01*
X137366392Y-77806815D01*
X137366390Y-77806812D01*
X137300500Y-77692686D01*
X137207314Y-77599500D01*
X137150250Y-77566554D01*
X137093187Y-77533608D01*
X137029539Y-77516554D01*
X136965892Y-77499500D01*
X136834108Y-77499500D01*
X136706812Y-77533608D01*
X136592686Y-77599500D01*
X136592683Y-77599502D01*
X136499502Y-77692683D01*
X136499500Y-77692686D01*
X136433608Y-77806812D01*
X136399500Y-77934108D01*
X136399500Y-77975695D01*
X136379815Y-78042734D01*
X136327011Y-78088489D01*
X136274019Y-78096430D01*
X136274019Y-78099500D01*
X136134108Y-78099500D01*
X136006812Y-78133608D01*
X135892686Y-78199500D01*
X135892683Y-78199502D01*
X135799502Y-78292683D01*
X135799500Y-78292686D01*
X135733608Y-78406812D01*
X135699500Y-78534108D01*
X118508084Y-78534108D01*
X121308084Y-75734108D01*
X125299500Y-75734108D01*
X125299500Y-75865892D01*
X125310464Y-75906812D01*
X125333608Y-75993187D01*
X125361377Y-76041284D01*
X125399500Y-76107314D01*
X125492686Y-76200500D01*
X125606814Y-76266392D01*
X125734108Y-76300500D01*
X125734110Y-76300500D01*
X125865890Y-76300500D01*
X125865892Y-76300500D01*
X125993186Y-76266392D01*
X126107314Y-76200500D01*
X126200500Y-76107314D01*
X126210785Y-76089500D01*
X126261352Y-76041284D01*
X126318172Y-76027500D01*
X130081828Y-76027500D01*
X130148867Y-76047185D01*
X130189215Y-76089500D01*
X130199500Y-76107314D01*
X130292686Y-76200500D01*
X130406814Y-76266392D01*
X130534108Y-76300500D01*
X130534110Y-76300500D01*
X130665890Y-76300500D01*
X130665892Y-76300500D01*
X130793186Y-76266392D01*
X130907314Y-76200500D01*
X131000500Y-76107314D01*
X131066392Y-75993186D01*
X131100500Y-75865892D01*
X131100500Y-75734108D01*
X131066392Y-75606814D01*
X131000500Y-75492686D01*
X130907314Y-75399500D01*
X130849968Y-75366391D01*
X130793187Y-75333608D01*
X130729539Y-75316554D01*
X130665892Y-75299500D01*
X130534108Y-75299500D01*
X130406812Y-75333608D01*
X130292686Y-75399500D01*
X130292683Y-75399502D01*
X130199502Y-75492683D01*
X130199498Y-75492689D01*
X130189215Y-75510500D01*
X130138648Y-75558716D01*
X130081828Y-75572500D01*
X126318172Y-75572500D01*
X126251133Y-75552815D01*
X126210785Y-75510500D01*
X126210775Y-75510482D01*
X126200500Y-75492686D01*
X126107314Y-75399500D01*
X126049968Y-75366391D01*
X125993187Y-75333608D01*
X125929539Y-75316554D01*
X125865892Y-75299500D01*
X125734108Y-75299500D01*
X125606812Y-75333608D01*
X125492686Y-75399500D01*
X125492683Y-75399502D01*
X125399502Y-75492683D01*
X125399500Y-75492686D01*
X125333608Y-75606812D01*
X125299500Y-75734108D01*
X121308084Y-75734108D01*
X121403892Y-75638300D01*
X122335380Y-74706812D01*
X123269059Y-73773133D01*
X123307500Y-73680328D01*
X123307500Y-73635817D01*
X124784500Y-73635817D01*
X124784500Y-73774183D01*
X124791552Y-73800499D01*
X124820312Y-73907835D01*
X124820313Y-73907838D01*
X124889492Y-74027661D01*
X124889494Y-74027664D01*
X124889495Y-74027665D01*
X124987335Y-74125505D01*
X125107164Y-74194688D01*
X125240817Y-74230500D01*
X125240819Y-74230500D01*
X125379181Y-74230500D01*
X125379183Y-74230500D01*
X125512836Y-74194688D01*
X125632665Y-74125505D01*
X125730505Y-74027665D01*
X125799688Y-73907836D01*
X125835500Y-73774183D01*
X125835500Y-73635817D01*
X130564500Y-73635817D01*
X130564500Y-73774183D01*
X130571552Y-73800499D01*
X130600312Y-73907835D01*
X130600313Y-73907838D01*
X130669492Y-74027661D01*
X130669494Y-74027664D01*
X130669495Y-74027665D01*
X130767335Y-74125505D01*
X130887164Y-74194688D01*
X131020817Y-74230500D01*
X131020819Y-74230500D01*
X131159181Y-74230500D01*
X131159183Y-74230500D01*
X131292836Y-74194688D01*
X131397764Y-74134108D01*
X140099500Y-74134108D01*
X140099500Y-74265891D01*
X140133608Y-74393187D01*
X140137253Y-74399500D01*
X140199500Y-74507314D01*
X140292686Y-74600500D01*
X140406814Y-74666392D01*
X140534108Y-74700500D01*
X140534110Y-74700500D01*
X140665891Y-74700500D01*
X140665892Y-74700500D01*
X140685760Y-74695176D01*
X140755608Y-74696837D01*
X140805536Y-74727269D01*
X142472729Y-76394463D01*
X142506214Y-76455786D01*
X142504824Y-76514233D01*
X142499500Y-76534102D01*
X142499500Y-76665891D01*
X142533608Y-76793187D01*
X142566554Y-76850250D01*
X142599500Y-76907314D01*
X142692686Y-77000500D01*
X142806814Y-77066392D01*
X142934108Y-77100500D01*
X142934110Y-77100500D01*
X143065890Y-77100500D01*
X143065892Y-77100500D01*
X143193186Y-77066392D01*
X143307314Y-77000500D01*
X143400500Y-76907314D01*
X143466392Y-76793186D01*
X143500500Y-76665892D01*
X143500500Y-76534108D01*
X143500500Y-76525981D01*
X143502632Y-76525981D01*
X143511661Y-76468080D01*
X143558041Y-76415824D01*
X143625310Y-76396939D01*
X143692111Y-76417419D01*
X143711512Y-76433246D01*
X144750995Y-77472729D01*
X145072729Y-77794463D01*
X145106214Y-77855786D01*
X145104824Y-77914233D01*
X145099500Y-77934102D01*
X145099500Y-78065891D01*
X145133608Y-78193187D01*
X145166554Y-78250250D01*
X145199500Y-78307314D01*
X145292686Y-78400500D01*
X145406814Y-78466392D01*
X145534108Y-78500500D01*
X145534110Y-78500500D01*
X145665890Y-78500500D01*
X145665892Y-78500500D01*
X145793186Y-78466392D01*
X145907314Y-78400500D01*
X146000500Y-78307314D01*
X146066392Y-78193186D01*
X146100500Y-78065892D01*
X146100500Y-77934108D01*
X146066392Y-77806814D01*
X146000500Y-77692686D01*
X145907314Y-77599500D01*
X145850250Y-77566554D01*
X145793187Y-77533608D01*
X145729539Y-77516554D01*
X145665892Y-77499500D01*
X145534108Y-77499500D01*
X145534102Y-77499500D01*
X145514233Y-77504824D01*
X145444383Y-77503159D01*
X145394463Y-77472729D01*
X144121234Y-76199500D01*
X142755841Y-74834108D01*
X160099500Y-74834108D01*
X160099500Y-74965891D01*
X160133608Y-75093187D01*
X160153419Y-75127500D01*
X160199500Y-75207314D01*
X160292686Y-75300500D01*
X160406814Y-75366392D01*
X160458441Y-75380225D01*
X160518102Y-75416590D01*
X160548631Y-75479437D01*
X160540336Y-75548812D01*
X160495851Y-75602690D01*
X160458442Y-75619774D01*
X160440666Y-75624537D01*
X160406812Y-75633608D01*
X160292686Y-75699500D01*
X160292683Y-75699502D01*
X160199502Y-75792683D01*
X160199500Y-75792686D01*
X160133608Y-75906812D01*
X160099500Y-76034108D01*
X160099500Y-76165891D01*
X160133608Y-76293187D01*
X160153419Y-76327500D01*
X160199500Y-76407314D01*
X160292686Y-76500500D01*
X160406814Y-76566392D01*
X160534108Y-76600500D01*
X160534110Y-76600500D01*
X160665890Y-76600500D01*
X160665892Y-76600500D01*
X160793186Y-76566392D01*
X160907314Y-76500500D01*
X161000500Y-76407314D01*
X161010785Y-76389500D01*
X161061352Y-76341284D01*
X161118172Y-76327500D01*
X162881828Y-76327500D01*
X162948867Y-76347185D01*
X162989215Y-76389500D01*
X162999500Y-76407314D01*
X163092686Y-76500500D01*
X163206814Y-76566392D01*
X163334108Y-76600500D01*
X163334110Y-76600500D01*
X163465890Y-76600500D01*
X163465892Y-76600500D01*
X163593186Y-76566392D01*
X163707314Y-76500500D01*
X163800500Y-76407314D01*
X163866392Y-76293186D01*
X163900500Y-76165892D01*
X163900500Y-76034108D01*
X163866392Y-75906814D01*
X163800500Y-75792686D01*
X163707314Y-75699500D01*
X163650250Y-75666554D01*
X163593187Y-75633608D01*
X163576259Y-75629072D01*
X163541556Y-75619774D01*
X163481897Y-75583410D01*
X163451368Y-75520564D01*
X163459662Y-75451188D01*
X163504147Y-75397310D01*
X163541555Y-75380226D01*
X163593186Y-75366392D01*
X163707314Y-75300500D01*
X163800500Y-75207314D01*
X163866392Y-75093186D01*
X163900500Y-74965892D01*
X163900500Y-74834108D01*
X163866392Y-74706814D01*
X163800500Y-74592686D01*
X163707314Y-74499500D01*
X163650250Y-74466554D01*
X163593187Y-74433608D01*
X163529539Y-74416554D01*
X163465892Y-74399500D01*
X163334108Y-74399500D01*
X163206812Y-74433608D01*
X163092686Y-74499500D01*
X163092683Y-74499502D01*
X162999502Y-74592683D01*
X162999498Y-74592689D01*
X162989215Y-74610500D01*
X162938648Y-74658716D01*
X162881828Y-74672500D01*
X161118172Y-74672500D01*
X161051133Y-74652815D01*
X161010785Y-74610500D01*
X161005011Y-74600500D01*
X161000500Y-74592686D01*
X160907314Y-74499500D01*
X160850250Y-74466554D01*
X160793187Y-74433608D01*
X160729539Y-74416554D01*
X160665892Y-74399500D01*
X160534108Y-74399500D01*
X160406812Y-74433608D01*
X160292686Y-74499500D01*
X160292683Y-74499502D01*
X160199502Y-74592683D01*
X160199500Y-74592686D01*
X160133608Y-74706812D01*
X160099500Y-74834108D01*
X142755841Y-74834108D01*
X141727268Y-73805535D01*
X141693784Y-73744213D01*
X141695176Y-73685759D01*
X141696631Y-73680329D01*
X141700500Y-73665892D01*
X141700500Y-73534108D01*
X141666392Y-73406814D01*
X141600500Y-73292686D01*
X141507314Y-73199500D01*
X141450250Y-73166554D01*
X141393187Y-73133608D01*
X141293188Y-73106814D01*
X141265892Y-73099500D01*
X141134108Y-73099500D01*
X141006812Y-73133608D01*
X140892686Y-73199500D01*
X140892683Y-73199502D01*
X140799502Y-73292683D01*
X140799500Y-73292686D01*
X140733608Y-73406812D01*
X140699500Y-73534108D01*
X140699500Y-73575500D01*
X140679815Y-73642539D01*
X140627011Y-73688294D01*
X140575500Y-73699500D01*
X140534108Y-73699500D01*
X140406812Y-73733608D01*
X140292686Y-73799500D01*
X140292683Y-73799502D01*
X140199502Y-73892683D01*
X140199500Y-73892686D01*
X140133608Y-74006812D01*
X140099500Y-74134108D01*
X131397764Y-74134108D01*
X131412665Y-74125505D01*
X131510505Y-74027665D01*
X131579688Y-73907836D01*
X131615500Y-73774183D01*
X131615500Y-73635817D01*
X131579688Y-73502164D01*
X131510505Y-73382335D01*
X131412665Y-73284495D01*
X131412664Y-73284494D01*
X131412661Y-73284492D01*
X131292838Y-73215313D01*
X131292837Y-73215312D01*
X131292836Y-73215312D01*
X131159183Y-73179500D01*
X131020817Y-73179500D01*
X130887164Y-73215312D01*
X130887161Y-73215313D01*
X130767338Y-73284492D01*
X130767333Y-73284496D01*
X130669496Y-73382333D01*
X130669492Y-73382338D01*
X130600313Y-73502161D01*
X130600312Y-73502164D01*
X130564500Y-73635817D01*
X125835500Y-73635817D01*
X125799688Y-73502164D01*
X125730505Y-73382335D01*
X125632665Y-73284495D01*
X125632664Y-73284494D01*
X125632661Y-73284492D01*
X125512838Y-73215313D01*
X125512837Y-73215312D01*
X125512836Y-73215312D01*
X125379183Y-73179500D01*
X125240817Y-73179500D01*
X125107164Y-73215312D01*
X125107161Y-73215313D01*
X124987338Y-73284492D01*
X124987333Y-73284496D01*
X124889496Y-73382333D01*
X124889492Y-73382338D01*
X124820313Y-73502161D01*
X124820312Y-73502164D01*
X124784500Y-73635817D01*
X123307500Y-73635817D01*
X123307500Y-73579878D01*
X123307500Y-73400951D01*
X123327185Y-73333912D01*
X123343819Y-73313270D01*
X128068270Y-68588819D01*
X128129593Y-68555334D01*
X128155951Y-68552500D01*
X141496290Y-68552500D01*
X141563329Y-68572185D01*
X141594665Y-68601013D01*
X141599499Y-68607313D01*
X141599500Y-68607314D01*
X141692686Y-68700500D01*
X141806814Y-68766392D01*
X141934108Y-68800500D01*
X141934110Y-68800500D01*
X142065890Y-68800500D01*
X142065892Y-68800500D01*
X142193186Y-68766392D01*
X142307314Y-68700500D01*
X142400500Y-68607314D01*
X142400502Y-68607309D01*
X142405335Y-68601013D01*
X142461763Y-68559811D01*
X142503710Y-68552500D01*
X178844049Y-68552500D01*
X178911088Y-68572185D01*
X178931730Y-68588819D01*
X182511181Y-72168270D01*
X182544666Y-72229593D01*
X182547500Y-72255951D01*
X182547500Y-72796289D01*
X182527815Y-72863328D01*
X182498992Y-72894661D01*
X182492684Y-72899501D01*
X182399502Y-72992683D01*
X182399500Y-72992686D01*
X182333608Y-73106812D01*
X182304536Y-73215312D01*
X182299500Y-73234108D01*
X182299500Y-73365892D01*
X182303906Y-73382335D01*
X182333608Y-73493187D01*
X182361324Y-73541191D01*
X182399500Y-73607314D01*
X182492686Y-73700500D01*
X182606814Y-73766392D01*
X182734108Y-73800500D01*
X182734110Y-73800500D01*
X182865890Y-73800500D01*
X182865892Y-73800500D01*
X182993186Y-73766392D01*
X183107314Y-73700500D01*
X183200500Y-73607314D01*
X183266392Y-73493186D01*
X183300500Y-73365892D01*
X183300500Y-73234108D01*
X183266392Y-73106814D01*
X183200500Y-72992686D01*
X183107314Y-72899500D01*
X183107312Y-72899499D01*
X183101008Y-72894661D01*
X183059808Y-72838231D01*
X183052500Y-72796289D01*
X183052500Y-72049776D01*
X183052499Y-72049773D01*
X183014059Y-71956970D01*
X182943030Y-71885941D01*
X179269270Y-68212181D01*
X179235785Y-68150858D01*
X179240769Y-68081166D01*
X179282641Y-68025233D01*
X179348105Y-68000816D01*
X179356951Y-68000500D01*
X189875500Y-68000500D01*
X189942539Y-68020185D01*
X189988294Y-68072989D01*
X189999500Y-68124500D01*
X189999500Y-126875500D01*
X189979815Y-126942539D01*
X189927011Y-126988294D01*
X189875500Y-126999500D01*
X182163017Y-126999500D01*
X182095978Y-126979815D01*
X182050223Y-126927011D01*
X182040279Y-126857853D01*
X182069304Y-126794297D01*
X182075336Y-126787819D01*
X183236819Y-125626336D01*
X184462065Y-124401090D01*
X184505181Y-124326410D01*
X184527500Y-124243116D01*
X184527500Y-124156884D01*
X184527500Y-103031676D01*
X184547185Y-102964637D01*
X184563819Y-102943995D01*
X184600500Y-102907314D01*
X184666392Y-102793186D01*
X184700500Y-102665892D01*
X184700500Y-102534108D01*
X184666392Y-102406814D01*
X184600500Y-102292686D01*
X184507314Y-102199500D01*
X184439802Y-102160522D01*
X184393187Y-102133608D01*
X184329539Y-102116554D01*
X184265892Y-102099500D01*
X184134108Y-102099500D01*
X184006812Y-102133608D01*
X183892686Y-102199500D01*
X183892683Y-102199502D01*
X183799502Y-102292683D01*
X183799500Y-102292686D01*
X183733608Y-102406812D01*
X183699500Y-102534108D01*
X183699500Y-102665891D01*
X183733608Y-102793187D01*
X183766554Y-102850250D01*
X183799500Y-102907314D01*
X183799502Y-102907316D01*
X183836181Y-102943995D01*
X183869666Y-103005318D01*
X183872500Y-103031676D01*
X183872500Y-124012983D01*
X183852815Y-124080022D01*
X183836181Y-124100664D01*
X181600664Y-126336181D01*
X181539341Y-126369666D01*
X181512983Y-126372500D01*
X171181186Y-126372500D01*
X171114147Y-126352815D01*
X171068392Y-126300011D01*
X171058448Y-126230853D01*
X171087473Y-126167297D01*
X171093505Y-126160819D01*
X172070914Y-125183410D01*
X173062065Y-124192259D01*
X173105181Y-124117579D01*
X173127500Y-124034285D01*
X173127500Y-123948053D01*
X173127500Y-120965715D01*
X173105181Y-120882421D01*
X173062065Y-120807741D01*
X173001090Y-120746766D01*
X170692259Y-118437935D01*
X170617579Y-118394819D01*
X170617580Y-118394819D01*
X170589814Y-118387379D01*
X170534285Y-118372500D01*
X170534283Y-118372500D01*
X168031676Y-118372500D01*
X167964637Y-118352815D01*
X167943995Y-118336181D01*
X167907316Y-118299502D01*
X167907314Y-118299500D01*
X167843497Y-118262655D01*
X167793187Y-118233608D01*
X167729539Y-118216554D01*
X167665892Y-118199500D01*
X167534108Y-118199500D01*
X167406812Y-118233608D01*
X167292686Y-118299500D01*
X167292683Y-118299502D01*
X167199502Y-118392683D01*
X167199500Y-118392686D01*
X167133608Y-118506812D01*
X167099500Y-118634108D01*
X167099500Y-118765891D01*
X167133608Y-118893187D01*
X167166554Y-118950250D01*
X167199500Y-119007314D01*
X167292686Y-119100500D01*
X167406814Y-119166392D01*
X167534108Y-119200500D01*
X167534110Y-119200500D01*
X167665890Y-119200500D01*
X167665892Y-119200500D01*
X167793186Y-119166392D01*
X167907314Y-119100500D01*
X167943995Y-119063819D01*
X168005318Y-119030334D01*
X168031676Y-119027500D01*
X170304152Y-119027500D01*
X170371191Y-119047185D01*
X170391833Y-119063819D01*
X172436181Y-121108167D01*
X172469666Y-121169490D01*
X172472500Y-121195848D01*
X172472500Y-123804152D01*
X172452815Y-123871191D01*
X172436181Y-123891833D01*
X169991833Y-126336181D01*
X169930510Y-126369666D01*
X169904152Y-126372500D01*
X157298971Y-126372500D01*
X157231932Y-126352815D01*
X157186177Y-126300011D01*
X157176233Y-126230853D01*
X157205258Y-126167297D01*
X157236970Y-126141113D01*
X157307314Y-126100500D01*
X157400500Y-126007314D01*
X157466392Y-125893186D01*
X157500500Y-125765892D01*
X157500500Y-125634108D01*
X157466392Y-125506814D01*
X157400500Y-125392686D01*
X157307314Y-125299500D01*
X157250250Y-125266554D01*
X157193187Y-125233608D01*
X157176259Y-125229072D01*
X157141556Y-125219774D01*
X157081897Y-125183410D01*
X157051368Y-125120564D01*
X157059662Y-125051188D01*
X157104147Y-124997310D01*
X157141555Y-124980226D01*
X157193186Y-124966392D01*
X157307314Y-124900500D01*
X157400500Y-124807314D01*
X157466392Y-124693186D01*
X157500500Y-124565892D01*
X157500500Y-124434108D01*
X157466392Y-124306814D01*
X157400500Y-124192686D01*
X157307314Y-124099500D01*
X157246424Y-124064345D01*
X157193187Y-124033608D01*
X157116212Y-124012983D01*
X157065892Y-123999500D01*
X157065891Y-123999500D01*
X157014017Y-123999500D01*
X156946978Y-123979815D01*
X156926336Y-123963181D01*
X154563819Y-121600664D01*
X154530334Y-121539341D01*
X154527500Y-121512983D01*
X154527500Y-120940813D01*
X154547185Y-120873774D01*
X154599989Y-120828019D01*
X154613173Y-120822885D01*
X154622445Y-120819873D01*
X154776788Y-120741232D01*
X154916928Y-120639414D01*
X155039414Y-120516928D01*
X155141232Y-120376788D01*
X155219873Y-120222445D01*
X155273402Y-120057701D01*
X155300500Y-119886611D01*
X155300500Y-118314017D01*
X155320185Y-118246978D01*
X155336819Y-118226336D01*
X156599336Y-116963819D01*
X156660659Y-116930334D01*
X156687017Y-116927500D01*
X157668324Y-116927500D01*
X157735363Y-116947185D01*
X157756005Y-116963819D01*
X157792686Y-117000500D01*
X157906814Y-117066392D01*
X158034108Y-117100500D01*
X158034110Y-117100500D01*
X158165890Y-117100500D01*
X158165892Y-117100500D01*
X158293186Y-117066392D01*
X158407314Y-117000500D01*
X158500500Y-116907314D01*
X158566392Y-116793186D01*
X158600500Y-116665892D01*
X158600500Y-116534108D01*
X158566392Y-116406814D01*
X158500500Y-116292686D01*
X158407314Y-116199500D01*
X158350250Y-116166554D01*
X158293187Y-116133608D01*
X158229539Y-116116554D01*
X158165892Y-116099500D01*
X158034108Y-116099500D01*
X157906812Y-116133608D01*
X157792686Y-116199500D01*
X157792683Y-116199502D01*
X157756005Y-116236181D01*
X157694682Y-116269666D01*
X157668324Y-116272500D01*
X156543116Y-116272500D01*
X156456884Y-116272500D01*
X156401354Y-116287379D01*
X156373589Y-116294819D01*
X156298911Y-116337934D01*
X156298908Y-116337936D01*
X155274359Y-117362484D01*
X155213036Y-117395969D01*
X155143344Y-117390985D01*
X155087411Y-117349113D01*
X155086360Y-117347688D01*
X155048613Y-117295734D01*
X155039414Y-117283072D01*
X154916928Y-117160586D01*
X154804968Y-117079242D01*
X154762304Y-117023913D01*
X154756325Y-116954299D01*
X154788931Y-116892504D01*
X154836897Y-116861885D01*
X154862882Y-116852793D01*
X154972150Y-116772150D01*
X155052793Y-116662882D01*
X155075219Y-116598790D01*
X155097646Y-116534701D01*
X155097646Y-116534699D01*
X155100500Y-116504269D01*
X155100500Y-115695730D01*
X155097646Y-115665300D01*
X155097646Y-115665298D01*
X155054531Y-115542086D01*
X155052793Y-115537118D01*
X154972150Y-115427850D01*
X154862882Y-115347207D01*
X154862880Y-115347206D01*
X154734700Y-115302353D01*
X154704270Y-115299500D01*
X154704266Y-115299500D01*
X153695734Y-115299500D01*
X153695730Y-115299500D01*
X153665300Y-115302353D01*
X153665298Y-115302353D01*
X153537119Y-115347206D01*
X153537117Y-115347207D01*
X153427850Y-115427850D01*
X153347207Y-115537117D01*
X153347206Y-115537119D01*
X153302353Y-115665298D01*
X153302353Y-115665300D01*
X153299500Y-115695730D01*
X153299500Y-116504269D01*
X153302353Y-116534699D01*
X153302353Y-116534701D01*
X153347206Y-116662880D01*
X153347207Y-116662882D01*
X153427850Y-116772150D01*
X153537118Y-116852793D01*
X153563096Y-116861883D01*
X153563099Y-116861884D01*
X153619875Y-116902605D01*
X153645622Y-116967558D01*
X153632166Y-117036120D01*
X153595030Y-117079243D01*
X153483070Y-117160587D01*
X153360588Y-117283069D01*
X153360588Y-117283070D01*
X153360586Y-117283072D01*
X153316859Y-117343256D01*
X153258768Y-117423211D01*
X153180128Y-117577552D01*
X153126597Y-117742302D01*
X153099500Y-117913389D01*
X153099500Y-119886610D01*
X153119413Y-120012341D01*
X153126598Y-120057701D01*
X153180127Y-120222445D01*
X153258768Y-120376788D01*
X153360586Y-120516928D01*
X153483072Y-120639414D01*
X153588177Y-120715777D01*
X153623213Y-120741233D01*
X153736524Y-120798967D01*
X153777555Y-120819873D01*
X153786813Y-120822881D01*
X153844488Y-120862313D01*
X153871691Y-120926669D01*
X153872500Y-120940813D01*
X153872500Y-121656884D01*
X153872500Y-121743116D01*
X153886775Y-121796389D01*
X153885112Y-121866239D01*
X153845950Y-121924102D01*
X153781721Y-121951606D01*
X153712819Y-121940020D01*
X153679319Y-121916164D01*
X151836819Y-120073664D01*
X151803334Y-120012341D01*
X151800500Y-119985983D01*
X151800500Y-117295730D01*
X151797646Y-117265300D01*
X151797646Y-117265298D01*
X151752793Y-117137119D01*
X151752792Y-117137117D01*
X151672150Y-117027850D01*
X151562882Y-116947207D01*
X151562819Y-116947185D01*
X151469961Y-116914692D01*
X151413186Y-116873970D01*
X151387439Y-116809017D01*
X151400896Y-116740455D01*
X151437282Y-116697883D01*
X151472150Y-116672150D01*
X151552793Y-116562882D01*
X151575219Y-116498790D01*
X151597646Y-116434701D01*
X151597646Y-116434699D01*
X151600500Y-116404269D01*
X151600500Y-115595730D01*
X151597646Y-115565300D01*
X151597646Y-115565298D01*
X151564006Y-115469163D01*
X151552793Y-115437118D01*
X151472150Y-115327850D01*
X151362882Y-115247207D01*
X151362880Y-115247206D01*
X151234700Y-115202353D01*
X151204270Y-115199500D01*
X151204266Y-115199500D01*
X150195734Y-115199500D01*
X150195730Y-115199500D01*
X150165300Y-115202353D01*
X150165298Y-115202353D01*
X150037119Y-115247206D01*
X150037117Y-115247207D01*
X149927850Y-115327850D01*
X149847207Y-115437117D01*
X149847206Y-115437119D01*
X149802353Y-115565298D01*
X149802353Y-115565300D01*
X149799500Y-115595730D01*
X149799500Y-116404269D01*
X149802353Y-116434699D01*
X149802353Y-116434701D01*
X149847206Y-116562880D01*
X149847207Y-116562882D01*
X149927850Y-116672150D01*
X149962715Y-116697881D01*
X150004966Y-116753527D01*
X150010425Y-116823183D01*
X149977359Y-116884733D01*
X149930038Y-116914692D01*
X149837117Y-116947207D01*
X149727850Y-117027850D01*
X149647207Y-117137117D01*
X149647206Y-117137119D01*
X149602353Y-117265298D01*
X149602353Y-117265300D01*
X149599500Y-117295730D01*
X149599500Y-120504269D01*
X149602353Y-120534699D01*
X149602353Y-120534701D01*
X149638994Y-120639411D01*
X149647207Y-120662882D01*
X149727850Y-120772150D01*
X149837118Y-120852793D01*
X149864325Y-120862313D01*
X149965299Y-120897646D01*
X149995730Y-120900500D01*
X149995734Y-120900500D01*
X151404270Y-120900500D01*
X151434699Y-120897646D01*
X151434701Y-120897646D01*
X151535675Y-120862313D01*
X151562882Y-120852793D01*
X151562884Y-120852791D01*
X151564897Y-120851728D01*
X151567353Y-120851228D01*
X151571653Y-120849724D01*
X151571858Y-120850312D01*
X151633365Y-120837804D01*
X151698492Y-120863108D01*
X151710521Y-120873676D01*
X156463181Y-125626336D01*
X156496666Y-125687659D01*
X156499500Y-125714017D01*
X156499500Y-125765891D01*
X156533608Y-125893187D01*
X156566554Y-125950250D01*
X156599500Y-126007314D01*
X156692686Y-126100500D01*
X156763030Y-126141113D01*
X156811245Y-126191680D01*
X156824467Y-126260288D01*
X156798499Y-126325152D01*
X156741585Y-126365680D01*
X156701029Y-126372500D01*
X128678186Y-126372500D01*
X128611147Y-126352815D01*
X128590505Y-126336181D01*
X125988432Y-123734108D01*
X138099500Y-123734108D01*
X138099500Y-123865891D01*
X138133608Y-123993187D01*
X138161377Y-124041284D01*
X138199500Y-124107314D01*
X138292686Y-124200500D01*
X138406814Y-124266392D01*
X138534108Y-124300500D01*
X138534110Y-124300500D01*
X138665890Y-124300500D01*
X138665892Y-124300500D01*
X138793186Y-124266392D01*
X138907314Y-124200500D01*
X139000500Y-124107314D01*
X139010785Y-124089500D01*
X139061352Y-124041284D01*
X139118172Y-124027500D01*
X139881828Y-124027500D01*
X139948867Y-124047185D01*
X139989215Y-124089500D01*
X139999500Y-124107314D01*
X140092686Y-124200500D01*
X140206814Y-124266392D01*
X140334108Y-124300500D01*
X140334110Y-124300500D01*
X140465890Y-124300500D01*
X140465892Y-124300500D01*
X140593186Y-124266392D01*
X140707314Y-124200500D01*
X140800500Y-124107314D01*
X140866392Y-123993186D01*
X140900500Y-123865892D01*
X140900500Y-123734108D01*
X140866392Y-123606814D01*
X140800500Y-123492686D01*
X140707314Y-123399500D01*
X140650250Y-123366554D01*
X140593187Y-123333608D01*
X140529539Y-123316554D01*
X140465892Y-123299500D01*
X140334108Y-123299500D01*
X140206812Y-123333608D01*
X140092686Y-123399500D01*
X140092683Y-123399502D01*
X139999502Y-123492683D01*
X139999498Y-123492689D01*
X139989215Y-123510500D01*
X139938648Y-123558716D01*
X139881828Y-123572500D01*
X139118172Y-123572500D01*
X139051133Y-123552815D01*
X139010785Y-123510500D01*
X139010775Y-123510482D01*
X139000500Y-123492686D01*
X138907314Y-123399500D01*
X138850250Y-123366554D01*
X138793187Y-123333608D01*
X138729539Y-123316554D01*
X138665892Y-123299500D01*
X138534108Y-123299500D01*
X138406812Y-123333608D01*
X138292686Y-123399500D01*
X138292683Y-123399502D01*
X138199502Y-123492683D01*
X138199500Y-123492686D01*
X138133608Y-123606812D01*
X138099500Y-123734108D01*
X125988432Y-123734108D01*
X119550054Y-117295730D01*
X138399500Y-117295730D01*
X138399500Y-120504269D01*
X138402353Y-120534699D01*
X138402353Y-120534701D01*
X138438994Y-120639411D01*
X138447207Y-120662882D01*
X138527850Y-120772150D01*
X138637118Y-120852793D01*
X138664325Y-120862313D01*
X138765299Y-120897646D01*
X138795730Y-120900500D01*
X138795734Y-120900500D01*
X140204270Y-120900500D01*
X140234699Y-120897646D01*
X140234701Y-120897646D01*
X140298790Y-120875219D01*
X140362882Y-120852793D01*
X140472150Y-120772150D01*
X140552793Y-120662882D01*
X140575219Y-120598790D01*
X140597646Y-120534701D01*
X140597646Y-120534699D01*
X140600500Y-120504269D01*
X140600500Y-117913389D01*
X143479500Y-117913389D01*
X143479500Y-119886610D01*
X143499413Y-120012341D01*
X143506598Y-120057701D01*
X143560127Y-120222445D01*
X143638768Y-120376788D01*
X143740586Y-120516928D01*
X143863072Y-120639414D01*
X144003212Y-120741232D01*
X144157555Y-120819873D01*
X144322299Y-120873402D01*
X144493389Y-120900500D01*
X144493390Y-120900500D01*
X144666610Y-120900500D01*
X144666611Y-120900500D01*
X144837701Y-120873402D01*
X145002445Y-120819873D01*
X145156788Y-120741232D01*
X145296928Y-120639414D01*
X145419414Y-120516928D01*
X145521232Y-120376788D01*
X145599873Y-120222445D01*
X145653402Y-120057701D01*
X145680500Y-119886611D01*
X145680500Y-117913389D01*
X145653402Y-117742299D01*
X145599873Y-117577555D01*
X145521232Y-117423212D01*
X145419414Y-117283072D01*
X145296928Y-117160586D01*
X145156788Y-117058768D01*
X145002445Y-116980127D01*
X144837701Y-116926598D01*
X144837699Y-116926597D01*
X144837698Y-116926597D01*
X144684624Y-116902353D01*
X144666611Y-116899500D01*
X144493389Y-116899500D01*
X144475376Y-116902353D01*
X144322302Y-116926597D01*
X144157552Y-116980128D01*
X144003211Y-117058768D01*
X143945774Y-117100499D01*
X143863072Y-117160586D01*
X143863070Y-117160588D01*
X143863069Y-117160588D01*
X143740588Y-117283069D01*
X143740588Y-117283070D01*
X143740586Y-117283072D01*
X143696859Y-117343256D01*
X143638768Y-117423211D01*
X143560128Y-117577552D01*
X143506597Y-117742302D01*
X143479500Y-117913389D01*
X140600500Y-117913389D01*
X140600500Y-117295730D01*
X140597646Y-117265300D01*
X140597646Y-117265298D01*
X140552793Y-117137119D01*
X140552792Y-117137117D01*
X140472150Y-117027850D01*
X140362882Y-116947207D01*
X140362880Y-116947206D01*
X140234700Y-116902353D01*
X140204270Y-116899500D01*
X140204266Y-116899500D01*
X138795734Y-116899500D01*
X138795730Y-116899500D01*
X138765300Y-116902353D01*
X138765298Y-116902353D01*
X138637119Y-116947206D01*
X138637117Y-116947207D01*
X138527850Y-117027850D01*
X138447207Y-117137117D01*
X138447206Y-117137119D01*
X138402353Y-117265298D01*
X138402353Y-117265300D01*
X138399500Y-117295730D01*
X119550054Y-117295730D01*
X117988432Y-115734108D01*
X132999500Y-115734108D01*
X132999500Y-115865891D01*
X133033608Y-115993187D01*
X133066554Y-116050250D01*
X133099500Y-116107314D01*
X133192686Y-116200500D01*
X133274101Y-116247505D01*
X133294464Y-116259262D01*
X133306814Y-116266392D01*
X133434108Y-116300500D01*
X133434110Y-116300500D01*
X133565890Y-116300500D01*
X133565892Y-116300500D01*
X133693186Y-116266392D01*
X133807314Y-116200500D01*
X133900500Y-116107314D01*
X133900502Y-116107309D01*
X133905335Y-116101013D01*
X133961763Y-116059811D01*
X134003710Y-116052500D01*
X140896290Y-116052500D01*
X140929534Y-116062261D01*
X140962897Y-116071908D01*
X140963138Y-116072128D01*
X140963329Y-116072185D01*
X140989666Y-116094910D01*
X140997543Y-116103925D01*
X140999500Y-116107314D01*
X141007458Y-116115272D01*
X141010200Y-116118410D01*
X141023169Y-116146501D01*
X141037990Y-116173642D01*
X141037683Y-116177934D01*
X141039488Y-116181844D01*
X141035212Y-116212482D01*
X141033006Y-116243334D01*
X141030324Y-116247505D01*
X141029831Y-116251044D01*
X141022769Y-116259262D01*
X141004505Y-116287681D01*
X140999502Y-116292683D01*
X140999500Y-116292686D01*
X140933608Y-116406812D01*
X140899500Y-116534108D01*
X140899500Y-116665891D01*
X140933608Y-116793187D01*
X140942748Y-116809017D01*
X140999500Y-116907314D01*
X141092686Y-117000500D01*
X141206814Y-117066392D01*
X141334108Y-117100500D01*
X141334110Y-117100500D01*
X141465890Y-117100500D01*
X141465892Y-117100500D01*
X141593186Y-117066392D01*
X141707314Y-117000500D01*
X141800500Y-116907314D01*
X141866392Y-116793186D01*
X141900500Y-116665892D01*
X141900500Y-116534108D01*
X141895175Y-116514235D01*
X141896838Y-116444387D01*
X141927267Y-116394464D01*
X142592866Y-115728868D01*
X142619440Y-115664712D01*
X142627500Y-115645253D01*
X142627500Y-107234748D01*
X147093990Y-107234748D01*
X147093990Y-107366532D01*
X147101132Y-107393186D01*
X147128098Y-107493827D01*
X147135885Y-107507314D01*
X147193990Y-107607954D01*
X147287176Y-107701140D01*
X147401304Y-107767032D01*
X147528598Y-107801140D01*
X147580473Y-107801140D01*
X147647512Y-107820825D01*
X147668154Y-107837459D01*
X148536181Y-108705486D01*
X148569666Y-108766809D01*
X148572500Y-108793167D01*
X148572500Y-110368324D01*
X148552815Y-110435363D01*
X148536181Y-110456005D01*
X148499502Y-110492683D01*
X148499500Y-110492686D01*
X148433608Y-110606812D01*
X148429066Y-110623764D01*
X148399500Y-110734108D01*
X148399500Y-110865892D01*
X148412453Y-110914233D01*
X148433608Y-110993187D01*
X148441475Y-111006812D01*
X148499500Y-111107314D01*
X148499502Y-111107316D01*
X148500858Y-111108672D01*
X148501635Y-111110096D01*
X148504447Y-111113760D01*
X148503875Y-111114198D01*
X148534343Y-111169995D01*
X148529359Y-111239687D01*
X148500860Y-111284033D01*
X148452498Y-111332396D01*
X148386606Y-111446522D01*
X148355662Y-111562010D01*
X148352498Y-111573818D01*
X148352498Y-111705602D01*
X148366003Y-111756005D01*
X148386606Y-111832897D01*
X148419552Y-111889960D01*
X148452498Y-111947024D01*
X148545684Y-112040210D01*
X148659812Y-112106102D01*
X148787106Y-112140210D01*
X148787108Y-112140210D01*
X148918888Y-112140210D01*
X148918890Y-112140210D01*
X149046184Y-112106102D01*
X149160312Y-112040210D01*
X149253498Y-111947024D01*
X149319390Y-111832896D01*
X149348279Y-111725079D01*
X149380369Y-111669497D01*
X151860819Y-109189048D01*
X151922142Y-109155563D01*
X151991834Y-109160547D01*
X152047767Y-109202419D01*
X152072184Y-109267883D01*
X152072500Y-109276729D01*
X152072500Y-110768324D01*
X152052815Y-110835363D01*
X152036181Y-110856005D01*
X151999502Y-110892683D01*
X151999500Y-110892686D01*
X151933608Y-111006812D01*
X151917778Y-111065892D01*
X151899500Y-111134108D01*
X151899500Y-111265892D01*
X151910733Y-111307814D01*
X151933608Y-111393187D01*
X151964402Y-111446522D01*
X151999500Y-111507314D01*
X152092686Y-111600500D01*
X152206814Y-111666392D01*
X152334108Y-111700500D01*
X152334110Y-111700500D01*
X152465890Y-111700500D01*
X152465892Y-111700500D01*
X152593186Y-111666392D01*
X152707314Y-111600500D01*
X152712319Y-111595495D01*
X152773642Y-111562010D01*
X152843334Y-111566994D01*
X152887681Y-111595495D01*
X152892686Y-111600500D01*
X153006814Y-111666392D01*
X153134108Y-111700500D01*
X153134110Y-111700500D01*
X153265890Y-111700500D01*
X153265892Y-111700500D01*
X153393186Y-111666392D01*
X153507314Y-111600500D01*
X153600500Y-111507314D01*
X153666392Y-111393186D01*
X153700500Y-111265892D01*
X153700500Y-111134108D01*
X153666392Y-111006814D01*
X153600500Y-110892686D01*
X153563819Y-110856005D01*
X153530334Y-110794682D01*
X153527500Y-110768324D01*
X153527500Y-108934108D01*
X161599500Y-108934108D01*
X161599500Y-109065891D01*
X161633608Y-109193187D01*
X161666554Y-109250250D01*
X161699500Y-109307314D01*
X161792686Y-109400500D01*
X161906814Y-109466392D01*
X162034108Y-109500500D01*
X162034110Y-109500500D01*
X162165890Y-109500500D01*
X162165892Y-109500500D01*
X162293186Y-109466392D01*
X162407314Y-109400500D01*
X162443995Y-109363819D01*
X162505318Y-109330334D01*
X162531676Y-109327500D01*
X166768324Y-109327500D01*
X166835363Y-109347185D01*
X166856005Y-109363819D01*
X166892686Y-109400500D01*
X167006814Y-109466392D01*
X167134108Y-109500500D01*
X167134110Y-109500500D01*
X167265890Y-109500500D01*
X167265892Y-109500500D01*
X167393186Y-109466392D01*
X167507314Y-109400500D01*
X167600500Y-109307314D01*
X167666392Y-109193186D01*
X167700500Y-109065892D01*
X167700500Y-108934108D01*
X167666392Y-108806814D01*
X167600500Y-108692686D01*
X167507314Y-108599500D01*
X167444153Y-108563034D01*
X167393187Y-108533608D01*
X167329539Y-108516554D01*
X167265892Y-108499500D01*
X167134108Y-108499500D01*
X167006812Y-108533608D01*
X166892686Y-108599500D01*
X166892683Y-108599502D01*
X166856005Y-108636181D01*
X166794682Y-108669666D01*
X166768324Y-108672500D01*
X162531676Y-108672500D01*
X162464637Y-108652815D01*
X162443995Y-108636181D01*
X162407316Y-108599502D01*
X162407314Y-108599500D01*
X162344153Y-108563034D01*
X162293187Y-108533608D01*
X162229539Y-108516554D01*
X162165892Y-108499500D01*
X162034108Y-108499500D01*
X161906812Y-108533608D01*
X161792686Y-108599500D01*
X161792683Y-108599502D01*
X161699502Y-108692683D01*
X161699500Y-108692686D01*
X161633608Y-108806812D01*
X161599500Y-108934108D01*
X153527500Y-108934108D01*
X153527500Y-106673544D01*
X153516799Y-106633608D01*
X153505181Y-106590249D01*
X153505181Y-106590248D01*
X153462065Y-106515569D01*
X153437450Y-106490954D01*
X153429884Y-106478742D01*
X153424261Y-106458352D01*
X153414127Y-106439793D01*
X153411293Y-106413435D01*
X153411293Y-106361562D01*
X153411293Y-106361560D01*
X153377185Y-106234266D01*
X153311293Y-106120138D01*
X153218107Y-106026952D01*
X153161043Y-105994006D01*
X153103980Y-105961060D01*
X153040332Y-105944006D01*
X152976685Y-105926952D01*
X152844901Y-105926952D01*
X152717605Y-105961060D01*
X152603479Y-106026952D01*
X152603476Y-106026954D01*
X152510295Y-106120135D01*
X152510293Y-106120138D01*
X152444401Y-106234264D01*
X152410293Y-106361560D01*
X152410293Y-106483938D01*
X152402447Y-106510657D01*
X152397829Y-106538120D01*
X152392739Y-106543718D01*
X152390608Y-106550977D01*
X152369565Y-106569210D01*
X152350830Y-106589820D01*
X152340848Y-106594094D01*
X152337804Y-106596732D01*
X152318385Y-106603713D01*
X152253777Y-106621024D01*
X152183928Y-106619361D01*
X152126065Y-106580198D01*
X152098562Y-106515969D01*
X152097685Y-106501249D01*
X152097685Y-105034108D01*
X182299500Y-105034108D01*
X182299500Y-105165891D01*
X182333608Y-105293187D01*
X182366554Y-105350250D01*
X182399500Y-105407314D01*
X182399502Y-105407316D01*
X182492686Y-105500500D01*
X182498987Y-105505335D01*
X182540189Y-105561763D01*
X182547500Y-105603710D01*
X182547500Y-113496289D01*
X182527815Y-113563328D01*
X182498992Y-113594661D01*
X182492684Y-113599501D01*
X182399502Y-113692683D01*
X182399500Y-113692686D01*
X182333608Y-113806812D01*
X182299500Y-113934108D01*
X182299500Y-114065891D01*
X182333608Y-114193187D01*
X182366554Y-114250250D01*
X182399500Y-114307314D01*
X182492686Y-114400500D01*
X182606814Y-114466392D01*
X182734108Y-114500500D01*
X182734110Y-114500500D01*
X182865890Y-114500500D01*
X182865892Y-114500500D01*
X182993186Y-114466392D01*
X183107314Y-114400500D01*
X183200500Y-114307314D01*
X183266392Y-114193186D01*
X183300500Y-114065892D01*
X183300500Y-113934108D01*
X183266392Y-113806814D01*
X183200500Y-113692686D01*
X183107314Y-113599500D01*
X183107312Y-113599499D01*
X183101008Y-113594661D01*
X183059808Y-113538231D01*
X183052500Y-113496289D01*
X183052500Y-105603710D01*
X183072185Y-105536671D01*
X183101013Y-105505335D01*
X183107309Y-105500502D01*
X183107314Y-105500500D01*
X183200500Y-105407314D01*
X183266392Y-105293186D01*
X183300500Y-105165892D01*
X183300500Y-105034108D01*
X183266392Y-104906814D01*
X183200500Y-104792686D01*
X183107314Y-104699500D01*
X183050250Y-104666554D01*
X182993187Y-104633608D01*
X182929539Y-104616554D01*
X182865892Y-104599500D01*
X182734108Y-104599500D01*
X182606812Y-104633608D01*
X182492686Y-104699500D01*
X182492683Y-104699502D01*
X182399502Y-104792683D01*
X182399500Y-104792686D01*
X182333608Y-104906812D01*
X182299500Y-105034108D01*
X152097685Y-105034108D01*
X152097685Y-102248203D01*
X152117370Y-102181164D01*
X152134004Y-102160522D01*
X152170685Y-102123841D01*
X152236577Y-102009713D01*
X152270685Y-101882419D01*
X152270685Y-101750635D01*
X152236577Y-101623341D01*
X152170685Y-101509213D01*
X152077499Y-101416027D01*
X152020435Y-101383081D01*
X151963372Y-101350135D01*
X151899724Y-101333081D01*
X151836077Y-101316027D01*
X151704293Y-101316027D01*
X151576997Y-101350135D01*
X151462871Y-101416027D01*
X151462868Y-101416029D01*
X151369687Y-101509210D01*
X151369685Y-101509213D01*
X151303793Y-101623339D01*
X151269685Y-101750635D01*
X151269685Y-101882418D01*
X151303793Y-102009714D01*
X151336739Y-102066777D01*
X151369685Y-102123841D01*
X151369687Y-102123843D01*
X151406366Y-102160522D01*
X151439851Y-102221845D01*
X151442685Y-102248203D01*
X151442685Y-108629509D01*
X151423000Y-108696548D01*
X151406366Y-108717190D01*
X149535692Y-110587863D01*
X149519471Y-110596720D01*
X149506263Y-110609647D01*
X149489442Y-110613117D01*
X149474369Y-110621348D01*
X149455935Y-110620029D01*
X149437834Y-110623764D01*
X149421807Y-110617589D01*
X149404677Y-110616364D01*
X149389882Y-110605288D01*
X149372637Y-110598644D01*
X149356585Y-110580362D01*
X149348744Y-110574492D01*
X149347950Y-110573420D01*
X149343981Y-110567998D01*
X149300500Y-110492686D01*
X149257071Y-110449257D01*
X149251439Y-110441562D01*
X149242689Y-110417309D01*
X149230334Y-110394682D01*
X149228554Y-110378127D01*
X149227728Y-110375838D01*
X149228122Y-110374113D01*
X149227500Y-110368324D01*
X149227500Y-108563035D01*
X149219615Y-108533608D01*
X149205181Y-108479740D01*
X149162065Y-108405060D01*
X149101090Y-108344085D01*
X148131309Y-107374304D01*
X148097824Y-107312981D01*
X148094990Y-107286623D01*
X148094990Y-107234750D01*
X148094990Y-107234748D01*
X148060882Y-107107454D01*
X147994990Y-106993326D01*
X147901804Y-106900140D01*
X147812585Y-106848629D01*
X147787677Y-106834248D01*
X147684771Y-106806675D01*
X147660382Y-106800140D01*
X147528598Y-106800140D01*
X147401302Y-106834248D01*
X147287176Y-106900140D01*
X147287173Y-106900142D01*
X147193992Y-106993323D01*
X147193990Y-106993326D01*
X147128098Y-107107452D01*
X147120956Y-107134108D01*
X147093990Y-107234748D01*
X142627500Y-107234748D01*
X142627500Y-95034108D01*
X148299500Y-95034108D01*
X148299500Y-95165892D01*
X148308505Y-95199500D01*
X148333608Y-95293187D01*
X148366554Y-95350250D01*
X148399500Y-95407314D01*
X148399502Y-95407316D01*
X148436181Y-95443995D01*
X148469666Y-95505318D01*
X148472500Y-95531676D01*
X148472500Y-98168324D01*
X148452815Y-98235363D01*
X148436181Y-98256005D01*
X148399502Y-98292683D01*
X148399500Y-98292686D01*
X148333608Y-98406812D01*
X148299500Y-98534108D01*
X148299500Y-98665891D01*
X148333608Y-98793187D01*
X148366554Y-98850250D01*
X148399500Y-98907314D01*
X148492686Y-99000500D01*
X148606814Y-99066392D01*
X148734108Y-99100500D01*
X148734110Y-99100500D01*
X148865890Y-99100500D01*
X148865892Y-99100500D01*
X148993186Y-99066392D01*
X149107314Y-99000500D01*
X149200500Y-98907314D01*
X149266392Y-98793186D01*
X149300500Y-98665892D01*
X149300500Y-98534108D01*
X149266392Y-98406814D01*
X149200500Y-98292686D01*
X149163819Y-98256005D01*
X149130334Y-98194682D01*
X149127500Y-98168324D01*
X149127500Y-97207108D01*
X155799500Y-97207108D01*
X155799500Y-97338891D01*
X155833608Y-97466187D01*
X155840738Y-97478536D01*
X155899500Y-97580314D01*
X155992686Y-97673500D01*
X156106814Y-97739392D01*
X156234108Y-97773500D01*
X156234110Y-97773500D01*
X156365891Y-97773500D01*
X156365892Y-97773500D01*
X156385760Y-97768176D01*
X156455608Y-97769837D01*
X156505536Y-97800269D01*
X160698132Y-101992866D01*
X160698134Y-101992868D01*
X160762801Y-102019652D01*
X160781747Y-102027500D01*
X160872253Y-102027500D01*
X163781828Y-102027500D01*
X163848867Y-102047185D01*
X163889215Y-102089500D01*
X163899500Y-102107314D01*
X163992686Y-102200500D01*
X164106814Y-102266392D01*
X164234108Y-102300500D01*
X164234110Y-102300500D01*
X164365890Y-102300500D01*
X164365892Y-102300500D01*
X164493186Y-102266392D01*
X164607314Y-102200500D01*
X164700500Y-102107314D01*
X164766392Y-101993186D01*
X164800500Y-101865892D01*
X164800500Y-101734108D01*
X164766392Y-101606814D01*
X164700500Y-101492686D01*
X164607314Y-101399500D01*
X164521812Y-101350135D01*
X164493187Y-101333608D01*
X164427572Y-101316027D01*
X164365892Y-101299500D01*
X164234108Y-101299500D01*
X164106812Y-101333608D01*
X163992686Y-101399500D01*
X163992683Y-101399502D01*
X163899502Y-101492683D01*
X163899498Y-101492689D01*
X163889215Y-101510500D01*
X163838648Y-101558716D01*
X163781828Y-101572500D01*
X160972596Y-101572500D01*
X160905557Y-101552815D01*
X160884915Y-101536181D01*
X158949231Y-99600497D01*
X156827268Y-97478535D01*
X156793784Y-97417213D01*
X156791157Y-97383685D01*
X156791890Y-97371021D01*
X156800500Y-97338892D01*
X156800500Y-97234108D01*
X161299500Y-97234108D01*
X161299500Y-97365891D01*
X161333608Y-97493187D01*
X161353419Y-97527500D01*
X161399500Y-97607314D01*
X161492686Y-97700500D01*
X161547419Y-97732100D01*
X161548628Y-97732798D01*
X161596844Y-97783365D01*
X161610067Y-97851972D01*
X161594015Y-97902185D01*
X161533609Y-98006810D01*
X161533609Y-98006811D01*
X161533609Y-98006812D01*
X161533608Y-98006814D01*
X161499500Y-98134108D01*
X161499500Y-98265892D01*
X161516554Y-98329539D01*
X161533608Y-98393187D01*
X161541475Y-98406812D01*
X161599500Y-98507314D01*
X161692686Y-98600500D01*
X161791521Y-98657563D01*
X161805944Y-98665890D01*
X161806814Y-98666392D01*
X161934108Y-98700500D01*
X161934110Y-98700500D01*
X162065890Y-98700500D01*
X162065892Y-98700500D01*
X162193186Y-98666392D01*
X162307314Y-98600500D01*
X162400500Y-98507314D01*
X162410785Y-98489500D01*
X162461352Y-98441284D01*
X162518172Y-98427500D01*
X162881828Y-98427500D01*
X162948867Y-98447185D01*
X162989215Y-98489500D01*
X162999500Y-98507314D01*
X163092686Y-98600500D01*
X163191521Y-98657563D01*
X163205944Y-98665890D01*
X163206814Y-98666392D01*
X163334108Y-98700500D01*
X163334110Y-98700500D01*
X163465890Y-98700500D01*
X163465892Y-98700500D01*
X163593186Y-98666392D01*
X163707314Y-98600500D01*
X163800500Y-98507314D01*
X163866392Y-98393186D01*
X163900500Y-98265892D01*
X163900500Y-98134108D01*
X163866392Y-98006814D01*
X163800500Y-97892686D01*
X163745495Y-97837681D01*
X163712010Y-97776358D01*
X163716994Y-97706666D01*
X163745495Y-97662319D01*
X163770042Y-97637772D01*
X163800500Y-97607314D01*
X163866392Y-97493186D01*
X163900500Y-97365892D01*
X163900500Y-97234108D01*
X163866392Y-97106814D01*
X163800500Y-96992686D01*
X163707314Y-96899500D01*
X163650250Y-96866554D01*
X163593187Y-96833608D01*
X163529539Y-96816554D01*
X163465892Y-96799500D01*
X163334108Y-96799500D01*
X163206812Y-96833608D01*
X163092686Y-96899500D01*
X163092683Y-96899502D01*
X162999502Y-96992683D01*
X162999498Y-96992689D01*
X162989215Y-97010500D01*
X162938648Y-97058716D01*
X162881828Y-97072500D01*
X162318172Y-97072500D01*
X162251133Y-97052815D01*
X162210785Y-97010500D01*
X162210775Y-97010482D01*
X162200500Y-96992686D01*
X162107314Y-96899500D01*
X162050250Y-96866554D01*
X161993187Y-96833608D01*
X161929539Y-96816554D01*
X161865892Y-96799500D01*
X161734108Y-96799500D01*
X161606812Y-96833608D01*
X161492686Y-96899500D01*
X161492683Y-96899502D01*
X161399502Y-96992683D01*
X161399500Y-96992686D01*
X161333608Y-97106812D01*
X161299500Y-97234108D01*
X156800500Y-97234108D01*
X156800500Y-97207108D01*
X156766392Y-97079814D01*
X156700500Y-96965686D01*
X156607314Y-96872500D01*
X156539951Y-96833608D01*
X156493187Y-96806608D01*
X156429539Y-96789554D01*
X156365892Y-96772500D01*
X156234108Y-96772500D01*
X156106812Y-96806608D01*
X155992686Y-96872500D01*
X155992683Y-96872502D01*
X155899502Y-96965683D01*
X155899500Y-96965686D01*
X155833608Y-97079812D01*
X155799500Y-97207108D01*
X149127500Y-97207108D01*
X149127500Y-95531676D01*
X149147185Y-95464637D01*
X149163819Y-95443995D01*
X149200500Y-95407314D01*
X149266392Y-95293186D01*
X149300500Y-95165892D01*
X149300500Y-95034108D01*
X149266392Y-94906814D01*
X149200500Y-94792686D01*
X149107314Y-94699500D01*
X149050250Y-94666554D01*
X148993187Y-94633608D01*
X148929539Y-94616554D01*
X148865892Y-94599500D01*
X148734108Y-94599500D01*
X148606812Y-94633608D01*
X148492686Y-94699500D01*
X148492683Y-94699502D01*
X148399502Y-94792683D01*
X148399500Y-94792686D01*
X148333608Y-94906812D01*
X148299500Y-95034108D01*
X142627500Y-95034108D01*
X142627500Y-94518172D01*
X142647185Y-94451133D01*
X142689501Y-94410784D01*
X142707314Y-94400500D01*
X142800500Y-94307314D01*
X142866392Y-94193186D01*
X142900500Y-94065892D01*
X142900500Y-93934108D01*
X142866392Y-93806814D01*
X142800500Y-93692686D01*
X142707314Y-93599500D01*
X142649188Y-93565941D01*
X142593187Y-93533608D01*
X142529539Y-93516554D01*
X142465892Y-93499500D01*
X142334108Y-93499500D01*
X142206812Y-93533608D01*
X142092686Y-93599500D01*
X142092683Y-93599502D01*
X141999502Y-93692683D01*
X141999500Y-93692686D01*
X141933608Y-93806812D01*
X141899500Y-93934108D01*
X141899500Y-94065891D01*
X141933608Y-94193187D01*
X141966554Y-94250250D01*
X141999500Y-94307314D01*
X141999502Y-94307316D01*
X142092686Y-94400500D01*
X142110499Y-94410784D01*
X142158715Y-94461351D01*
X142172500Y-94518172D01*
X142172500Y-115454404D01*
X142163855Y-115483841D01*
X142157332Y-115513832D01*
X142153576Y-115518848D01*
X142152815Y-115521443D01*
X142136185Y-115542080D01*
X142082536Y-115595730D01*
X142055717Y-115622549D01*
X141994393Y-115656033D01*
X141924702Y-115651048D01*
X141868768Y-115609177D01*
X141860649Y-115596867D01*
X141842424Y-115565300D01*
X141800500Y-115492686D01*
X141707314Y-115399500D01*
X141650250Y-115366554D01*
X141593187Y-115333608D01*
X141476543Y-115302354D01*
X141465892Y-115299500D01*
X141334108Y-115299500D01*
X141206812Y-115333608D01*
X141092686Y-115399500D01*
X141092683Y-115399502D01*
X140999499Y-115492686D01*
X140994665Y-115498987D01*
X140938237Y-115540189D01*
X140896290Y-115547500D01*
X134003710Y-115547500D01*
X133936671Y-115527815D01*
X133905335Y-115498987D01*
X133900500Y-115492686D01*
X133807316Y-115399502D01*
X133807314Y-115399500D01*
X133750250Y-115366554D01*
X133693187Y-115333608D01*
X133576543Y-115302354D01*
X133565892Y-115299500D01*
X133434108Y-115299500D01*
X133306812Y-115333608D01*
X133192686Y-115399500D01*
X133192683Y-115399502D01*
X133099502Y-115492683D01*
X133099500Y-115492686D01*
X133033608Y-115606812D01*
X132999500Y-115734108D01*
X117988432Y-115734108D01*
X117963819Y-115709495D01*
X117930334Y-115648172D01*
X117927500Y-115621814D01*
X117927500Y-112531676D01*
X117947185Y-112464637D01*
X117963819Y-112443995D01*
X118000500Y-112407314D01*
X118066392Y-112293186D01*
X118100500Y-112165892D01*
X118100500Y-112034108D01*
X118066392Y-111906814D01*
X118000500Y-111792686D01*
X117963819Y-111756005D01*
X117930334Y-111694682D01*
X117927500Y-111668324D01*
X117927500Y-106334108D01*
X129299500Y-106334108D01*
X129299500Y-106465892D01*
X129306856Y-106493344D01*
X129333608Y-106593187D01*
X129342111Y-106607914D01*
X129399500Y-106707314D01*
X129399502Y-106707316D01*
X129404505Y-106712319D01*
X129437990Y-106773642D01*
X129433006Y-106843334D01*
X129404505Y-106887681D01*
X129399502Y-106892683D01*
X129399500Y-106892686D01*
X129333608Y-107006812D01*
X129299500Y-107134108D01*
X129299500Y-107265891D01*
X129333608Y-107393187D01*
X129353419Y-107427500D01*
X129399500Y-107507314D01*
X129399502Y-107507316D01*
X129404505Y-107512319D01*
X129437990Y-107573642D01*
X129433006Y-107643334D01*
X129404505Y-107687681D01*
X129399502Y-107692683D01*
X129399500Y-107692686D01*
X129333608Y-107806812D01*
X129299500Y-107934108D01*
X129299500Y-108065891D01*
X129333608Y-108193187D01*
X129353419Y-108227500D01*
X129399500Y-108307314D01*
X129492686Y-108400500D01*
X129606814Y-108466392D01*
X129734108Y-108500500D01*
X129734110Y-108500500D01*
X129865890Y-108500500D01*
X129865892Y-108500500D01*
X129993186Y-108466392D01*
X130107314Y-108400500D01*
X130200500Y-108307314D01*
X130210785Y-108289500D01*
X130261352Y-108241284D01*
X130318172Y-108227500D01*
X136554405Y-108227500D01*
X136621444Y-108247185D01*
X136642086Y-108263819D01*
X139172729Y-110794463D01*
X139206214Y-110855786D01*
X139204824Y-110914233D01*
X139199500Y-110934102D01*
X139199500Y-110934108D01*
X139199500Y-111065892D01*
X139210963Y-111108672D01*
X139233608Y-111193187D01*
X139241171Y-111206286D01*
X139299500Y-111307314D01*
X139392686Y-111400500D01*
X139506814Y-111466392D01*
X139634108Y-111500500D01*
X139634110Y-111500500D01*
X139765890Y-111500500D01*
X139765892Y-111500500D01*
X139893186Y-111466392D01*
X140007314Y-111400500D01*
X140012319Y-111395495D01*
X140073642Y-111362010D01*
X140143334Y-111366994D01*
X140187681Y-111395495D01*
X140192686Y-111400500D01*
X140306814Y-111466392D01*
X140434108Y-111500500D01*
X140434110Y-111500500D01*
X140565890Y-111500500D01*
X140565892Y-111500500D01*
X140693186Y-111466392D01*
X140807314Y-111400500D01*
X140812319Y-111395495D01*
X140873642Y-111362010D01*
X140943334Y-111366994D01*
X140987681Y-111395495D01*
X140992686Y-111400500D01*
X141106814Y-111466392D01*
X141234108Y-111500500D01*
X141234110Y-111500500D01*
X141365890Y-111500500D01*
X141365892Y-111500500D01*
X141493186Y-111466392D01*
X141607314Y-111400500D01*
X141700500Y-111307314D01*
X141766392Y-111193186D01*
X141800500Y-111065892D01*
X141800500Y-110934108D01*
X141766392Y-110806814D01*
X141700500Y-110692686D01*
X141607314Y-110599500D01*
X141550250Y-110566554D01*
X141493187Y-110533608D01*
X141379551Y-110503160D01*
X141365892Y-110499500D01*
X141234108Y-110499500D01*
X141214234Y-110504825D01*
X141144384Y-110503160D01*
X141094463Y-110472730D01*
X136828870Y-106207136D01*
X136745253Y-106172500D01*
X130318172Y-106172500D01*
X130251133Y-106152815D01*
X130210785Y-106110500D01*
X130210775Y-106110482D01*
X130200500Y-106092686D01*
X130107314Y-105999500D01*
X130040734Y-105961060D01*
X129993187Y-105933608D01*
X129929539Y-105916554D01*
X129865892Y-105899500D01*
X129734108Y-105899500D01*
X129606812Y-105933608D01*
X129492686Y-105999500D01*
X129492683Y-105999502D01*
X129399502Y-106092683D01*
X129399500Y-106092686D01*
X129333608Y-106206812D01*
X129326252Y-106234266D01*
X129299500Y-106334108D01*
X117927500Y-106334108D01*
X117927500Y-101131676D01*
X117947185Y-101064637D01*
X117963819Y-101043995D01*
X118000500Y-101007314D01*
X118066392Y-100893186D01*
X118100500Y-100765892D01*
X118100500Y-100634108D01*
X118066392Y-100506814D01*
X118000500Y-100392686D01*
X117907314Y-100299500D01*
X117850250Y-100266554D01*
X117793187Y-100233608D01*
X117729539Y-100216554D01*
X117665892Y-100199500D01*
X117534108Y-100199500D01*
X117406812Y-100233608D01*
X117292686Y-100299500D01*
X117292683Y-100299502D01*
X117199502Y-100392683D01*
X117199500Y-100392686D01*
X117133608Y-100506812D01*
X117099500Y-100634108D01*
X117099500Y-100765891D01*
X117133608Y-100893187D01*
X117166554Y-100950250D01*
X117199500Y-101007314D01*
X117199502Y-101007316D01*
X117236181Y-101043995D01*
X117269666Y-101105318D01*
X117272500Y-101131676D01*
X117272500Y-111668324D01*
X117252815Y-111735363D01*
X117236181Y-111756005D01*
X117199502Y-111792683D01*
X117199500Y-111792686D01*
X117133608Y-111906812D01*
X117099500Y-112034108D01*
X117099500Y-112165891D01*
X117133608Y-112293187D01*
X117166554Y-112350250D01*
X117199500Y-112407314D01*
X117199502Y-112407316D01*
X117236181Y-112443995D01*
X117269666Y-112505318D01*
X117272500Y-112531676D01*
X117272500Y-115765715D01*
X117272500Y-115851947D01*
X117276237Y-115865892D01*
X117294819Y-115935241D01*
X117337934Y-116009919D01*
X117337936Y-116009922D01*
X128115833Y-126787819D01*
X128149318Y-126849142D01*
X128144334Y-126918834D01*
X128102462Y-126974767D01*
X128036998Y-126999184D01*
X128028152Y-126999500D01*
X116124500Y-126999500D01*
X116057461Y-126979815D01*
X116011706Y-126927011D01*
X116000500Y-126875500D01*
X116000500Y-68124500D01*
X116020185Y-68057461D01*
X116072989Y-68011706D01*
X116124500Y-68000500D01*
X127643049Y-68000500D01*
X127710088Y-68020185D01*
G37*
G04 #@! TD.AperFunction*
M02*
