G04 #@! TF.GenerationSoftware,KiCad,Pcbnew,8.0.6*
G04 #@! TF.CreationDate,2024-12-21T11:06:14+01:00*
G04 #@! TF.ProjectId,s3main,73336d61-696e-42e6-9b69-6361645f7063,A*
G04 #@! TF.SameCoordinates,Original*
G04 #@! TF.FileFunction,Legend,Bot*
G04 #@! TF.FilePolarity,Positive*
%FSLAX46Y46*%
G04 Gerber Fmt 4.6, Leading zero omitted, Abs format (unit mm)*
G04 Created by KiCad (PCBNEW 8.0.6) date 2024-12-21 11:06:14*
%MOMM*%
%LPD*%
G01*
G04 APERTURE LIST*
%ADD10C,0.150000*%
%ADD11C,0.120000*%
%ADD12C,0.000000*%
%ADD13C,0.010000*%
G04 APERTURE END LIST*
D10*
X144614700Y-120928571D02*
X144614700Y-122071429D01*
X141313871Y-121214284D02*
X141313871Y-122071427D01*
X141313871Y-121642856D02*
X142813871Y-121642856D01*
X142813871Y-121642856D02*
X142599585Y-121785713D01*
X142599585Y-121785713D02*
X142456728Y-121928570D01*
X142456728Y-121928570D02*
X142385300Y-122071427D01*
X142813871Y-120285713D02*
X142813871Y-120142856D01*
X142813871Y-120142856D02*
X142742442Y-119999999D01*
X142742442Y-119999999D02*
X142671014Y-119928571D01*
X142671014Y-119928571D02*
X142528157Y-119857142D01*
X142528157Y-119857142D02*
X142242442Y-119785713D01*
X142242442Y-119785713D02*
X141885300Y-119785713D01*
X141885300Y-119785713D02*
X141599585Y-119857142D01*
X141599585Y-119857142D02*
X141456728Y-119928571D01*
X141456728Y-119928571D02*
X141385300Y-119999999D01*
X141385300Y-119999999D02*
X141313871Y-120142856D01*
X141313871Y-120142856D02*
X141313871Y-120285713D01*
X141313871Y-120285713D02*
X141385300Y-120428571D01*
X141385300Y-120428571D02*
X141456728Y-120499999D01*
X141456728Y-120499999D02*
X141599585Y-120571428D01*
X141599585Y-120571428D02*
X141885300Y-120642856D01*
X141885300Y-120642856D02*
X142242442Y-120642856D01*
X142242442Y-120642856D02*
X142528157Y-120571428D01*
X142528157Y-120571428D02*
X142671014Y-120499999D01*
X142671014Y-120499999D02*
X142742442Y-120428571D01*
X142742442Y-120428571D02*
X142813871Y-120285713D01*
X141885300Y-119142857D02*
X141885300Y-118000000D01*
X142671014Y-117357142D02*
X142742442Y-117285714D01*
X142742442Y-117285714D02*
X142813871Y-117142857D01*
X142813871Y-117142857D02*
X142813871Y-116785714D01*
X142813871Y-116785714D02*
X142742442Y-116642857D01*
X142742442Y-116642857D02*
X142671014Y-116571428D01*
X142671014Y-116571428D02*
X142528157Y-116499999D01*
X142528157Y-116499999D02*
X142385300Y-116499999D01*
X142385300Y-116499999D02*
X142171014Y-116571428D01*
X142171014Y-116571428D02*
X141313871Y-117428571D01*
X141313871Y-117428571D02*
X141313871Y-116499999D01*
X142671014Y-115928571D02*
X142742442Y-115857143D01*
X142742442Y-115857143D02*
X142813871Y-115714286D01*
X142813871Y-115714286D02*
X142813871Y-115357143D01*
X142813871Y-115357143D02*
X142742442Y-115214286D01*
X142742442Y-115214286D02*
X142671014Y-115142857D01*
X142671014Y-115142857D02*
X142528157Y-115071428D01*
X142528157Y-115071428D02*
X142385300Y-115071428D01*
X142385300Y-115071428D02*
X142171014Y-115142857D01*
X142171014Y-115142857D02*
X141313871Y-116000000D01*
X141313871Y-116000000D02*
X141313871Y-115071428D01*
X142813871Y-114642857D02*
X141313871Y-114142857D01*
X141313871Y-114142857D02*
X142813871Y-113642857D01*
X142099585Y-113142858D02*
X142099585Y-112000001D01*
X141671014Y-112000001D02*
X141671014Y-113142858D01*
X140071428Y-121514700D02*
X138928571Y-121514700D01*
X139499999Y-122086128D02*
X139499999Y-120943271D01*
X153513871Y-121792857D02*
X155013871Y-121792857D01*
X155013871Y-121792857D02*
X155013871Y-121221428D01*
X155013871Y-121221428D02*
X154942442Y-121078571D01*
X154942442Y-121078571D02*
X154871014Y-121007142D01*
X154871014Y-121007142D02*
X154728157Y-120935714D01*
X154728157Y-120935714D02*
X154513871Y-120935714D01*
X154513871Y-120935714D02*
X154371014Y-121007142D01*
X154371014Y-121007142D02*
X154299585Y-121078571D01*
X154299585Y-121078571D02*
X154228157Y-121221428D01*
X154228157Y-121221428D02*
X154228157Y-121792857D01*
X151486128Y-120971428D02*
X149986128Y-120971428D01*
X149986128Y-120971428D02*
X151486128Y-121828571D01*
X151486128Y-121828571D02*
X149986128Y-121828571D01*
D11*
X153465000Y-114872936D02*
X153465000Y-115327064D01*
X154935000Y-114872936D02*
X154935000Y-115327064D01*
D12*
G36*
X151987398Y-116070510D02*
G01*
X151987417Y-116096445D01*
X151987603Y-116142812D01*
X151988044Y-116178615D01*
X151988811Y-116205171D01*
X151989970Y-116223795D01*
X151991591Y-116235805D01*
X151993741Y-116242517D01*
X151996491Y-116245247D01*
X151996709Y-116245323D01*
X152006300Y-116246817D01*
X152026143Y-116248821D01*
X152054140Y-116251158D01*
X152088194Y-116253653D01*
X152126210Y-116256129D01*
X152144246Y-116257058D01*
X152183898Y-116258373D01*
X152231948Y-116259289D01*
X152286495Y-116259826D01*
X152345640Y-116259999D01*
X152390409Y-116259874D01*
X152407483Y-116259826D01*
X152470125Y-116259325D01*
X152531664Y-116258513D01*
X152590202Y-116257407D01*
X152643838Y-116256024D01*
X152690673Y-116254382D01*
X152728806Y-116252498D01*
X152756337Y-116250390D01*
X152796972Y-116246222D01*
X152798634Y-116072742D01*
X152800296Y-115899262D01*
X152881467Y-115899262D01*
X152962638Y-115899262D01*
X152962638Y-116064927D01*
X152962638Y-116230593D01*
X153037413Y-116230593D01*
X153112188Y-116230593D01*
X153114192Y-116285294D01*
X153114393Y-116291498D01*
X153114852Y-116320291D01*
X153114795Y-116352973D01*
X153114291Y-116386811D01*
X153113412Y-116419074D01*
X153112227Y-116447030D01*
X153110806Y-116467946D01*
X153109220Y-116479092D01*
X153104826Y-116482477D01*
X153091766Y-116485029D01*
X153068833Y-116486459D01*
X153034727Y-116486906D01*
X152962638Y-116486906D01*
X152962638Y-116643195D01*
X152962638Y-116799483D01*
X153036728Y-116799483D01*
X153110817Y-116799483D01*
X153113660Y-116869813D01*
X153114245Y-116888547D01*
X153114669Y-116926968D01*
X153114252Y-116964923D01*
X153113026Y-116996406D01*
X153109549Y-117052670D01*
X153036094Y-117054432D01*
X152962638Y-117056193D01*
X152962638Y-117212283D01*
X152962638Y-117368373D01*
X153036728Y-117368373D01*
X153110817Y-117368373D01*
X153113660Y-117438703D01*
X153114245Y-117457437D01*
X153114669Y-117495857D01*
X153114252Y-117533813D01*
X153113026Y-117565296D01*
X153109549Y-117621560D01*
X153036094Y-117623322D01*
X152962638Y-117625083D01*
X152962638Y-117781173D01*
X152962638Y-117937263D01*
X153036728Y-117937263D01*
X153110817Y-117937263D01*
X153113660Y-118007593D01*
X153114245Y-118026327D01*
X153114669Y-118064747D01*
X153114252Y-118102703D01*
X153113026Y-118134186D01*
X153109549Y-118190450D01*
X153036087Y-118190450D01*
X152962624Y-118190450D01*
X152962631Y-118348302D01*
X152962638Y-118506153D01*
X153036837Y-118506153D01*
X153111036Y-118506153D01*
X153113831Y-118570231D01*
X153114220Y-118580559D01*
X153114947Y-118619170D01*
X153114843Y-118659824D01*
X153113905Y-118695262D01*
X153111184Y-118756214D01*
X153036911Y-118756214D01*
X152962638Y-118756214D01*
X152962638Y-118915629D01*
X152962638Y-119075043D01*
X153036911Y-119075043D01*
X153111184Y-119075043D01*
X153113905Y-119135995D01*
X153114282Y-119145889D01*
X153114964Y-119183701D01*
X153114812Y-119224500D01*
X153113831Y-119261026D01*
X153111036Y-119325104D01*
X153036837Y-119325104D01*
X152962638Y-119325104D01*
X152962631Y-119482956D01*
X152962624Y-119640807D01*
X153036087Y-119640807D01*
X153109549Y-119640807D01*
X153113026Y-119697071D01*
X153113784Y-119712816D01*
X153114579Y-119748523D01*
X153114547Y-119787475D01*
X153113660Y-119823665D01*
X153110817Y-119893994D01*
X153036728Y-119893994D01*
X152962638Y-119893994D01*
X152962638Y-120050085D01*
X152962638Y-120206175D01*
X153036094Y-120207936D01*
X153109549Y-120209697D01*
X153113026Y-120265961D01*
X153113784Y-120281706D01*
X153114579Y-120317413D01*
X153114547Y-120356365D01*
X153113660Y-120392555D01*
X153110817Y-120462884D01*
X153036728Y-120462884D01*
X152962638Y-120462884D01*
X152962638Y-120618975D01*
X152962638Y-120775065D01*
X153036094Y-120776826D01*
X153109549Y-120778587D01*
X153113026Y-120834851D01*
X153113784Y-120850596D01*
X153114579Y-120886303D01*
X153114547Y-120925255D01*
X153113660Y-120961445D01*
X153110817Y-121031774D01*
X153036728Y-121031774D01*
X152962638Y-121031774D01*
X152962638Y-121187864D01*
X152962638Y-121343955D01*
X153036094Y-121345716D01*
X153109549Y-121347477D01*
X153113026Y-121403741D01*
X153113784Y-121419486D01*
X153114579Y-121455193D01*
X153114547Y-121494145D01*
X153113660Y-121530335D01*
X153110817Y-121600664D01*
X153036728Y-121600664D01*
X152962638Y-121600664D01*
X152962638Y-121750701D01*
X152962638Y-121900738D01*
X152881475Y-121900738D01*
X152800313Y-121900738D01*
X152798643Y-121742887D01*
X152796972Y-121585036D01*
X152756337Y-121580821D01*
X152739402Y-121579402D01*
X152705364Y-121577500D01*
X152661982Y-121575817D01*
X152611133Y-121574371D01*
X152554690Y-121573179D01*
X152494531Y-121572259D01*
X152432529Y-121571629D01*
X152370561Y-121571306D01*
X152310501Y-121571307D01*
X152254225Y-121571651D01*
X152203608Y-121572355D01*
X152160527Y-121573437D01*
X152126855Y-121574913D01*
X152124988Y-121575024D01*
X152087156Y-121577441D01*
X152053336Y-121579900D01*
X152025648Y-121582224D01*
X152006208Y-121584238D01*
X151997135Y-121585763D01*
X151995824Y-121586461D01*
X151993066Y-121590165D01*
X151990971Y-121597812D01*
X151989452Y-121610829D01*
X151988423Y-121630641D01*
X151987795Y-121658675D01*
X151987483Y-121696359D01*
X151987398Y-121745119D01*
X151987398Y-121900738D01*
X151909254Y-121900738D01*
X151831110Y-121900738D01*
X151831110Y-121750701D01*
X151831110Y-121600664D01*
X151760161Y-121600664D01*
X151689213Y-121600664D01*
X151685304Y-121536586D01*
X151684788Y-121526834D01*
X151683768Y-121487537D01*
X151683942Y-121445545D01*
X151685309Y-121408430D01*
X151689224Y-121344351D01*
X151760167Y-121344351D01*
X151831110Y-121344351D01*
X151831110Y-121188063D01*
X151831110Y-121031774D01*
X151760161Y-121031774D01*
X151689213Y-121031774D01*
X151688511Y-121020265D01*
X151987398Y-121020265D01*
X151987398Y-121187891D01*
X151987429Y-121221706D01*
X151987634Y-121265310D01*
X151988098Y-121298649D01*
X151988898Y-121323090D01*
X151990110Y-121339999D01*
X151991811Y-121350742D01*
X151994076Y-121356685D01*
X151996983Y-121359195D01*
X152005816Y-121360700D01*
X152025067Y-121362736D01*
X152052542Y-121365099D01*
X152086094Y-121367605D01*
X152123576Y-121370069D01*
X152132197Y-121370552D01*
X152168997Y-121371965D01*
X152215166Y-121372992D01*
X152268717Y-121373649D01*
X152327661Y-121373950D01*
X152390010Y-121373910D01*
X152453775Y-121373544D01*
X152516969Y-121372866D01*
X152577603Y-121371893D01*
X152633688Y-121370639D01*
X152683238Y-121369118D01*
X152724263Y-121367346D01*
X152754774Y-121365337D01*
X152800098Y-121361426D01*
X152800098Y-121190770D01*
X152800095Y-121174723D01*
X152800003Y-121127287D01*
X152799723Y-121090553D01*
X152799166Y-121063125D01*
X152798244Y-121043610D01*
X152796870Y-121030613D01*
X152794956Y-121022738D01*
X152792415Y-121018592D01*
X152789158Y-121016780D01*
X152785626Y-121015998D01*
X152768873Y-121013977D01*
X152742074Y-121011880D01*
X152706976Y-121009775D01*
X152665325Y-121007731D01*
X152618868Y-121005816D01*
X152569352Y-121004098D01*
X152518525Y-121002647D01*
X152468132Y-121001529D01*
X152419922Y-121000815D01*
X152375640Y-121000573D01*
X152340826Y-121000739D01*
X152288426Y-121001482D01*
X152235172Y-121002744D01*
X152182974Y-121004443D01*
X152133739Y-121006497D01*
X152089376Y-121008822D01*
X152051791Y-121011337D01*
X152022893Y-121013960D01*
X152004590Y-121016607D01*
X151987398Y-121020265D01*
X151688511Y-121020265D01*
X151685304Y-120967696D01*
X151684788Y-120957944D01*
X151683768Y-120918647D01*
X151683942Y-120876655D01*
X151685309Y-120839540D01*
X151689224Y-120775461D01*
X151760167Y-120775461D01*
X151831110Y-120775461D01*
X151831110Y-120619173D01*
X151831110Y-120462884D01*
X151760161Y-120462884D01*
X151689213Y-120462884D01*
X151688519Y-120451514D01*
X151987199Y-120451514D01*
X151988862Y-120621278D01*
X151990524Y-120791043D01*
X152028033Y-120796753D01*
X152028188Y-120796776D01*
X152043345Y-120798066D01*
X152069465Y-120799213D01*
X152105037Y-120800213D01*
X152148546Y-120801063D01*
X152198480Y-120801759D01*
X152253327Y-120802298D01*
X152311573Y-120802677D01*
X152371706Y-120802892D01*
X152375640Y-120802895D01*
X152432213Y-120802940D01*
X152491580Y-120802818D01*
X152548296Y-120802522D01*
X152600847Y-120802049D01*
X152647720Y-120801396D01*
X152687403Y-120800559D01*
X152718382Y-120799535D01*
X152739146Y-120798321D01*
X152800098Y-120793049D01*
X152800098Y-120621999D01*
X152800098Y-120450948D01*
X152779781Y-120447443D01*
X152772552Y-120446414D01*
X152748877Y-120444154D01*
X152715582Y-120441873D01*
X152674632Y-120439647D01*
X152627989Y-120437552D01*
X152577619Y-120435666D01*
X152525483Y-120434066D01*
X152473545Y-120432827D01*
X152423770Y-120432027D01*
X152378119Y-120431742D01*
X152372745Y-120431747D01*
X152321271Y-120432174D01*
X152267285Y-120433236D01*
X152212932Y-120434840D01*
X152160358Y-120436892D01*
X152111707Y-120439300D01*
X152069124Y-120441969D01*
X152034754Y-120444807D01*
X152010742Y-120447720D01*
X151987199Y-120451514D01*
X151688519Y-120451514D01*
X151685304Y-120398806D01*
X151684788Y-120389054D01*
X151683768Y-120349757D01*
X151683942Y-120307765D01*
X151685309Y-120270650D01*
X151689224Y-120206571D01*
X151760167Y-120206571D01*
X151831110Y-120206571D01*
X151831110Y-120050283D01*
X151831110Y-119893994D01*
X151760161Y-119893994D01*
X151689213Y-119893994D01*
X151688542Y-119882987D01*
X151987200Y-119882987D01*
X151988862Y-120052519D01*
X151990524Y-120222051D01*
X152021782Y-120227748D01*
X152027689Y-120228460D01*
X152047230Y-120229638D01*
X152076991Y-120230683D01*
X152115505Y-120231592D01*
X152161305Y-120232362D01*
X152212925Y-120232989D01*
X152268898Y-120233469D01*
X152327758Y-120233799D01*
X152378119Y-120233947D01*
X152388037Y-120233976D01*
X152448270Y-120233996D01*
X152506990Y-120233855D01*
X152562729Y-120233551D01*
X152614023Y-120233080D01*
X152659402Y-120232438D01*
X152697403Y-120231622D01*
X152726556Y-120230628D01*
X152745397Y-120229453D01*
X152800098Y-120224204D01*
X152800098Y-120053576D01*
X152800098Y-119882949D01*
X152782906Y-119879398D01*
X152778813Y-119878854D01*
X152762464Y-119877548D01*
X152736149Y-119875929D01*
X152701511Y-119874084D01*
X152660195Y-119872097D01*
X152613847Y-119870054D01*
X152564109Y-119868041D01*
X152531196Y-119866812D01*
X152466566Y-119864771D01*
X152409593Y-119863629D01*
X152356970Y-119863385D01*
X152305392Y-119864039D01*
X152251551Y-119865593D01*
X152192142Y-119868045D01*
X152146396Y-119870242D01*
X152103982Y-119872466D01*
X152066759Y-119874607D01*
X152036552Y-119876554D01*
X152015188Y-119878195D01*
X152004491Y-119879421D01*
X151987200Y-119882987D01*
X151688542Y-119882987D01*
X151685304Y-119829916D01*
X151684788Y-119820164D01*
X151683768Y-119780867D01*
X151683942Y-119738875D01*
X151685309Y-119701760D01*
X151689224Y-119637681D01*
X151760167Y-119637681D01*
X151831110Y-119637681D01*
X151831110Y-119481393D01*
X151831110Y-119325104D01*
X151760167Y-119325104D01*
X151689224Y-119325104D01*
X151688559Y-119314237D01*
X151987398Y-119314237D01*
X151987398Y-119484608D01*
X151987398Y-119654979D01*
X152029488Y-119659487D01*
X152051703Y-119661482D01*
X152094882Y-119664118D01*
X152147358Y-119666239D01*
X152207198Y-119667847D01*
X152272466Y-119668940D01*
X152341228Y-119669521D01*
X152356970Y-119669536D01*
X152411549Y-119669590D01*
X152481496Y-119669146D01*
X152549134Y-119668192D01*
X152612527Y-119666726D01*
X152669742Y-119664751D01*
X152718845Y-119662266D01*
X152757900Y-119659272D01*
X152800098Y-119655167D01*
X152800098Y-119484702D01*
X152800098Y-119314237D01*
X152776655Y-119310423D01*
X152772650Y-119309937D01*
X152755573Y-119308610D01*
X152728518Y-119306996D01*
X152693214Y-119305181D01*
X152651388Y-119303250D01*
X152604772Y-119301290D01*
X152555093Y-119299388D01*
X152496925Y-119297717D01*
X152434035Y-119296733D01*
X152369133Y-119296432D01*
X152304034Y-119296778D01*
X152240550Y-119297734D01*
X152180496Y-119299264D01*
X152125684Y-119301330D01*
X152077929Y-119303897D01*
X152039043Y-119306927D01*
X152010841Y-119310384D01*
X151987398Y-119314237D01*
X151688559Y-119314237D01*
X151685260Y-119260314D01*
X151684663Y-119248866D01*
X151683688Y-119210312D01*
X151683884Y-119170100D01*
X151685253Y-119135284D01*
X151689210Y-119075043D01*
X151760160Y-119075043D01*
X151831110Y-119075043D01*
X151831110Y-118915629D01*
X151831110Y-118756214D01*
X151760160Y-118756214D01*
X151689210Y-118756214D01*
X151688495Y-118745322D01*
X151987398Y-118745322D01*
X151987398Y-118915629D01*
X151987398Y-119085935D01*
X152017093Y-119089841D01*
X152020828Y-119090315D01*
X152056729Y-119093771D01*
X152102892Y-119096726D01*
X152157334Y-119099142D01*
X152218075Y-119100979D01*
X152283133Y-119102199D01*
X152350527Y-119102764D01*
X152369133Y-119102729D01*
X152418275Y-119102635D01*
X152484397Y-119101774D01*
X152546911Y-119100142D01*
X152564917Y-119099521D01*
X152613681Y-119097719D01*
X152659072Y-119095875D01*
X152699264Y-119094072D01*
X152732433Y-119092396D01*
X152756754Y-119090931D01*
X152770403Y-119089762D01*
X152800098Y-119085935D01*
X152800098Y-118915629D01*
X152800098Y-118745322D01*
X152770403Y-118741441D01*
X152766707Y-118741042D01*
X152748898Y-118739739D01*
X152721088Y-118738170D01*
X152685097Y-118736420D01*
X152642746Y-118734574D01*
X152595854Y-118732718D01*
X152546242Y-118730937D01*
X152484147Y-118729296D01*
X152417042Y-118728410D01*
X152348429Y-118728290D01*
X152280308Y-118728896D01*
X152214680Y-118730189D01*
X152153543Y-118732129D01*
X152098900Y-118734676D01*
X152052750Y-118737791D01*
X152017093Y-118741434D01*
X151987398Y-118745322D01*
X151688495Y-118745322D01*
X151685253Y-118695974D01*
X151684657Y-118685210D01*
X151683686Y-118647774D01*
X151683887Y-118607334D01*
X151685260Y-118570943D01*
X151689224Y-118506153D01*
X151760167Y-118506153D01*
X151831110Y-118506153D01*
X151831110Y-118350069D01*
X151831110Y-118193986D01*
X151760780Y-118192218D01*
X151690450Y-118190450D01*
X151689243Y-118176436D01*
X151987398Y-118176436D01*
X151987398Y-118346696D01*
X151987398Y-118516957D01*
X152016369Y-118520927D01*
X152047058Y-118524328D01*
X152092940Y-118527753D01*
X152147683Y-118530540D01*
X152209330Y-118532651D01*
X152275923Y-118534045D01*
X152345505Y-118534683D01*
X152348429Y-118534677D01*
X152416118Y-118534527D01*
X152485805Y-118533537D01*
X152552607Y-118531673D01*
X152577747Y-118530752D01*
X152626417Y-118528840D01*
X152671166Y-118526917D01*
X152710279Y-118525066D01*
X152742042Y-118523370D01*
X152764739Y-118521914D01*
X152776655Y-118520780D01*
X152800098Y-118517058D01*
X152800098Y-118346574D01*
X152800098Y-118176090D01*
X152757900Y-118172030D01*
X152739584Y-118170450D01*
X152692886Y-118167500D01*
X152637376Y-118165117D01*
X152574989Y-118163301D01*
X152507662Y-118162051D01*
X152437332Y-118161367D01*
X152365936Y-118161247D01*
X152295411Y-118161691D01*
X152227693Y-118162698D01*
X152164718Y-118164267D01*
X152108424Y-118166397D01*
X152060747Y-118169088D01*
X152023624Y-118172338D01*
X151987398Y-118176436D01*
X151689243Y-118176436D01*
X151686142Y-118140438D01*
X151684953Y-118120405D01*
X151684185Y-118086904D01*
X151684333Y-118049723D01*
X151685425Y-118013844D01*
X151688499Y-117948318D01*
X151987200Y-117948318D01*
X152007617Y-117951760D01*
X152017193Y-117952805D01*
X152038210Y-117954421D01*
X152068132Y-117956372D01*
X152105049Y-117958543D01*
X152147047Y-117960816D01*
X152192215Y-117963073D01*
X152225835Y-117964597D01*
X152279016Y-117966527D01*
X152329129Y-117967590D01*
X152365936Y-117967735D01*
X152379280Y-117967787D01*
X152432580Y-117967117D01*
X152492135Y-117965583D01*
X152561056Y-117963186D01*
X152590818Y-117962027D01*
X152639133Y-117960013D01*
X152683101Y-117958016D01*
X152721092Y-117956120D01*
X152751476Y-117954408D01*
X152772624Y-117952963D01*
X152782906Y-117951869D01*
X152800098Y-117948308D01*
X152800098Y-117777681D01*
X152800098Y-117607054D01*
X152745397Y-117601804D01*
X152736272Y-117601128D01*
X152711511Y-117600054D01*
X152677253Y-117599160D01*
X152634965Y-117598441D01*
X152586113Y-117597894D01*
X152532165Y-117597517D01*
X152474586Y-117597304D01*
X152414843Y-117597253D01*
X152354403Y-117597361D01*
X152294733Y-117597624D01*
X152237298Y-117598038D01*
X152183567Y-117598600D01*
X152135005Y-117599306D01*
X152093078Y-117600154D01*
X152059255Y-117601140D01*
X152035000Y-117602259D01*
X152021782Y-117603509D01*
X151990524Y-117609207D01*
X151988862Y-117778762D01*
X151987200Y-117948318D01*
X151688499Y-117948318D01*
X151689018Y-117937263D01*
X151760064Y-117937263D01*
X151831110Y-117937263D01*
X151831110Y-117780975D01*
X151831110Y-117624686D01*
X151760161Y-117624686D01*
X151689213Y-117624686D01*
X151685304Y-117560608D01*
X151684788Y-117550856D01*
X151683768Y-117511559D01*
X151683942Y-117469567D01*
X151685309Y-117432451D01*
X151688529Y-117379743D01*
X151987199Y-117379743D01*
X152010742Y-117383573D01*
X152017695Y-117384572D01*
X152044154Y-117387282D01*
X152080156Y-117389941D01*
X152123541Y-117392455D01*
X152172150Y-117394729D01*
X152223824Y-117396670D01*
X152276403Y-117398182D01*
X152327728Y-117399171D01*
X152375640Y-117399542D01*
X152407128Y-117399400D01*
X152414843Y-117399292D01*
X152453425Y-117398750D01*
X152503144Y-117397646D01*
X152554294Y-117396166D01*
X152604884Y-117394388D01*
X152652925Y-117392389D01*
X152696425Y-117390247D01*
X152733395Y-117388041D01*
X152761843Y-117385847D01*
X152779781Y-117383744D01*
X152800098Y-117380310D01*
X152800098Y-117209259D01*
X152800098Y-117038208D01*
X152739146Y-117032936D01*
X152738873Y-117032913D01*
X152717849Y-117031696D01*
X152686649Y-117030669D01*
X152646785Y-117029829D01*
X152599769Y-117029173D01*
X152547113Y-117028697D01*
X152490328Y-117028399D01*
X152430927Y-117028275D01*
X152370421Y-117028322D01*
X152310323Y-117028536D01*
X152252143Y-117028915D01*
X152197395Y-117029455D01*
X152147589Y-117030153D01*
X152104238Y-117031005D01*
X152068854Y-117032009D01*
X152042948Y-117033161D01*
X152028033Y-117034458D01*
X151990524Y-117040215D01*
X151988862Y-117209979D01*
X151987199Y-117379743D01*
X151688529Y-117379743D01*
X151689224Y-117368373D01*
X151760167Y-117368373D01*
X151831110Y-117368373D01*
X151831110Y-117212085D01*
X151831110Y-117055796D01*
X151760161Y-117055796D01*
X151689213Y-117055796D01*
X151685304Y-116991718D01*
X151684788Y-116981966D01*
X151683768Y-116942669D01*
X151683942Y-116900677D01*
X151685309Y-116863561D01*
X151688523Y-116810949D01*
X151987199Y-116810949D01*
X152004490Y-116814665D01*
X152019325Y-116816892D01*
X152046405Y-116819441D01*
X152082451Y-116821912D01*
X152125574Y-116824224D01*
X152173886Y-116826298D01*
X152225497Y-116828054D01*
X152278520Y-116829411D01*
X152331065Y-116830291D01*
X152381245Y-116830612D01*
X152422606Y-116830399D01*
X152430927Y-116830279D01*
X152471391Y-116829697D01*
X152522358Y-116828574D01*
X152573671Y-116827103D01*
X152623495Y-116825353D01*
X152669994Y-116823397D01*
X152711333Y-116821305D01*
X152745676Y-116819148D01*
X152771187Y-116816998D01*
X152786032Y-116814925D01*
X152800098Y-116811748D01*
X152800098Y-116640566D01*
X152800098Y-116469385D01*
X152726643Y-116464080D01*
X152722197Y-116463785D01*
X152695774Y-116462598D01*
X152659725Y-116461618D01*
X152615630Y-116460840D01*
X152565070Y-116460261D01*
X152509627Y-116459876D01*
X152450879Y-116459681D01*
X152390409Y-116459673D01*
X152329796Y-116459847D01*
X152270621Y-116460199D01*
X152214465Y-116460725D01*
X152162908Y-116461422D01*
X152117531Y-116462286D01*
X152079914Y-116463311D01*
X152051639Y-116464495D01*
X152034285Y-116465833D01*
X151990524Y-116471277D01*
X151988862Y-116641113D01*
X151987199Y-116810949D01*
X151688523Y-116810949D01*
X151689224Y-116799483D01*
X151760167Y-116799483D01*
X151831110Y-116799483D01*
X151831110Y-116643195D01*
X151831110Y-116486906D01*
X151760167Y-116486906D01*
X151689224Y-116486906D01*
X151685309Y-116422828D01*
X151684793Y-116413076D01*
X151683769Y-116373779D01*
X151683939Y-116331787D01*
X151685304Y-116294671D01*
X151689213Y-116230593D01*
X151760161Y-116230593D01*
X151831110Y-116230593D01*
X151831110Y-116064927D01*
X151831110Y-115899262D01*
X151909254Y-115899262D01*
X151987398Y-115899262D01*
X151987398Y-116070510D01*
G37*
D13*
X134345440Y-85111388D02*
X134456022Y-85295816D01*
X134543538Y-85582262D01*
X134586934Y-85893039D01*
X134570595Y-86155732D01*
X134506862Y-86359891D01*
X134400928Y-86611311D01*
X134344000Y-86733043D01*
X134333708Y-86820899D01*
X134412616Y-86840327D01*
X134414849Y-86840345D01*
X134490183Y-86881484D01*
X134528797Y-87023363D01*
X134539672Y-87298360D01*
X134539672Y-87756393D01*
X130542295Y-87756393D01*
X130542295Y-86840327D01*
X133298445Y-86840327D01*
X133509496Y-86612599D01*
X133569478Y-86541453D01*
X133671960Y-86329532D01*
X133676067Y-86068559D01*
X133585636Y-85713213D01*
X133579910Y-85593426D01*
X133667636Y-85452907D01*
X133876147Y-85265873D01*
X133991483Y-85175146D01*
X134154333Y-85067848D01*
X134257993Y-85051311D01*
X134345440Y-85111388D01*
G36*
X134345440Y-85111388D02*
G01*
X134456022Y-85295816D01*
X134543538Y-85582262D01*
X134586934Y-85893039D01*
X134570595Y-86155732D01*
X134506862Y-86359891D01*
X134400928Y-86611311D01*
X134344000Y-86733043D01*
X134333708Y-86820899D01*
X134412616Y-86840327D01*
X134414849Y-86840345D01*
X134490183Y-86881484D01*
X134528797Y-87023363D01*
X134539672Y-87298360D01*
X134539672Y-87756393D01*
X130542295Y-87756393D01*
X130542295Y-86840327D01*
X133298445Y-86840327D01*
X133509496Y-86612599D01*
X133569478Y-86541453D01*
X133671960Y-86329532D01*
X133676067Y-86068559D01*
X133585636Y-85713213D01*
X133579910Y-85593426D01*
X133667636Y-85452907D01*
X133876147Y-85265873D01*
X133991483Y-85175146D01*
X134154333Y-85067848D01*
X134257993Y-85051311D01*
X134345440Y-85111388D01*
G37*
X128138515Y-86167375D02*
X128231966Y-86349636D01*
X128295081Y-86669786D01*
X128297148Y-87030638D01*
X128238924Y-87368640D01*
X128121169Y-87620244D01*
X127948567Y-87839672D01*
X128121169Y-87839672D01*
X128186704Y-87845139D01*
X128256186Y-87896016D01*
X128286875Y-88033601D01*
X128293771Y-88297704D01*
X128293771Y-88755737D01*
X124213115Y-88755737D01*
X124213115Y-87839672D01*
X125541656Y-87839672D01*
X125617925Y-87839562D01*
X126154063Y-87831747D01*
X126590788Y-87812568D01*
X126905770Y-87783393D01*
X127076683Y-87745590D01*
X127141202Y-87710879D01*
X127343560Y-87497201D01*
X127433134Y-87206148D01*
X127391346Y-86888333D01*
X127363024Y-86810378D01*
X127312963Y-86644312D01*
X127328509Y-86530815D01*
X127430267Y-86416611D01*
X127638843Y-86248425D01*
X127983260Y-85975642D01*
X128138515Y-86167375D01*
G36*
X128138515Y-86167375D02*
G01*
X128231966Y-86349636D01*
X128295081Y-86669786D01*
X128297148Y-87030638D01*
X128238924Y-87368640D01*
X128121169Y-87620244D01*
X127948567Y-87839672D01*
X128121169Y-87839672D01*
X128186704Y-87845139D01*
X128256186Y-87896016D01*
X128286875Y-88033601D01*
X128293771Y-88297704D01*
X128293771Y-88755737D01*
X124213115Y-88755737D01*
X124213115Y-87839672D01*
X125541656Y-87839672D01*
X125617925Y-87839562D01*
X126154063Y-87831747D01*
X126590788Y-87812568D01*
X126905770Y-87783393D01*
X127076683Y-87745590D01*
X127141202Y-87710879D01*
X127343560Y-87497201D01*
X127433134Y-87206148D01*
X127391346Y-86888333D01*
X127363024Y-86810378D01*
X127312963Y-86644312D01*
X127328509Y-86530815D01*
X127430267Y-86416611D01*
X127638843Y-86248425D01*
X127983260Y-85975642D01*
X128138515Y-86167375D01*
G37*
X128065913Y-102086680D02*
X128173227Y-102239399D01*
X128248542Y-102480428D01*
X128286774Y-102775474D01*
X128282838Y-103090246D01*
X128231650Y-103390453D01*
X128128126Y-103641803D01*
X128079785Y-103721474D01*
X128009032Y-103855599D01*
X128025234Y-103905249D01*
X128128437Y-103912459D01*
X128165490Y-103914149D01*
X128247564Y-103954325D01*
X128284921Y-104078950D01*
X128293771Y-104328852D01*
X128293771Y-104745245D01*
X124213115Y-104745245D01*
X124213115Y-103912459D01*
X125498513Y-103912459D01*
X125797509Y-103911537D01*
X126292718Y-103902067D01*
X126659333Y-103878095D01*
X126922697Y-103834418D01*
X127108153Y-103765835D01*
X127241042Y-103667147D01*
X127346708Y-103533151D01*
X127425445Y-103386871D01*
X127447769Y-103213656D01*
X127398125Y-102967303D01*
X127377456Y-102888135D01*
X127346350Y-102690525D01*
X127390920Y-102549224D01*
X127528865Y-102385456D01*
X127558864Y-102354379D01*
X127744446Y-102182563D01*
X127895335Y-102071762D01*
X127931685Y-102056562D01*
X128065913Y-102086680D01*
G36*
X128065913Y-102086680D02*
G01*
X128173227Y-102239399D01*
X128248542Y-102480428D01*
X128286774Y-102775474D01*
X128282838Y-103090246D01*
X128231650Y-103390453D01*
X128128126Y-103641803D01*
X128079785Y-103721474D01*
X128009032Y-103855599D01*
X128025234Y-103905249D01*
X128128437Y-103912459D01*
X128165490Y-103914149D01*
X128247564Y-103954325D01*
X128284921Y-104078950D01*
X128293771Y-104328852D01*
X128293771Y-104745245D01*
X124213115Y-104745245D01*
X124213115Y-103912459D01*
X125498513Y-103912459D01*
X125797509Y-103911537D01*
X126292718Y-103902067D01*
X126659333Y-103878095D01*
X126922697Y-103834418D01*
X127108153Y-103765835D01*
X127241042Y-103667147D01*
X127346708Y-103533151D01*
X127425445Y-103386871D01*
X127447769Y-103213656D01*
X127398125Y-102967303D01*
X127377456Y-102888135D01*
X127346350Y-102690525D01*
X127390920Y-102549224D01*
X127528865Y-102385456D01*
X127558864Y-102354379D01*
X127744446Y-102182563D01*
X127895335Y-102071762D01*
X127931685Y-102056562D01*
X128065913Y-102086680D01*
G37*
X134539672Y-89421967D02*
X133243378Y-89421967D01*
X132660209Y-89428991D01*
X132189218Y-89456490D01*
X131846879Y-89512197D01*
X131614010Y-89603832D01*
X131471426Y-89739111D01*
X131399944Y-89925753D01*
X131380379Y-90171475D01*
X131397840Y-90406091D01*
X131466190Y-90595577D01*
X131604659Y-90733304D01*
X131832428Y-90826991D01*
X132168681Y-90884354D01*
X132632604Y-90913112D01*
X133243378Y-90920983D01*
X134539672Y-90920983D01*
X134539672Y-91753770D01*
X132976898Y-91753770D01*
X132559764Y-91752341D01*
X132020347Y-91741238D01*
X131608971Y-91713376D01*
X131302087Y-91662008D01*
X131076144Y-91580384D01*
X130907593Y-91461755D01*
X130772884Y-91299373D01*
X130648469Y-91086490D01*
X130490968Y-90639452D01*
X130480692Y-90172903D01*
X130625736Y-89733029D01*
X130719758Y-89541106D01*
X130733813Y-89445891D01*
X130667375Y-89421967D01*
X130592778Y-89382243D01*
X130553484Y-89240058D01*
X130542295Y-88963934D01*
X130542295Y-88505901D01*
X134539672Y-88505901D01*
X134539672Y-89421967D01*
G36*
X134539672Y-89421967D02*
G01*
X133243378Y-89421967D01*
X132660209Y-89428991D01*
X132189218Y-89456490D01*
X131846879Y-89512197D01*
X131614010Y-89603832D01*
X131471426Y-89739111D01*
X131399944Y-89925753D01*
X131380379Y-90171475D01*
X131397840Y-90406091D01*
X131466190Y-90595577D01*
X131604659Y-90733304D01*
X131832428Y-90826991D01*
X132168681Y-90884354D01*
X132632604Y-90913112D01*
X133243378Y-90920983D01*
X134539672Y-90920983D01*
X134539672Y-91753770D01*
X132976898Y-91753770D01*
X132559764Y-91752341D01*
X132020347Y-91741238D01*
X131608971Y-91713376D01*
X131302087Y-91662008D01*
X131076144Y-91580384D01*
X130907593Y-91461755D01*
X130772884Y-91299373D01*
X130648469Y-91086490D01*
X130490968Y-90639452D01*
X130480692Y-90172903D01*
X130625736Y-89733029D01*
X130719758Y-89541106D01*
X130733813Y-89445891D01*
X130667375Y-89421967D01*
X130592778Y-89382243D01*
X130553484Y-89240058D01*
X130542295Y-88963934D01*
X130542295Y-88505901D01*
X134539672Y-88505901D01*
X134539672Y-89421967D01*
G37*
X132020492Y-101665763D02*
X132086335Y-101665887D01*
X132715105Y-101673830D01*
X133203534Y-101698229D01*
X133575375Y-101745354D01*
X133854378Y-101821476D01*
X134064295Y-101932864D01*
X134228878Y-102085788D01*
X134371876Y-102286520D01*
X134470875Y-102493784D01*
X134560818Y-102911197D01*
X134547553Y-103345454D01*
X134428278Y-103725081D01*
X134347211Y-103892465D01*
X134338838Y-103976650D01*
X134412616Y-103995737D01*
X134414849Y-103995755D01*
X134490183Y-104036894D01*
X134528797Y-104178772D01*
X134539672Y-104453770D01*
X134539672Y-104911803D01*
X130542295Y-104911803D01*
X130542295Y-103995737D01*
X131920179Y-103995737D01*
X132385461Y-103995111D01*
X132767664Y-103990828D01*
X133035118Y-103979367D01*
X133215075Y-103957206D01*
X133334786Y-103920826D01*
X133421502Y-103866706D01*
X133502474Y-103791326D01*
X133588598Y-103688645D01*
X133704314Y-103393387D01*
X133670352Y-103083462D01*
X133487333Y-102799552D01*
X133402152Y-102718405D01*
X133315948Y-102660152D01*
X133201229Y-102621082D01*
X133030387Y-102597362D01*
X132775814Y-102585162D01*
X132409900Y-102580652D01*
X131905038Y-102580000D01*
X130542295Y-102580000D01*
X130542295Y-101663934D01*
X132020492Y-101665763D01*
G36*
X132020492Y-101665763D02*
G01*
X132086335Y-101665887D01*
X132715105Y-101673830D01*
X133203534Y-101698229D01*
X133575375Y-101745354D01*
X133854378Y-101821476D01*
X134064295Y-101932864D01*
X134228878Y-102085788D01*
X134371876Y-102286520D01*
X134470875Y-102493784D01*
X134560818Y-102911197D01*
X134547553Y-103345454D01*
X134428278Y-103725081D01*
X134347211Y-103892465D01*
X134338838Y-103976650D01*
X134412616Y-103995737D01*
X134414849Y-103995755D01*
X134490183Y-104036894D01*
X134528797Y-104178772D01*
X134539672Y-104453770D01*
X134539672Y-104911803D01*
X130542295Y-104911803D01*
X130542295Y-103995737D01*
X131920179Y-103995737D01*
X132385461Y-103995111D01*
X132767664Y-103990828D01*
X133035118Y-103979367D01*
X133215075Y-103957206D01*
X133334786Y-103920826D01*
X133421502Y-103866706D01*
X133502474Y-103791326D01*
X133588598Y-103688645D01*
X133704314Y-103393387D01*
X133670352Y-103083462D01*
X133487333Y-102799552D01*
X133402152Y-102718405D01*
X133315948Y-102660152D01*
X133201229Y-102621082D01*
X133030387Y-102597362D01*
X132775814Y-102585162D01*
X132409900Y-102580652D01*
X131905038Y-102580000D01*
X130542295Y-102580000D01*
X130542295Y-101663934D01*
X132020492Y-101665763D01*
G37*
X131427577Y-82103964D02*
X131593817Y-82275795D01*
X131686374Y-82431225D01*
X131665993Y-82575340D01*
X131541640Y-82759672D01*
X131492957Y-82833169D01*
X131393317Y-83143675D01*
X131393379Y-83500565D01*
X131496073Y-83834700D01*
X131578541Y-83960515D01*
X131822068Y-84145066D01*
X132179752Y-84237584D01*
X132667255Y-84243537D01*
X132667528Y-84243520D01*
X133103693Y-84174684D01*
X133406102Y-84023049D01*
X133593164Y-83773532D01*
X133683287Y-83411050D01*
X133695409Y-83182779D01*
X133645774Y-82983328D01*
X133501981Y-82778772D01*
X133279245Y-82514065D01*
X133548642Y-82178835D01*
X133651847Y-82056362D01*
X133799716Y-81903384D01*
X133886858Y-81843606D01*
X133926129Y-81864775D01*
X134046699Y-81986704D01*
X134200039Y-82180938D01*
X134299820Y-82332913D01*
X134504796Y-82815423D01*
X134576370Y-83318930D01*
X134520605Y-83813071D01*
X134343567Y-84267481D01*
X134051318Y-84651795D01*
X133649922Y-84935648D01*
X133608995Y-84954816D01*
X133209815Y-85076514D01*
X132732981Y-85137316D01*
X132236510Y-85136837D01*
X131778418Y-85074692D01*
X131416722Y-84950494D01*
X131164630Y-84797147D01*
X130807502Y-84459611D01*
X130580491Y-84037567D01*
X130488694Y-83676480D01*
X130478669Y-83126654D01*
X130617114Y-82600520D01*
X130898044Y-82133953D01*
X131146958Y-81831977D01*
X131427577Y-82103964D01*
G36*
X131427577Y-82103964D02*
G01*
X131593817Y-82275795D01*
X131686374Y-82431225D01*
X131665993Y-82575340D01*
X131541640Y-82759672D01*
X131492957Y-82833169D01*
X131393317Y-83143675D01*
X131393379Y-83500565D01*
X131496073Y-83834700D01*
X131578541Y-83960515D01*
X131822068Y-84145066D01*
X132179752Y-84237584D01*
X132667255Y-84243537D01*
X132667528Y-84243520D01*
X133103693Y-84174684D01*
X133406102Y-84023049D01*
X133593164Y-83773532D01*
X133683287Y-83411050D01*
X133695409Y-83182779D01*
X133645774Y-82983328D01*
X133501981Y-82778772D01*
X133279245Y-82514065D01*
X133548642Y-82178835D01*
X133651847Y-82056362D01*
X133799716Y-81903384D01*
X133886858Y-81843606D01*
X133926129Y-81864775D01*
X134046699Y-81986704D01*
X134200039Y-82180938D01*
X134299820Y-82332913D01*
X134504796Y-82815423D01*
X134576370Y-83318930D01*
X134520605Y-83813071D01*
X134343567Y-84267481D01*
X134051318Y-84651795D01*
X133649922Y-84935648D01*
X133608995Y-84954816D01*
X133209815Y-85076514D01*
X132732981Y-85137316D01*
X132236510Y-85136837D01*
X131778418Y-85074692D01*
X131416722Y-84950494D01*
X131164630Y-84797147D01*
X130807502Y-84459611D01*
X130580491Y-84037567D01*
X130488694Y-83676480D01*
X130478669Y-83126654D01*
X130617114Y-82600520D01*
X130898044Y-82133953D01*
X131146958Y-81831977D01*
X131427577Y-82103964D01*
G37*
X132973335Y-92439033D02*
X133344186Y-92482228D01*
X133604325Y-92548892D01*
X133898853Y-92704169D01*
X134260991Y-93033728D01*
X134490390Y-93454957D01*
X134581189Y-93955328D01*
X134527528Y-94522316D01*
X134504669Y-94616659D01*
X134307540Y-95056013D01*
X133983902Y-95387086D01*
X133533732Y-95609888D01*
X132957011Y-95724430D01*
X132584894Y-95727761D01*
X132253717Y-95730725D01*
X131990161Y-95707491D01*
X131486995Y-95604801D01*
X131103045Y-95421123D01*
X130813033Y-95141558D01*
X130591678Y-94751208D01*
X130538998Y-94599651D01*
X130477401Y-94231814D01*
X131383900Y-94231814D01*
X131430820Y-94482899D01*
X131498103Y-94580897D01*
X131733394Y-94718455D01*
X132101647Y-94805011D01*
X132584894Y-94835081D01*
X132724002Y-94834601D01*
X133005872Y-94824154D01*
X133189748Y-94789414D01*
X133325614Y-94716530D01*
X133463455Y-94591651D01*
X133630524Y-94354026D01*
X133698827Y-94044677D01*
X133633773Y-93745791D01*
X133445619Y-93497617D01*
X133144621Y-93340407D01*
X132884708Y-93285652D01*
X132452838Y-93261152D01*
X132049899Y-93311310D01*
X131718802Y-93429143D01*
X131502456Y-93607668D01*
X131465310Y-93675333D01*
X131397792Y-93933363D01*
X131383900Y-94231814D01*
X130477401Y-94231814D01*
X130473270Y-94207146D01*
X130475057Y-93794109D01*
X130547254Y-93445585D01*
X130549875Y-93438735D01*
X130715097Y-93157869D01*
X130970868Y-92874115D01*
X131263355Y-92638665D01*
X131538727Y-92502713D01*
X131740019Y-92462412D01*
X132116900Y-92427910D01*
X132546122Y-92420521D01*
X132973335Y-92439033D01*
G36*
X132973335Y-92439033D02*
G01*
X133344186Y-92482228D01*
X133604325Y-92548892D01*
X133898853Y-92704169D01*
X134260991Y-93033728D01*
X134490390Y-93454957D01*
X134581189Y-93955328D01*
X134527528Y-94522316D01*
X134504669Y-94616659D01*
X134307540Y-95056013D01*
X133983902Y-95387086D01*
X133533732Y-95609888D01*
X132957011Y-95724430D01*
X132584894Y-95727761D01*
X132253717Y-95730725D01*
X131990161Y-95707491D01*
X131486995Y-95604801D01*
X131103045Y-95421123D01*
X130813033Y-95141558D01*
X130591678Y-94751208D01*
X130538998Y-94599651D01*
X130477401Y-94231814D01*
X131383900Y-94231814D01*
X131430820Y-94482899D01*
X131498103Y-94580897D01*
X131733394Y-94718455D01*
X132101647Y-94805011D01*
X132584894Y-94835081D01*
X132724002Y-94834601D01*
X133005872Y-94824154D01*
X133189748Y-94789414D01*
X133325614Y-94716530D01*
X133463455Y-94591651D01*
X133630524Y-94354026D01*
X133698827Y-94044677D01*
X133633773Y-93745791D01*
X133445619Y-93497617D01*
X133144621Y-93340407D01*
X132884708Y-93285652D01*
X132452838Y-93261152D01*
X132049899Y-93311310D01*
X131718802Y-93429143D01*
X131502456Y-93607668D01*
X131465310Y-93675333D01*
X131397792Y-93933363D01*
X131383900Y-94231814D01*
X130477401Y-94231814D01*
X130473270Y-94207146D01*
X130475057Y-93794109D01*
X130547254Y-93445585D01*
X130549875Y-93438735D01*
X130715097Y-93157869D01*
X130970868Y-92874115D01*
X131263355Y-92638665D01*
X131538727Y-92502713D01*
X131740019Y-92462412D01*
X132116900Y-92427910D01*
X132546122Y-92420521D01*
X132973335Y-92439033D01*
G37*
X128293771Y-93715727D02*
X127440164Y-93945289D01*
X127214615Y-94006316D01*
X126794128Y-94121733D01*
X126411593Y-94228618D01*
X126128525Y-94309871D01*
X125670492Y-94444890D01*
X126961312Y-94875503D01*
X128252131Y-95306115D01*
X128276856Y-95635479D01*
X128301582Y-95964844D01*
X126986089Y-96393951D01*
X126650179Y-96506538D01*
X126278317Y-96639724D01*
X125996607Y-96750939D01*
X125828004Y-96830991D01*
X125795462Y-96870688D01*
X125823761Y-96880267D01*
X125997339Y-96932111D01*
X126287246Y-97014689D01*
X126661028Y-97118830D01*
X127086230Y-97235366D01*
X128252131Y-97552416D01*
X128277424Y-98036506D01*
X128279451Y-98077369D01*
X128282131Y-98338415D01*
X128255333Y-98463856D01*
X128194145Y-98479831D01*
X128134384Y-98459651D01*
X127929848Y-98393261D01*
X127605904Y-98289322D01*
X127185725Y-98155239D01*
X126692482Y-97998418D01*
X126149345Y-97826266D01*
X124213115Y-97213466D01*
X124213115Y-96446907D01*
X125441476Y-96085713D01*
X125667036Y-96019018D01*
X126077105Y-95895755D01*
X126418791Y-95790429D01*
X126661566Y-95712524D01*
X126774902Y-95671522D01*
X126783358Y-95659840D01*
X126710253Y-95602993D01*
X126516927Y-95521829D01*
X126233590Y-95429838D01*
X126216949Y-95424978D01*
X125798793Y-95301815D01*
X125325331Y-95160894D01*
X124895861Y-95031764D01*
X124204508Y-94822377D01*
X124254754Y-94050095D01*
X125379017Y-93692456D01*
X125873017Y-93535438D01*
X126427058Y-93359554D01*
X126958194Y-93191134D01*
X127398525Y-93051722D01*
X128293771Y-92768626D01*
X128293771Y-93715727D01*
G36*
X128293771Y-93715727D02*
G01*
X127440164Y-93945289D01*
X127214615Y-94006316D01*
X126794128Y-94121733D01*
X126411593Y-94228618D01*
X126128525Y-94309871D01*
X125670492Y-94444890D01*
X126961312Y-94875503D01*
X128252131Y-95306115D01*
X128276856Y-95635479D01*
X128301582Y-95964844D01*
X126986089Y-96393951D01*
X126650179Y-96506538D01*
X126278317Y-96639724D01*
X125996607Y-96750939D01*
X125828004Y-96830991D01*
X125795462Y-96870688D01*
X125823761Y-96880267D01*
X125997339Y-96932111D01*
X126287246Y-97014689D01*
X126661028Y-97118830D01*
X127086230Y-97235366D01*
X128252131Y-97552416D01*
X128277424Y-98036506D01*
X128279451Y-98077369D01*
X128282131Y-98338415D01*
X128255333Y-98463856D01*
X128194145Y-98479831D01*
X128134384Y-98459651D01*
X127929848Y-98393261D01*
X127605904Y-98289322D01*
X127185725Y-98155239D01*
X126692482Y-97998418D01*
X126149345Y-97826266D01*
X124213115Y-97213466D01*
X124213115Y-96446907D01*
X125441476Y-96085713D01*
X125667036Y-96019018D01*
X126077105Y-95895755D01*
X126418791Y-95790429D01*
X126661566Y-95712524D01*
X126774902Y-95671522D01*
X126783358Y-95659840D01*
X126710253Y-95602993D01*
X126516927Y-95521829D01*
X126233590Y-95429838D01*
X126216949Y-95424978D01*
X125798793Y-95301815D01*
X125325331Y-95160894D01*
X124895861Y-95031764D01*
X124204508Y-94822377D01*
X124254754Y-94050095D01*
X125379017Y-93692456D01*
X125873017Y-93535438D01*
X126427058Y-93359554D01*
X126958194Y-93191134D01*
X127398525Y-93051722D01*
X128293771Y-92768626D01*
X128293771Y-93715727D01*
G37*
X129876066Y-99748524D02*
X127934842Y-99748524D01*
X128088398Y-99918202D01*
X128183839Y-100081574D01*
X128263621Y-100390785D01*
X128289328Y-100752241D01*
X128257767Y-101105232D01*
X128165746Y-101389042D01*
X128034843Y-101592175D01*
X127811847Y-101801412D01*
X127511953Y-101942233D01*
X127106289Y-102026883D01*
X126565980Y-102067611D01*
X126347576Y-102073599D01*
X126211041Y-102074030D01*
X125941766Y-102074879D01*
X125585728Y-102064322D01*
X125337718Y-102043092D01*
X125314988Y-102039454D01*
X124908438Y-101896567D01*
X124563765Y-101635625D01*
X124330254Y-101293309D01*
X124233599Y-100925706D01*
X124240769Y-100493401D01*
X125082310Y-100493401D01*
X125163919Y-100784912D01*
X125391567Y-101030433D01*
X125558153Y-101095331D01*
X125853144Y-101143269D01*
X126211041Y-101164344D01*
X126578133Y-101157704D01*
X126900709Y-101122499D01*
X127125055Y-101057879D01*
X127161848Y-101037234D01*
X127346749Y-100838217D01*
X127428663Y-100568514D01*
X127409610Y-100278855D01*
X127291610Y-100019975D01*
X127076683Y-99842606D01*
X127058605Y-99835276D01*
X126856920Y-99791294D01*
X126555543Y-99760270D01*
X126212529Y-99748524D01*
X125866148Y-99755087D01*
X125635538Y-99781731D01*
X125477552Y-99838615D01*
X125345157Y-99935901D01*
X125148304Y-100192785D01*
X125082310Y-100493401D01*
X124240769Y-100493401D01*
X124241098Y-100473554D01*
X124370695Y-100057608D01*
X124425385Y-99949266D01*
X124483984Y-99809948D01*
X124465754Y-99756931D01*
X124370695Y-99748524D01*
X124323293Y-99744663D01*
X124253187Y-99694810D01*
X124220909Y-99556349D01*
X124213115Y-99290491D01*
X124213115Y-98832459D01*
X129876066Y-98832459D01*
X129876066Y-99748524D01*
G36*
X129876066Y-99748524D02*
G01*
X127934842Y-99748524D01*
X128088398Y-99918202D01*
X128183839Y-100081574D01*
X128263621Y-100390785D01*
X128289328Y-100752241D01*
X128257767Y-101105232D01*
X128165746Y-101389042D01*
X128034843Y-101592175D01*
X127811847Y-101801412D01*
X127511953Y-101942233D01*
X127106289Y-102026883D01*
X126565980Y-102067611D01*
X126347576Y-102073599D01*
X126211041Y-102074030D01*
X125941766Y-102074879D01*
X125585728Y-102064322D01*
X125337718Y-102043092D01*
X125314988Y-102039454D01*
X124908438Y-101896567D01*
X124563765Y-101635625D01*
X124330254Y-101293309D01*
X124233599Y-100925706D01*
X124240769Y-100493401D01*
X125082310Y-100493401D01*
X125163919Y-100784912D01*
X125391567Y-101030433D01*
X125558153Y-101095331D01*
X125853144Y-101143269D01*
X126211041Y-101164344D01*
X126578133Y-101157704D01*
X126900709Y-101122499D01*
X127125055Y-101057879D01*
X127161848Y-101037234D01*
X127346749Y-100838217D01*
X127428663Y-100568514D01*
X127409610Y-100278855D01*
X127291610Y-100019975D01*
X127076683Y-99842606D01*
X127058605Y-99835276D01*
X126856920Y-99791294D01*
X126555543Y-99760270D01*
X126212529Y-99748524D01*
X125866148Y-99755087D01*
X125635538Y-99781731D01*
X125477552Y-99838615D01*
X125345157Y-99935901D01*
X125148304Y-100192785D01*
X125082310Y-100493401D01*
X124240769Y-100493401D01*
X124241098Y-100473554D01*
X124370695Y-100057608D01*
X124425385Y-99949266D01*
X124483984Y-99809948D01*
X124465754Y-99756931D01*
X124370695Y-99748524D01*
X124323293Y-99744663D01*
X124253187Y-99694810D01*
X124220909Y-99556349D01*
X124213115Y-99290491D01*
X124213115Y-98832459D01*
X129876066Y-98832459D01*
X129876066Y-99748524D01*
G37*
X132859185Y-113187009D02*
X132949917Y-113195776D01*
X133531037Y-113318085D01*
X133982162Y-113544367D01*
X134303785Y-113875105D01*
X134496397Y-114310779D01*
X134560492Y-114851871D01*
X134554476Y-115056302D01*
X134480868Y-115475537D01*
X134305177Y-115818350D01*
X134004396Y-116137956D01*
X133944028Y-116189072D01*
X133740719Y-116326936D01*
X133510510Y-116417543D01*
X133218780Y-116467785D01*
X132830905Y-116484551D01*
X132548778Y-116479210D01*
X132312264Y-116474734D01*
X132051455Y-116463982D01*
X131733412Y-116439575D01*
X131507990Y-116397998D01*
X131329372Y-116329340D01*
X131151741Y-116223691D01*
X131145008Y-116219191D01*
X130857214Y-115959041D01*
X130637710Y-115640740D01*
X130507456Y-115270605D01*
X130465165Y-114783692D01*
X130473430Y-114736261D01*
X131373642Y-114736261D01*
X131397033Y-115062753D01*
X131572059Y-115374793D01*
X131655654Y-115462813D01*
X131798759Y-115556795D01*
X131999903Y-115608910D01*
X132313330Y-115638450D01*
X132548778Y-115646588D01*
X133029604Y-115602008D01*
X133373851Y-115465199D01*
X133583416Y-115235559D01*
X133683766Y-114966374D01*
X133675321Y-114645341D01*
X133505901Y-114347760D01*
X133441405Y-114276618D01*
X133328559Y-114186840D01*
X133180924Y-114133575D01*
X132954581Y-114104022D01*
X132605611Y-114085382D01*
X132361323Y-114076715D01*
X132096067Y-114078400D01*
X131918976Y-114106525D01*
X131782901Y-114170605D01*
X131640694Y-114280160D01*
X131499576Y-114432192D01*
X131373642Y-114736261D01*
X130473430Y-114736261D01*
X130548325Y-114306463D01*
X130748715Y-113879890D01*
X131058118Y-113544942D01*
X131204307Y-113448781D01*
X131658772Y-113269203D01*
X132219488Y-113180139D01*
X132859185Y-113187009D01*
G36*
X132859185Y-113187009D02*
G01*
X132949917Y-113195776D01*
X133531037Y-113318085D01*
X133982162Y-113544367D01*
X134303785Y-113875105D01*
X134496397Y-114310779D01*
X134560492Y-114851871D01*
X134554476Y-115056302D01*
X134480868Y-115475537D01*
X134305177Y-115818350D01*
X134004396Y-116137956D01*
X133944028Y-116189072D01*
X133740719Y-116326936D01*
X133510510Y-116417543D01*
X133218780Y-116467785D01*
X132830905Y-116484551D01*
X132548778Y-116479210D01*
X132312264Y-116474734D01*
X132051455Y-116463982D01*
X131733412Y-116439575D01*
X131507990Y-116397998D01*
X131329372Y-116329340D01*
X131151741Y-116223691D01*
X131145008Y-116219191D01*
X130857214Y-115959041D01*
X130637710Y-115640740D01*
X130507456Y-115270605D01*
X130465165Y-114783692D01*
X130473430Y-114736261D01*
X131373642Y-114736261D01*
X131397033Y-115062753D01*
X131572059Y-115374793D01*
X131655654Y-115462813D01*
X131798759Y-115556795D01*
X131999903Y-115608910D01*
X132313330Y-115638450D01*
X132548778Y-115646588D01*
X133029604Y-115602008D01*
X133373851Y-115465199D01*
X133583416Y-115235559D01*
X133683766Y-114966374D01*
X133675321Y-114645341D01*
X133505901Y-114347760D01*
X133441405Y-114276618D01*
X133328559Y-114186840D01*
X133180924Y-114133575D01*
X132954581Y-114104022D01*
X132605611Y-114085382D01*
X132361323Y-114076715D01*
X132096067Y-114078400D01*
X131918976Y-114106525D01*
X131782901Y-114170605D01*
X131640694Y-114280160D01*
X131499576Y-114432192D01*
X131373642Y-114736261D01*
X130473430Y-114736261D01*
X130548325Y-114306463D01*
X130748715Y-113879890D01*
X131058118Y-113544942D01*
X131204307Y-113448781D01*
X131658772Y-113269203D01*
X132219488Y-113180139D01*
X132859185Y-113187009D01*
G37*
X131407560Y-78728075D02*
X131648234Y-79032453D01*
X131470019Y-79399274D01*
X131325612Y-79823717D01*
X131321291Y-80198416D01*
X131453966Y-80504982D01*
X131720274Y-80725589D01*
X131879846Y-80804675D01*
X132016221Y-80848823D01*
X132108347Y-80823279D01*
X132164901Y-80708669D01*
X132194555Y-80485621D01*
X132205986Y-80134762D01*
X132206316Y-80047502D01*
X132957377Y-80047502D01*
X132959691Y-80244586D01*
X132974984Y-80555589D01*
X133001769Y-80766556D01*
X133036737Y-80844262D01*
X133165756Y-80824379D01*
X133412635Y-80684251D01*
X133615444Y-80450741D01*
X133737937Y-80172368D01*
X133743868Y-79897653D01*
X133645642Y-79690868D01*
X133422112Y-79456551D01*
X133144754Y-79307566D01*
X133115237Y-79298838D01*
X133038940Y-79288433D01*
X132992305Y-79329268D01*
X132968034Y-79450171D01*
X132958825Y-79679973D01*
X132957377Y-80047502D01*
X132206316Y-80047502D01*
X132207869Y-79636721D01*
X132207869Y-78429180D01*
X132785399Y-78429180D01*
X133090854Y-78440050D01*
X133393070Y-78471968D01*
X133597366Y-78517566D01*
X133675361Y-78550806D01*
X134022734Y-78792749D01*
X134312457Y-79142339D01*
X134502157Y-79551171D01*
X134553962Y-79764416D01*
X134577542Y-80272516D01*
X134457582Y-80725251D01*
X134207432Y-81110178D01*
X133840441Y-81414855D01*
X133369960Y-81626842D01*
X133036737Y-81690354D01*
X132809336Y-81733695D01*
X132171920Y-81722974D01*
X132159385Y-81721579D01*
X131574505Y-81601839D01*
X131119764Y-81385499D01*
X130785173Y-81065820D01*
X130560744Y-80636065D01*
X130535080Y-80557174D01*
X130459445Y-80068203D01*
X130501622Y-79562493D01*
X130652337Y-79092343D01*
X130902315Y-78710051D01*
X131166885Y-78423698D01*
X131407560Y-78728075D01*
G36*
X131407560Y-78728075D02*
G01*
X131648234Y-79032453D01*
X131470019Y-79399274D01*
X131325612Y-79823717D01*
X131321291Y-80198416D01*
X131453966Y-80504982D01*
X131720274Y-80725589D01*
X131879846Y-80804675D01*
X132016221Y-80848823D01*
X132108347Y-80823279D01*
X132164901Y-80708669D01*
X132194555Y-80485621D01*
X132205986Y-80134762D01*
X132206316Y-80047502D01*
X132957377Y-80047502D01*
X132959691Y-80244586D01*
X132974984Y-80555589D01*
X133001769Y-80766556D01*
X133036737Y-80844262D01*
X133165756Y-80824379D01*
X133412635Y-80684251D01*
X133615444Y-80450741D01*
X133737937Y-80172368D01*
X133743868Y-79897653D01*
X133645642Y-79690868D01*
X133422112Y-79456551D01*
X133144754Y-79307566D01*
X133115237Y-79298838D01*
X133038940Y-79288433D01*
X132992305Y-79329268D01*
X132968034Y-79450171D01*
X132958825Y-79679973D01*
X132957377Y-80047502D01*
X132206316Y-80047502D01*
X132207869Y-79636721D01*
X132207869Y-78429180D01*
X132785399Y-78429180D01*
X133090854Y-78440050D01*
X133393070Y-78471968D01*
X133597366Y-78517566D01*
X133675361Y-78550806D01*
X134022734Y-78792749D01*
X134312457Y-79142339D01*
X134502157Y-79551171D01*
X134553962Y-79764416D01*
X134577542Y-80272516D01*
X134457582Y-80725251D01*
X134207432Y-81110178D01*
X133840441Y-81414855D01*
X133369960Y-81626842D01*
X133036737Y-81690354D01*
X132809336Y-81733695D01*
X132171920Y-81722974D01*
X132159385Y-81721579D01*
X131574505Y-81601839D01*
X131119764Y-81385499D01*
X130785173Y-81065820D01*
X130560744Y-80636065D01*
X130535080Y-80557174D01*
X130459445Y-80068203D01*
X130501622Y-79562493D01*
X130652337Y-79092343D01*
X130902315Y-78710051D01*
X131166885Y-78423698D01*
X131407560Y-78728075D01*
G37*
X132157131Y-96181513D02*
X132479019Y-96320914D01*
X132709540Y-96571890D01*
X132862850Y-96950320D01*
X132953107Y-97472087D01*
X132959641Y-97532017D01*
X133001305Y-97856878D01*
X133044907Y-98120407D01*
X133082004Y-98270327D01*
X133111876Y-98320359D01*
X133265903Y-98404941D01*
X133463068Y-98391204D01*
X133634229Y-98278167D01*
X133671559Y-98218811D01*
X133731368Y-97971476D01*
X133727348Y-97651999D01*
X133663697Y-97318860D01*
X133544618Y-97030535D01*
X133365869Y-96727578D01*
X133640476Y-96492583D01*
X133710239Y-96435560D01*
X133897127Y-96307093D01*
X134023788Y-96254204D01*
X134101453Y-96309741D01*
X134222688Y-96481565D01*
X134353148Y-96729672D01*
X134369096Y-96764629D01*
X134494186Y-97091800D01*
X134553994Y-97407164D01*
X134566003Y-97798513D01*
X134542372Y-98154837D01*
X134421825Y-98635806D01*
X134198391Y-98987160D01*
X133870572Y-99210904D01*
X133436870Y-99309042D01*
X133021656Y-99289174D01*
X132671440Y-99145756D01*
X132412504Y-98870730D01*
X132239793Y-98458582D01*
X132148250Y-97903798D01*
X132100269Y-97543313D01*
X131996455Y-97214285D01*
X131846119Y-97044412D01*
X131649525Y-97034157D01*
X131526942Y-97102519D01*
X131381660Y-97314237D01*
X131312944Y-97615205D01*
X131322341Y-97967904D01*
X131411401Y-98334811D01*
X131581670Y-98678408D01*
X131808374Y-99020981D01*
X131503483Y-99322293D01*
X131198591Y-99623606D01*
X130994661Y-99373770D01*
X130923806Y-99276625D01*
X130762827Y-99003300D01*
X130624112Y-98707540D01*
X130544503Y-98473469D01*
X130486840Y-98130734D01*
X130486076Y-97708196D01*
X130549565Y-97190045D01*
X130710485Y-96723277D01*
X130966103Y-96392882D01*
X131317054Y-96198078D01*
X131763970Y-96138088D01*
X132157131Y-96181513D01*
G36*
X132157131Y-96181513D02*
G01*
X132479019Y-96320914D01*
X132709540Y-96571890D01*
X132862850Y-96950320D01*
X132953107Y-97472087D01*
X132959641Y-97532017D01*
X133001305Y-97856878D01*
X133044907Y-98120407D01*
X133082004Y-98270327D01*
X133111876Y-98320359D01*
X133265903Y-98404941D01*
X133463068Y-98391204D01*
X133634229Y-98278167D01*
X133671559Y-98218811D01*
X133731368Y-97971476D01*
X133727348Y-97651999D01*
X133663697Y-97318860D01*
X133544618Y-97030535D01*
X133365869Y-96727578D01*
X133640476Y-96492583D01*
X133710239Y-96435560D01*
X133897127Y-96307093D01*
X134023788Y-96254204D01*
X134101453Y-96309741D01*
X134222688Y-96481565D01*
X134353148Y-96729672D01*
X134369096Y-96764629D01*
X134494186Y-97091800D01*
X134553994Y-97407164D01*
X134566003Y-97798513D01*
X134542372Y-98154837D01*
X134421825Y-98635806D01*
X134198391Y-98987160D01*
X133870572Y-99210904D01*
X133436870Y-99309042D01*
X133021656Y-99289174D01*
X132671440Y-99145756D01*
X132412504Y-98870730D01*
X132239793Y-98458582D01*
X132148250Y-97903798D01*
X132100269Y-97543313D01*
X131996455Y-97214285D01*
X131846119Y-97044412D01*
X131649525Y-97034157D01*
X131526942Y-97102519D01*
X131381660Y-97314237D01*
X131312944Y-97615205D01*
X131322341Y-97967904D01*
X131411401Y-98334811D01*
X131581670Y-98678408D01*
X131808374Y-99020981D01*
X131503483Y-99322293D01*
X131198591Y-99623606D01*
X130994661Y-99373770D01*
X130923806Y-99276625D01*
X130762827Y-99003300D01*
X130624112Y-98707540D01*
X130544503Y-98473469D01*
X130486840Y-98130734D01*
X130486076Y-97708196D01*
X130549565Y-97190045D01*
X130710485Y-96723277D01*
X130966103Y-96392882D01*
X131317054Y-96198078D01*
X131763970Y-96138088D01*
X132157131Y-96181513D01*
G37*
X126399181Y-82676857D02*
X126442664Y-82677124D01*
X126980560Y-82729220D01*
X127418139Y-82880863D01*
X127795348Y-83145461D01*
X127954913Y-83306877D01*
X128168508Y-83640248D01*
X128272003Y-84038315D01*
X128279281Y-84541124D01*
X128250749Y-84784003D01*
X128102596Y-85232332D01*
X127832950Y-85575579D01*
X127437651Y-85816751D01*
X126912535Y-85958855D01*
X126706054Y-85973280D01*
X126253443Y-86004898D01*
X125942569Y-85994069D01*
X125348042Y-85895443D01*
X124880558Y-85692507D01*
X124536777Y-85383475D01*
X124313358Y-84966557D01*
X124273883Y-84831852D01*
X124218751Y-84350871D01*
X124265277Y-83842997D01*
X124408873Y-83384262D01*
X124490374Y-83222652D01*
X124629985Y-82990938D01*
X124744861Y-82850513D01*
X124771108Y-82829780D01*
X124867099Y-82790993D01*
X124971448Y-82846880D01*
X125129483Y-83017070D01*
X125198279Y-83099202D01*
X125324174Y-83260998D01*
X125375632Y-83345834D01*
X125370333Y-83370137D01*
X125313033Y-83509424D01*
X125212459Y-83717377D01*
X125179375Y-83785177D01*
X125056525Y-84185151D01*
X125088192Y-84532640D01*
X125274918Y-84837353D01*
X125309420Y-84872807D01*
X125525537Y-85042317D01*
X125732951Y-85139170D01*
X125961967Y-85192810D01*
X125961967Y-84383606D01*
X126628197Y-84383606D01*
X126630850Y-84588088D01*
X126646342Y-84889915D01*
X126672596Y-85097519D01*
X126706054Y-85174754D01*
X126981475Y-85108885D01*
X127238536Y-84916044D01*
X127416875Y-84637911D01*
X127478564Y-84316619D01*
X127409023Y-84080067D01*
X127239025Y-83843607D01*
X127017542Y-83663854D01*
X126793441Y-83592459D01*
X126720690Y-83602865D01*
X126670553Y-83656296D01*
X126642724Y-83783651D01*
X126630754Y-84015798D01*
X126628197Y-84383606D01*
X125961967Y-84383606D01*
X125961967Y-82676393D01*
X126399181Y-82676857D01*
G36*
X126399181Y-82676857D02*
G01*
X126442664Y-82677124D01*
X126980560Y-82729220D01*
X127418139Y-82880863D01*
X127795348Y-83145461D01*
X127954913Y-83306877D01*
X128168508Y-83640248D01*
X128272003Y-84038315D01*
X128279281Y-84541124D01*
X128250749Y-84784003D01*
X128102596Y-85232332D01*
X127832950Y-85575579D01*
X127437651Y-85816751D01*
X126912535Y-85958855D01*
X126706054Y-85973280D01*
X126253443Y-86004898D01*
X125942569Y-85994069D01*
X125348042Y-85895443D01*
X124880558Y-85692507D01*
X124536777Y-85383475D01*
X124313358Y-84966557D01*
X124273883Y-84831852D01*
X124218751Y-84350871D01*
X124265277Y-83842997D01*
X124408873Y-83384262D01*
X124490374Y-83222652D01*
X124629985Y-82990938D01*
X124744861Y-82850513D01*
X124771108Y-82829780D01*
X124867099Y-82790993D01*
X124971448Y-82846880D01*
X125129483Y-83017070D01*
X125198279Y-83099202D01*
X125324174Y-83260998D01*
X125375632Y-83345834D01*
X125370333Y-83370137D01*
X125313033Y-83509424D01*
X125212459Y-83717377D01*
X125179375Y-83785177D01*
X125056525Y-84185151D01*
X125088192Y-84532640D01*
X125274918Y-84837353D01*
X125309420Y-84872807D01*
X125525537Y-85042317D01*
X125732951Y-85139170D01*
X125961967Y-85192810D01*
X125961967Y-84383606D01*
X126628197Y-84383606D01*
X126630850Y-84588088D01*
X126646342Y-84889915D01*
X126672596Y-85097519D01*
X126706054Y-85174754D01*
X126981475Y-85108885D01*
X127238536Y-84916044D01*
X127416875Y-84637911D01*
X127478564Y-84316619D01*
X127409023Y-84080067D01*
X127239025Y-83843607D01*
X127017542Y-83663854D01*
X126793441Y-83592459D01*
X126720690Y-83602865D01*
X126670553Y-83656296D01*
X126642724Y-83783651D01*
X126630754Y-84015798D01*
X126628197Y-84383606D01*
X125961967Y-84383606D01*
X125961967Y-82676393D01*
X126399181Y-82676857D01*
G37*
X132645082Y-105495218D02*
X132783647Y-105499030D01*
X133119204Y-105530411D01*
X133396867Y-105583040D01*
X133552310Y-105640723D01*
X133890414Y-105843527D01*
X134197475Y-106115131D01*
X134407878Y-106402362D01*
X134446949Y-106485350D01*
X134576552Y-106968576D01*
X134562888Y-107462029D01*
X134411739Y-107925960D01*
X134128886Y-108320622D01*
X133868034Y-108534089D01*
X133500557Y-108708632D01*
X133058218Y-108801943D01*
X133041250Y-108805522D01*
X132457933Y-108834658D01*
X132203382Y-108827378D01*
X131647077Y-108745278D01*
X131208452Y-108564357D01*
X130869432Y-108275151D01*
X130611942Y-107868196D01*
X130491740Y-107473420D01*
X130468745Y-106978174D01*
X130557190Y-106478498D01*
X130752600Y-106032789D01*
X130861302Y-105867620D01*
X131000638Y-105685643D01*
X131092326Y-105602609D01*
X131130157Y-105607316D01*
X131259053Y-105700261D01*
X131415218Y-105874939D01*
X131646113Y-106177658D01*
X131468958Y-106532377D01*
X131425109Y-106628297D01*
X131329803Y-106910656D01*
X131291804Y-107147315D01*
X131323116Y-107321826D01*
X131473908Y-107595678D01*
X131707993Y-107825867D01*
X131978853Y-107957531D01*
X132207869Y-108011170D01*
X132207869Y-107207579D01*
X132957377Y-107207579D01*
X132957430Y-107332271D01*
X132960424Y-107656097D01*
X132973353Y-107850768D01*
X133003517Y-107945153D01*
X133058218Y-107968118D01*
X133144754Y-107948533D01*
X133154566Y-107945543D01*
X133455691Y-107776826D01*
X133663014Y-107510852D01*
X133740197Y-107193686D01*
X133734025Y-107076450D01*
X133660188Y-106858851D01*
X133472391Y-106650104D01*
X133405990Y-106593874D01*
X133216351Y-106463080D01*
X133080981Y-106410819D01*
X133063946Y-106412439D01*
X133010901Y-106458231D01*
X132978312Y-106587622D01*
X132961897Y-106828206D01*
X132957377Y-107207579D01*
X132207869Y-107207579D01*
X132207869Y-105494754D01*
X132645082Y-105495218D01*
G36*
X132645082Y-105495218D02*
G01*
X132783647Y-105499030D01*
X133119204Y-105530411D01*
X133396867Y-105583040D01*
X133552310Y-105640723D01*
X133890414Y-105843527D01*
X134197475Y-106115131D01*
X134407878Y-106402362D01*
X134446949Y-106485350D01*
X134576552Y-106968576D01*
X134562888Y-107462029D01*
X134411739Y-107925960D01*
X134128886Y-108320622D01*
X133868034Y-108534089D01*
X133500557Y-108708632D01*
X133058218Y-108801943D01*
X133041250Y-108805522D01*
X132457933Y-108834658D01*
X132203382Y-108827378D01*
X131647077Y-108745278D01*
X131208452Y-108564357D01*
X130869432Y-108275151D01*
X130611942Y-107868196D01*
X130491740Y-107473420D01*
X130468745Y-106978174D01*
X130557190Y-106478498D01*
X130752600Y-106032789D01*
X130861302Y-105867620D01*
X131000638Y-105685643D01*
X131092326Y-105602609D01*
X131130157Y-105607316D01*
X131259053Y-105700261D01*
X131415218Y-105874939D01*
X131646113Y-106177658D01*
X131468958Y-106532377D01*
X131425109Y-106628297D01*
X131329803Y-106910656D01*
X131291804Y-107147315D01*
X131323116Y-107321826D01*
X131473908Y-107595678D01*
X131707993Y-107825867D01*
X131978853Y-107957531D01*
X132207869Y-108011170D01*
X132207869Y-107207579D01*
X132957377Y-107207579D01*
X132957430Y-107332271D01*
X132960424Y-107656097D01*
X132973353Y-107850768D01*
X133003517Y-107945153D01*
X133058218Y-107968118D01*
X133144754Y-107948533D01*
X133154566Y-107945543D01*
X133455691Y-107776826D01*
X133663014Y-107510852D01*
X133740197Y-107193686D01*
X133734025Y-107076450D01*
X133660188Y-106858851D01*
X133472391Y-106650104D01*
X133405990Y-106593874D01*
X133216351Y-106463080D01*
X133080981Y-106410819D01*
X133063946Y-106412439D01*
X133010901Y-106458231D01*
X132978312Y-106587622D01*
X132961897Y-106828206D01*
X132957377Y-107207579D01*
X132207869Y-107207579D01*
X132207869Y-105494754D01*
X132645082Y-105495218D01*
G37*
X125816230Y-89519697D02*
X126186942Y-89527085D01*
X126741932Y-89546541D01*
X127166304Y-89579336D01*
X127483191Y-89631948D01*
X127715730Y-89710858D01*
X127887057Y-89822546D01*
X128020307Y-89973492D01*
X128138615Y-90170176D01*
X128183783Y-90271641D01*
X128269041Y-90622659D01*
X128304290Y-91046021D01*
X128290174Y-91483726D01*
X128227337Y-91877774D01*
X128116422Y-92170163D01*
X128052022Y-92271871D01*
X127861153Y-92506029D01*
X127701326Y-92585282D01*
X127670442Y-92566035D01*
X127562568Y-92446089D01*
X127418659Y-92252453D01*
X127351303Y-92153455D01*
X127255864Y-91984869D01*
X127246750Y-91875316D01*
X127312623Y-91773600D01*
X127446030Y-91520096D01*
X127500891Y-91178992D01*
X127458890Y-90830405D01*
X127456987Y-90823810D01*
X127350167Y-90577947D01*
X127182962Y-90456248D01*
X126906433Y-90422586D01*
X126643358Y-90421311D01*
X126614958Y-91290474D01*
X126610286Y-91428945D01*
X126594037Y-91778057D01*
X126568512Y-92012096D01*
X126524152Y-92170290D01*
X126451397Y-92291870D01*
X126340688Y-92416064D01*
X126084616Y-92621120D01*
X125705704Y-92771409D01*
X125444971Y-92786142D01*
X125309140Y-92793817D01*
X124931066Y-92693352D01*
X124607624Y-92475018D01*
X124374957Y-92143821D01*
X124360817Y-92111320D01*
X124258943Y-91748938D01*
X124219231Y-91340613D01*
X124231151Y-91150000D01*
X125051538Y-91150000D01*
X125060874Y-91334632D01*
X125131179Y-91680115D01*
X125262173Y-91894250D01*
X125444971Y-91966473D01*
X125670689Y-91886217D01*
X125729759Y-91839389D01*
X125862258Y-91630238D01*
X125937914Y-91299226D01*
X125961967Y-90827295D01*
X125961967Y-90421311D01*
X125670492Y-90421311D01*
X125452639Y-90452678D01*
X125212459Y-90587868D01*
X125168313Y-90637770D01*
X125075437Y-90842300D01*
X125051538Y-91150000D01*
X124231151Y-91150000D01*
X124243509Y-90952394D01*
X124333607Y-90650327D01*
X124392387Y-90529667D01*
X124406403Y-90441118D01*
X124333094Y-90421311D01*
X124265301Y-90383796D01*
X124224929Y-90238646D01*
X124213115Y-89956911D01*
X124213115Y-89492510D01*
X125816230Y-89519697D01*
G36*
X125816230Y-89519697D02*
G01*
X126186942Y-89527085D01*
X126741932Y-89546541D01*
X127166304Y-89579336D01*
X127483191Y-89631948D01*
X127715730Y-89710858D01*
X127887057Y-89822546D01*
X128020307Y-89973492D01*
X128138615Y-90170176D01*
X128183783Y-90271641D01*
X128269041Y-90622659D01*
X128304290Y-91046021D01*
X128290174Y-91483726D01*
X128227337Y-91877774D01*
X128116422Y-92170163D01*
X128052022Y-92271871D01*
X127861153Y-92506029D01*
X127701326Y-92585282D01*
X127670442Y-92566035D01*
X127562568Y-92446089D01*
X127418659Y-92252453D01*
X127351303Y-92153455D01*
X127255864Y-91984869D01*
X127246750Y-91875316D01*
X127312623Y-91773600D01*
X127446030Y-91520096D01*
X127500891Y-91178992D01*
X127458890Y-90830405D01*
X127456987Y-90823810D01*
X127350167Y-90577947D01*
X127182962Y-90456248D01*
X126906433Y-90422586D01*
X126643358Y-90421311D01*
X126614958Y-91290474D01*
X126610286Y-91428945D01*
X126594037Y-91778057D01*
X126568512Y-92012096D01*
X126524152Y-92170290D01*
X126451397Y-92291870D01*
X126340688Y-92416064D01*
X126084616Y-92621120D01*
X125705704Y-92771409D01*
X125444971Y-92786142D01*
X125309140Y-92793817D01*
X124931066Y-92693352D01*
X124607624Y-92475018D01*
X124374957Y-92143821D01*
X124360817Y-92111320D01*
X124258943Y-91748938D01*
X124219231Y-91340613D01*
X124231151Y-91150000D01*
X125051538Y-91150000D01*
X125060874Y-91334632D01*
X125131179Y-91680115D01*
X125262173Y-91894250D01*
X125444971Y-91966473D01*
X125670689Y-91886217D01*
X125729759Y-91839389D01*
X125862258Y-91630238D01*
X125937914Y-91299226D01*
X125961967Y-90827295D01*
X125961967Y-90421311D01*
X125670492Y-90421311D01*
X125452639Y-90452678D01*
X125212459Y-90587868D01*
X125168313Y-90637770D01*
X125075437Y-90842300D01*
X125051538Y-91150000D01*
X124231151Y-91150000D01*
X124243509Y-90952394D01*
X124333607Y-90650327D01*
X124392387Y-90529667D01*
X124406403Y-90441118D01*
X124333094Y-90421311D01*
X124265301Y-90383796D01*
X124224929Y-90238646D01*
X124213115Y-89956911D01*
X124213115Y-89492510D01*
X125816230Y-89519697D01*
G37*
X125964105Y-105578063D02*
X126489422Y-105579581D01*
X126879968Y-105585279D01*
X127161692Y-105597745D01*
X127360541Y-105619568D01*
X127502465Y-105653337D01*
X127613409Y-105701641D01*
X127719324Y-105767069D01*
X127967495Y-105977533D01*
X128156973Y-106275778D01*
X128261506Y-106667558D01*
X128293641Y-107183822D01*
X128293609Y-107200604D01*
X128277401Y-107559470D01*
X128236994Y-107880681D01*
X128180347Y-108099887D01*
X128151958Y-108159983D01*
X128031739Y-108351259D01*
X127888856Y-108524355D01*
X127760277Y-108638242D01*
X127682968Y-108651893D01*
X127662074Y-108625252D01*
X127439042Y-108334990D01*
X127307504Y-108140901D01*
X127254432Y-108012569D01*
X127266799Y-107919580D01*
X127331576Y-107831518D01*
X127412441Y-107668998D01*
X127466358Y-107395110D01*
X127480345Y-107085568D01*
X127451883Y-106805471D01*
X127378454Y-106619918D01*
X127369518Y-106610156D01*
X127201664Y-106526774D01*
X126951115Y-106494098D01*
X126628197Y-106494098D01*
X126627886Y-107264426D01*
X126622284Y-107618282D01*
X126597919Y-107916145D01*
X126547791Y-108129219D01*
X126465011Y-108301366D01*
X126439588Y-108341427D01*
X126160108Y-108631261D01*
X125790538Y-108785425D01*
X125512906Y-108798454D01*
X125323115Y-108807360D01*
X125312128Y-108806417D01*
X124884306Y-108704940D01*
X124562538Y-108479217D01*
X124330675Y-108118032D01*
X124274263Y-107931386D01*
X124230298Y-107611687D01*
X124220157Y-107273972D01*
X125046977Y-107273972D01*
X125083656Y-107577826D01*
X125175542Y-107808027D01*
X125297032Y-107922708D01*
X125512906Y-107993114D01*
X125684028Y-107930675D01*
X125832815Y-107724273D01*
X125928274Y-107392482D01*
X125961967Y-106954805D01*
X125961967Y-106494098D01*
X125641760Y-106494098D01*
X125398081Y-106524887D01*
X125183727Y-106646393D01*
X125137336Y-106715928D01*
X125065030Y-106964121D01*
X125046977Y-107273972D01*
X124220157Y-107273972D01*
X124219800Y-107262083D01*
X124243994Y-106946664D01*
X124304109Y-106729518D01*
X124352260Y-106597630D01*
X124304109Y-106468501D01*
X124276209Y-106421267D01*
X124230971Y-106232739D01*
X124213115Y-105977770D01*
X124213115Y-105578032D01*
X125824734Y-105578032D01*
X125964105Y-105578063D01*
G36*
X125964105Y-105578063D02*
G01*
X126489422Y-105579581D01*
X126879968Y-105585279D01*
X127161692Y-105597745D01*
X127360541Y-105619568D01*
X127502465Y-105653337D01*
X127613409Y-105701641D01*
X127719324Y-105767069D01*
X127967495Y-105977533D01*
X128156973Y-106275778D01*
X128261506Y-106667558D01*
X128293641Y-107183822D01*
X128293609Y-107200604D01*
X128277401Y-107559470D01*
X128236994Y-107880681D01*
X128180347Y-108099887D01*
X128151958Y-108159983D01*
X128031739Y-108351259D01*
X127888856Y-108524355D01*
X127760277Y-108638242D01*
X127682968Y-108651893D01*
X127662074Y-108625252D01*
X127439042Y-108334990D01*
X127307504Y-108140901D01*
X127254432Y-108012569D01*
X127266799Y-107919580D01*
X127331576Y-107831518D01*
X127412441Y-107668998D01*
X127466358Y-107395110D01*
X127480345Y-107085568D01*
X127451883Y-106805471D01*
X127378454Y-106619918D01*
X127369518Y-106610156D01*
X127201664Y-106526774D01*
X126951115Y-106494098D01*
X126628197Y-106494098D01*
X126627886Y-107264426D01*
X126622284Y-107618282D01*
X126597919Y-107916145D01*
X126547791Y-108129219D01*
X126465011Y-108301366D01*
X126439588Y-108341427D01*
X126160108Y-108631261D01*
X125790538Y-108785425D01*
X125512906Y-108798454D01*
X125323115Y-108807360D01*
X125312128Y-108806417D01*
X124884306Y-108704940D01*
X124562538Y-108479217D01*
X124330675Y-108118032D01*
X124274263Y-107931386D01*
X124230298Y-107611687D01*
X124220157Y-107273972D01*
X125046977Y-107273972D01*
X125083656Y-107577826D01*
X125175542Y-107808027D01*
X125297032Y-107922708D01*
X125512906Y-107993114D01*
X125684028Y-107930675D01*
X125832815Y-107724273D01*
X125928274Y-107392482D01*
X125961967Y-106954805D01*
X125961967Y-106494098D01*
X125641760Y-106494098D01*
X125398081Y-106524887D01*
X125183727Y-106646393D01*
X125137336Y-106715928D01*
X125065030Y-106964121D01*
X125046977Y-107273972D01*
X124220157Y-107273972D01*
X124219800Y-107262083D01*
X124243994Y-106946664D01*
X124304109Y-106729518D01*
X124352260Y-106597630D01*
X124304109Y-106468501D01*
X124276209Y-106421267D01*
X124230971Y-106232739D01*
X124213115Y-105977770D01*
X124213115Y-105578032D01*
X125824734Y-105578032D01*
X125964105Y-105578063D01*
G37*
X126219470Y-109326453D02*
X126644934Y-109331324D01*
X126956369Y-109343037D01*
X127182009Y-109364427D01*
X127350088Y-109398331D01*
X127488837Y-109447585D01*
X127626490Y-109515026D01*
X127655714Y-109531016D01*
X127940349Y-109743681D01*
X128139261Y-109992579D01*
X128243706Y-110292655D01*
X128290201Y-110690010D01*
X128265019Y-111087934D01*
X128166714Y-111411676D01*
X128039657Y-111657377D01*
X130789458Y-111657377D01*
X130613982Y-111320719D01*
X130550230Y-111180092D01*
X130503400Y-110949508D01*
X131375082Y-110949508D01*
X131394722Y-111180097D01*
X131493006Y-111408332D01*
X131692100Y-111555323D01*
X132012094Y-111634022D01*
X132473072Y-111657377D01*
X132718297Y-111651337D01*
X133181216Y-111591052D01*
X133494238Y-111466668D01*
X133655154Y-111278891D01*
X133700426Y-111089238D01*
X133679203Y-110758949D01*
X133547779Y-110479881D01*
X133487511Y-110413091D01*
X133383246Y-110342317D01*
X133228036Y-110298560D01*
X132983344Y-110272575D01*
X132610634Y-110255120D01*
X132363226Y-110247519D01*
X132067755Y-110248262D01*
X131870710Y-110270851D01*
X131730076Y-110321619D01*
X131603839Y-110406902D01*
X131486473Y-110515234D01*
X131397650Y-110688476D01*
X131375082Y-110949508D01*
X130503400Y-110949508D01*
X130460080Y-110736207D01*
X130522388Y-110295076D01*
X130729550Y-109886160D01*
X131073961Y-109538916D01*
X131154910Y-109484517D01*
X131273570Y-109432236D01*
X131434900Y-109398135D01*
X131669864Y-109378443D01*
X132009426Y-109369392D01*
X132484553Y-109367213D01*
X132701344Y-109367959D01*
X133205612Y-109380726D01*
X133582315Y-109416282D01*
X133859926Y-109483610D01*
X134066916Y-109591689D01*
X134231757Y-109749502D01*
X134382920Y-109966029D01*
X134469668Y-110141615D01*
X134565337Y-110557908D01*
X134552301Y-110996708D01*
X134428282Y-111386721D01*
X134347214Y-111554102D01*
X134338839Y-111638289D01*
X134412616Y-111657377D01*
X134414849Y-111657394D01*
X134490183Y-111698533D01*
X134528797Y-111840412D01*
X134539672Y-112115409D01*
X134539672Y-112573442D01*
X132473072Y-112573442D01*
X124204411Y-112573442D01*
X124229583Y-112136229D01*
X124254754Y-111699016D01*
X125587213Y-111678228D01*
X125911219Y-111672080D01*
X126398004Y-111654621D01*
X126755212Y-111624656D01*
X127006856Y-111576675D01*
X127176946Y-111505171D01*
X127289492Y-111404633D01*
X127368506Y-111269555D01*
X127449199Y-111016096D01*
X127417842Y-110764035D01*
X127245384Y-110497865D01*
X127029785Y-110241639D01*
X124213115Y-110241639D01*
X124213115Y-109325573D01*
X125740672Y-109325573D01*
X126219470Y-109326453D01*
G36*
X126219470Y-109326453D02*
G01*
X126644934Y-109331324D01*
X126956369Y-109343037D01*
X127182009Y-109364427D01*
X127350088Y-109398331D01*
X127488837Y-109447585D01*
X127626490Y-109515026D01*
X127655714Y-109531016D01*
X127940349Y-109743681D01*
X128139261Y-109992579D01*
X128243706Y-110292655D01*
X128290201Y-110690010D01*
X128265019Y-111087934D01*
X128166714Y-111411676D01*
X128039657Y-111657377D01*
X130789458Y-111657377D01*
X130613982Y-111320719D01*
X130550230Y-111180092D01*
X130503400Y-110949508D01*
X131375082Y-110949508D01*
X131394722Y-111180097D01*
X131493006Y-111408332D01*
X131692100Y-111555323D01*
X132012094Y-111634022D01*
X132473072Y-111657377D01*
X132718297Y-111651337D01*
X133181216Y-111591052D01*
X133494238Y-111466668D01*
X133655154Y-111278891D01*
X133700426Y-111089238D01*
X133679203Y-110758949D01*
X133547779Y-110479881D01*
X133487511Y-110413091D01*
X133383246Y-110342317D01*
X133228036Y-110298560D01*
X132983344Y-110272575D01*
X132610634Y-110255120D01*
X132363226Y-110247519D01*
X132067755Y-110248262D01*
X131870710Y-110270851D01*
X131730076Y-110321619D01*
X131603839Y-110406902D01*
X131486473Y-110515234D01*
X131397650Y-110688476D01*
X131375082Y-110949508D01*
X130503400Y-110949508D01*
X130460080Y-110736207D01*
X130522388Y-110295076D01*
X130729550Y-109886160D01*
X131073961Y-109538916D01*
X131154910Y-109484517D01*
X131273570Y-109432236D01*
X131434900Y-109398135D01*
X131669864Y-109378443D01*
X132009426Y-109369392D01*
X132484553Y-109367213D01*
X132701344Y-109367959D01*
X133205612Y-109380726D01*
X133582315Y-109416282D01*
X133859926Y-109483610D01*
X134066916Y-109591689D01*
X134231757Y-109749502D01*
X134382920Y-109966029D01*
X134469668Y-110141615D01*
X134565337Y-110557908D01*
X134552301Y-110996708D01*
X134428282Y-111386721D01*
X134347214Y-111554102D01*
X134338839Y-111638289D01*
X134412616Y-111657377D01*
X134414849Y-111657394D01*
X134490183Y-111698533D01*
X134528797Y-111840412D01*
X134539672Y-112115409D01*
X134539672Y-112573442D01*
X132473072Y-112573442D01*
X124204411Y-112573442D01*
X124229583Y-112136229D01*
X124254754Y-111699016D01*
X125587213Y-111678228D01*
X125911219Y-111672080D01*
X126398004Y-111654621D01*
X126755212Y-111624656D01*
X127006856Y-111576675D01*
X127176946Y-111505171D01*
X127289492Y-111404633D01*
X127368506Y-111269555D01*
X127449199Y-111016096D01*
X127417842Y-110764035D01*
X127245384Y-110497865D01*
X127029785Y-110241639D01*
X124213115Y-110241639D01*
X124213115Y-109325573D01*
X125740672Y-109325573D01*
X126219470Y-109326453D01*
G37*
X149789530Y-82586231D02*
X150275818Y-82594561D01*
X150711155Y-82609804D01*
X151066676Y-82631980D01*
X151313516Y-82661110D01*
X151422810Y-82697213D01*
X151438958Y-82734075D01*
X151489853Y-82917445D01*
X151561839Y-83227400D01*
X151649550Y-83639205D01*
X151747620Y-84128124D01*
X151850682Y-84669423D01*
X151905746Y-84964981D01*
X152001231Y-85471553D01*
X152084843Y-85907582D01*
X152152037Y-86249747D01*
X152198267Y-86474729D01*
X152218989Y-86559207D01*
X152223260Y-86562382D01*
X152331786Y-86616183D01*
X152559145Y-86718746D01*
X152875170Y-86857253D01*
X153249696Y-87018884D01*
X153652558Y-87190820D01*
X154053589Y-87360241D01*
X154422626Y-87514329D01*
X154729501Y-87640263D01*
X154944050Y-87725224D01*
X155036107Y-87756393D01*
X155068498Y-87742644D01*
X155222630Y-87651144D01*
X155482070Y-87485171D01*
X155826460Y-87258059D01*
X156235442Y-86983147D01*
X156688659Y-86673770D01*
X156936862Y-86504035D01*
X157372018Y-86211117D01*
X157753922Y-85959974D01*
X158061748Y-85764001D01*
X158274669Y-85636593D01*
X158371857Y-85591147D01*
X158424575Y-85622725D01*
X158582097Y-85754815D01*
X158820492Y-85971518D01*
X159119557Y-86252939D01*
X159459093Y-86579188D01*
X159818898Y-86930371D01*
X160178771Y-87286596D01*
X160518512Y-87627972D01*
X160817919Y-87934605D01*
X161056792Y-88186603D01*
X161214930Y-88364074D01*
X161272131Y-88447125D01*
X161249890Y-88493227D01*
X161146742Y-88662511D01*
X160971198Y-88935693D01*
X160736122Y-89293085D01*
X160454378Y-89714998D01*
X160138829Y-90181744D01*
X159005527Y-91848383D01*
X160150917Y-94626885D01*
X162148081Y-95003390D01*
X164145246Y-95379895D01*
X164145246Y-99536826D01*
X162148081Y-99913331D01*
X160150917Y-100289836D01*
X159005527Y-103068338D01*
X160138829Y-104734977D01*
X160362251Y-105064841D01*
X160655514Y-105502140D01*
X160905994Y-105880746D01*
X161100830Y-106180997D01*
X161227163Y-106383231D01*
X161272131Y-106467784D01*
X161240152Y-106519713D01*
X161106150Y-106674939D01*
X160886241Y-106909849D01*
X160600615Y-107204539D01*
X160269466Y-107539103D01*
X159912987Y-107893638D01*
X159551370Y-108248238D01*
X159204808Y-108583000D01*
X158893493Y-108878019D01*
X158637619Y-109113391D01*
X158457377Y-109269210D01*
X158372961Y-109325573D01*
X158336694Y-109312462D01*
X158174911Y-109221677D01*
X157908659Y-109055893D01*
X157558810Y-108828550D01*
X157146234Y-108553089D01*
X156691804Y-108242950D01*
X156443964Y-108072748D01*
X156012487Y-107779966D01*
X155635927Y-107528950D01*
X155334706Y-107333082D01*
X155129243Y-107205747D01*
X155039959Y-107160327D01*
X155035012Y-107161073D01*
X154921832Y-107201138D01*
X154690716Y-107293054D01*
X154371854Y-107424009D01*
X153995439Y-107581190D01*
X153591660Y-107751784D01*
X153190708Y-107922979D01*
X152822774Y-108081962D01*
X152518049Y-108215920D01*
X152306724Y-108312042D01*
X152218989Y-108357514D01*
X152211207Y-108384418D01*
X152176106Y-108547886D01*
X152117958Y-108839228D01*
X152041308Y-109235124D01*
X151950701Y-109712254D01*
X151850682Y-110247297D01*
X151797654Y-110529293D01*
X151696476Y-111046879D01*
X151603036Y-111499429D01*
X151522701Y-111862207D01*
X151460837Y-112110478D01*
X151422810Y-112219508D01*
X151385113Y-112239092D01*
X151200925Y-112271578D01*
X150894152Y-112297101D01*
X150493659Y-112315682D01*
X150028311Y-112327339D01*
X149526972Y-112332092D01*
X149018508Y-112329962D01*
X148531783Y-112320967D01*
X148095663Y-112305128D01*
X147739011Y-112282465D01*
X147490693Y-112252996D01*
X147379574Y-112216743D01*
X147367041Y-112194742D01*
X147313279Y-112030667D01*
X147242149Y-111746043D01*
X147161437Y-111373769D01*
X147078932Y-110946743D01*
X147052657Y-110802662D01*
X146930451Y-110137205D01*
X146832237Y-109614214D01*
X146753942Y-109215561D01*
X146691495Y-108923117D01*
X146640823Y-108718753D01*
X146597854Y-108584338D01*
X146558516Y-108501745D01*
X146518736Y-108452843D01*
X146512059Y-108447159D01*
X146372866Y-108367190D01*
X146118169Y-108248855D01*
X145777848Y-108103622D01*
X145381782Y-107942960D01*
X144959852Y-107778338D01*
X144541937Y-107621225D01*
X144157916Y-107483089D01*
X143837669Y-107375399D01*
X143611076Y-107309624D01*
X143508017Y-107297233D01*
X143494644Y-107305518D01*
X143365326Y-107391287D01*
X143126803Y-107552582D01*
X142801050Y-107774449D01*
X142410037Y-108041934D01*
X141975740Y-108340081D01*
X141856248Y-108421907D01*
X141427642Y-108709640D01*
X141044326Y-108958305D01*
X140729033Y-109153708D01*
X140504495Y-109281658D01*
X140393445Y-109327959D01*
X140364250Y-109317982D01*
X140220387Y-109213981D01*
X139985461Y-109008793D01*
X139675284Y-108717111D01*
X139305667Y-108353630D01*
X138892421Y-107933041D01*
X138661115Y-107692640D01*
X138300865Y-107312530D01*
X137992297Y-106979836D01*
X137751657Y-106712421D01*
X137595190Y-106528151D01*
X137539142Y-106444889D01*
X137559919Y-106387684D01*
X137658204Y-106211563D01*
X137818938Y-105955795D01*
X138021770Y-105653742D01*
X138169783Y-105438981D01*
X138463719Y-105010226D01*
X138775892Y-104552691D01*
X139059564Y-104134785D01*
X139613294Y-103316129D01*
X139241729Y-102628924D01*
X139155967Y-102467109D01*
X139009272Y-102172836D01*
X138907992Y-101945268D01*
X138870230Y-101823646D01*
X138918724Y-101783845D01*
X139103371Y-101685008D01*
X139407799Y-101539023D01*
X139812688Y-101354011D01*
X140298720Y-101138097D01*
X140846573Y-100899403D01*
X141436928Y-100646052D01*
X142050466Y-100386168D01*
X142667866Y-100127874D01*
X143269808Y-99879292D01*
X143836974Y-99648546D01*
X144350042Y-99443759D01*
X144789693Y-99273055D01*
X145136608Y-99144555D01*
X145371466Y-99066383D01*
X145474947Y-99046663D01*
X145477971Y-99047999D01*
X145573632Y-99139853D01*
X145723456Y-99331981D01*
X145896375Y-99584720D01*
X145949178Y-99664496D01*
X146450107Y-100271503D01*
X147046748Y-100773875D01*
X147714268Y-101159715D01*
X148427829Y-101417131D01*
X149162596Y-101534227D01*
X149893734Y-101499111D01*
X150544029Y-101356859D01*
X151200688Y-101101444D01*
X151786513Y-100729101D01*
X152343004Y-100218127D01*
X152520781Y-100017354D01*
X152958788Y-99368297D01*
X153253776Y-98667141D01*
X153408386Y-97934206D01*
X153425257Y-97189809D01*
X153307030Y-96454270D01*
X153056346Y-95747906D01*
X152675843Y-95091037D01*
X152168163Y-94503981D01*
X151535946Y-94007056D01*
X151379381Y-93911518D01*
X150663779Y-93586786D01*
X149918601Y-93414322D01*
X149163148Y-93389610D01*
X148416717Y-93508135D01*
X147698610Y-93765379D01*
X147028124Y-94156826D01*
X146424558Y-94677960D01*
X145907213Y-95324265D01*
X145893272Y-95345253D01*
X145717057Y-95595312D01*
X145567239Y-95782732D01*
X145474947Y-95868332D01*
X145402591Y-95857532D01*
X145191914Y-95790377D01*
X144865381Y-95671301D01*
X144442319Y-95508424D01*
X143942051Y-95309866D01*
X143383901Y-95083747D01*
X142787193Y-94838187D01*
X142171252Y-94581305D01*
X141555402Y-94321222D01*
X140958967Y-94066058D01*
X140401271Y-93823932D01*
X139901639Y-93602964D01*
X139479395Y-93411274D01*
X139153862Y-93256983D01*
X138944366Y-93148210D01*
X138870230Y-93093074D01*
X138880271Y-93047222D01*
X138952433Y-92867091D01*
X139078954Y-92600869D01*
X139241729Y-92287796D01*
X139613294Y-91600592D01*
X139059564Y-90781935D01*
X138895598Y-90540071D01*
X138589233Y-90090202D01*
X138282378Y-89641702D01*
X138021770Y-89262979D01*
X137879743Y-89053965D01*
X137703288Y-88782305D01*
X137582493Y-88580880D01*
X137537705Y-88482499D01*
X137556720Y-88440233D01*
X137673187Y-88287448D01*
X137878244Y-88051916D01*
X138151721Y-87754136D01*
X138473449Y-87414611D01*
X138823259Y-87053842D01*
X139180980Y-86692328D01*
X139526443Y-86350573D01*
X139839478Y-86049076D01*
X140099916Y-85808338D01*
X140287586Y-85648862D01*
X140382319Y-85591147D01*
X140400343Y-85594474D01*
X140547050Y-85663167D01*
X140800870Y-85809910D01*
X141138877Y-86020522D01*
X141538142Y-86280826D01*
X141975740Y-86576639D01*
X142096441Y-86659602D01*
X142521180Y-86950919D01*
X142896681Y-87207520D01*
X143200969Y-87414451D01*
X143412072Y-87556759D01*
X143508017Y-87619488D01*
X143512128Y-87621031D01*
X143629511Y-87602518D01*
X143867301Y-87531821D01*
X144195619Y-87420408D01*
X144584585Y-87279750D01*
X145004320Y-87121314D01*
X145424943Y-86956569D01*
X145816576Y-86796984D01*
X146149339Y-86654028D01*
X146393352Y-86539169D01*
X146518736Y-86463877D01*
X146526519Y-86456334D01*
X146565902Y-86402425D01*
X146605617Y-86311378D01*
X146649737Y-86165065D01*
X146702333Y-85945355D01*
X146767478Y-85634121D01*
X146849245Y-85213233D01*
X146951706Y-84664562D01*
X147078932Y-83969978D01*
X147105710Y-83825915D01*
X147188485Y-83413220D01*
X147266913Y-83066067D01*
X147333205Y-82817353D01*
X147379574Y-82699978D01*
X147418261Y-82680342D01*
X147604093Y-82647602D01*
X147912164Y-82621658D01*
X148313608Y-82602530D01*
X148779560Y-82590236D01*
X149281155Y-82584796D01*
X149789530Y-82586231D01*
G36*
X149789530Y-82586231D02*
G01*
X150275818Y-82594561D01*
X150711155Y-82609804D01*
X151066676Y-82631980D01*
X151313516Y-82661110D01*
X151422810Y-82697213D01*
X151438958Y-82734075D01*
X151489853Y-82917445D01*
X151561839Y-83227400D01*
X151649550Y-83639205D01*
X151747620Y-84128124D01*
X151850682Y-84669423D01*
X151905746Y-84964981D01*
X152001231Y-85471553D01*
X152084843Y-85907582D01*
X152152037Y-86249747D01*
X152198267Y-86474729D01*
X152218989Y-86559207D01*
X152223260Y-86562382D01*
X152331786Y-86616183D01*
X152559145Y-86718746D01*
X152875170Y-86857253D01*
X153249696Y-87018884D01*
X153652558Y-87190820D01*
X154053589Y-87360241D01*
X154422626Y-87514329D01*
X154729501Y-87640263D01*
X154944050Y-87725224D01*
X155036107Y-87756393D01*
X155068498Y-87742644D01*
X155222630Y-87651144D01*
X155482070Y-87485171D01*
X155826460Y-87258059D01*
X156235442Y-86983147D01*
X156688659Y-86673770D01*
X156936862Y-86504035D01*
X157372018Y-86211117D01*
X157753922Y-85959974D01*
X158061748Y-85764001D01*
X158274669Y-85636593D01*
X158371857Y-85591147D01*
X158424575Y-85622725D01*
X158582097Y-85754815D01*
X158820492Y-85971518D01*
X159119557Y-86252939D01*
X159459093Y-86579188D01*
X159818898Y-86930371D01*
X160178771Y-87286596D01*
X160518512Y-87627972D01*
X160817919Y-87934605D01*
X161056792Y-88186603D01*
X161214930Y-88364074D01*
X161272131Y-88447125D01*
X161249890Y-88493227D01*
X161146742Y-88662511D01*
X160971198Y-88935693D01*
X160736122Y-89293085D01*
X160454378Y-89714998D01*
X160138829Y-90181744D01*
X159005527Y-91848383D01*
X160150917Y-94626885D01*
X162148081Y-95003390D01*
X164145246Y-95379895D01*
X164145246Y-99536826D01*
X162148081Y-99913331D01*
X160150917Y-100289836D01*
X159005527Y-103068338D01*
X160138829Y-104734977D01*
X160362251Y-105064841D01*
X160655514Y-105502140D01*
X160905994Y-105880746D01*
X161100830Y-106180997D01*
X161227163Y-106383231D01*
X161272131Y-106467784D01*
X161240152Y-106519713D01*
X161106150Y-106674939D01*
X160886241Y-106909849D01*
X160600615Y-107204539D01*
X160269466Y-107539103D01*
X159912987Y-107893638D01*
X159551370Y-108248238D01*
X159204808Y-108583000D01*
X158893493Y-108878019D01*
X158637619Y-109113391D01*
X158457377Y-109269210D01*
X158372961Y-109325573D01*
X158336694Y-109312462D01*
X158174911Y-109221677D01*
X157908659Y-109055893D01*
X157558810Y-108828550D01*
X157146234Y-108553089D01*
X156691804Y-108242950D01*
X156443964Y-108072748D01*
X156012487Y-107779966D01*
X155635927Y-107528950D01*
X155334706Y-107333082D01*
X155129243Y-107205747D01*
X155039959Y-107160327D01*
X155035012Y-107161073D01*
X154921832Y-107201138D01*
X154690716Y-107293054D01*
X154371854Y-107424009D01*
X153995439Y-107581190D01*
X153591660Y-107751784D01*
X153190708Y-107922979D01*
X152822774Y-108081962D01*
X152518049Y-108215920D01*
X152306724Y-108312042D01*
X152218989Y-108357514D01*
X152211207Y-108384418D01*
X152176106Y-108547886D01*
X152117958Y-108839228D01*
X152041308Y-109235124D01*
X151950701Y-109712254D01*
X151850682Y-110247297D01*
X151797654Y-110529293D01*
X151696476Y-111046879D01*
X151603036Y-111499429D01*
X151522701Y-111862207D01*
X151460837Y-112110478D01*
X151422810Y-112219508D01*
X151385113Y-112239092D01*
X151200925Y-112271578D01*
X150894152Y-112297101D01*
X150493659Y-112315682D01*
X150028311Y-112327339D01*
X149526972Y-112332092D01*
X149018508Y-112329962D01*
X148531783Y-112320967D01*
X148095663Y-112305128D01*
X147739011Y-112282465D01*
X147490693Y-112252996D01*
X147379574Y-112216743D01*
X147367041Y-112194742D01*
X147313279Y-112030667D01*
X147242149Y-111746043D01*
X147161437Y-111373769D01*
X147078932Y-110946743D01*
X147052657Y-110802662D01*
X146930451Y-110137205D01*
X146832237Y-109614214D01*
X146753942Y-109215561D01*
X146691495Y-108923117D01*
X146640823Y-108718753D01*
X146597854Y-108584338D01*
X146558516Y-108501745D01*
X146518736Y-108452843D01*
X146512059Y-108447159D01*
X146372866Y-108367190D01*
X146118169Y-108248855D01*
X145777848Y-108103622D01*
X145381782Y-107942960D01*
X144959852Y-107778338D01*
X144541937Y-107621225D01*
X144157916Y-107483089D01*
X143837669Y-107375399D01*
X143611076Y-107309624D01*
X143508017Y-107297233D01*
X143494644Y-107305518D01*
X143365326Y-107391287D01*
X143126803Y-107552582D01*
X142801050Y-107774449D01*
X142410037Y-108041934D01*
X141975740Y-108340081D01*
X141856248Y-108421907D01*
X141427642Y-108709640D01*
X141044326Y-108958305D01*
X140729033Y-109153708D01*
X140504495Y-109281658D01*
X140393445Y-109327959D01*
X140364250Y-109317982D01*
X140220387Y-109213981D01*
X139985461Y-109008793D01*
X139675284Y-108717111D01*
X139305667Y-108353630D01*
X138892421Y-107933041D01*
X138661115Y-107692640D01*
X138300865Y-107312530D01*
X137992297Y-106979836D01*
X137751657Y-106712421D01*
X137595190Y-106528151D01*
X137539142Y-106444889D01*
X137559919Y-106387684D01*
X137658204Y-106211563D01*
X137818938Y-105955795D01*
X138021770Y-105653742D01*
X138169783Y-105438981D01*
X138463719Y-105010226D01*
X138775892Y-104552691D01*
X139059564Y-104134785D01*
X139613294Y-103316129D01*
X139241729Y-102628924D01*
X139155967Y-102467109D01*
X139009272Y-102172836D01*
X138907992Y-101945268D01*
X138870230Y-101823646D01*
X138918724Y-101783845D01*
X139103371Y-101685008D01*
X139407799Y-101539023D01*
X139812688Y-101354011D01*
X140298720Y-101138097D01*
X140846573Y-100899403D01*
X141436928Y-100646052D01*
X142050466Y-100386168D01*
X142667866Y-100127874D01*
X143269808Y-99879292D01*
X143836974Y-99648546D01*
X144350042Y-99443759D01*
X144789693Y-99273055D01*
X145136608Y-99144555D01*
X145371466Y-99066383D01*
X145474947Y-99046663D01*
X145477971Y-99047999D01*
X145573632Y-99139853D01*
X145723456Y-99331981D01*
X145896375Y-99584720D01*
X145949178Y-99664496D01*
X146450107Y-100271503D01*
X147046748Y-100773875D01*
X147714268Y-101159715D01*
X148427829Y-101417131D01*
X149162596Y-101534227D01*
X149893734Y-101499111D01*
X150544029Y-101356859D01*
X151200688Y-101101444D01*
X151786513Y-100729101D01*
X152343004Y-100218127D01*
X152520781Y-100017354D01*
X152958788Y-99368297D01*
X153253776Y-98667141D01*
X153408386Y-97934206D01*
X153425257Y-97189809D01*
X153307030Y-96454270D01*
X153056346Y-95747906D01*
X152675843Y-95091037D01*
X152168163Y-94503981D01*
X151535946Y-94007056D01*
X151379381Y-93911518D01*
X150663779Y-93586786D01*
X149918601Y-93414322D01*
X149163148Y-93389610D01*
X148416717Y-93508135D01*
X147698610Y-93765379D01*
X147028124Y-94156826D01*
X146424558Y-94677960D01*
X145907213Y-95324265D01*
X145893272Y-95345253D01*
X145717057Y-95595312D01*
X145567239Y-95782732D01*
X145474947Y-95868332D01*
X145402591Y-95857532D01*
X145191914Y-95790377D01*
X144865381Y-95671301D01*
X144442319Y-95508424D01*
X143942051Y-95309866D01*
X143383901Y-95083747D01*
X142787193Y-94838187D01*
X142171252Y-94581305D01*
X141555402Y-94321222D01*
X140958967Y-94066058D01*
X140401271Y-93823932D01*
X139901639Y-93602964D01*
X139479395Y-93411274D01*
X139153862Y-93256983D01*
X138944366Y-93148210D01*
X138870230Y-93093074D01*
X138880271Y-93047222D01*
X138952433Y-92867091D01*
X139078954Y-92600869D01*
X139241729Y-92287796D01*
X139613294Y-91600592D01*
X139059564Y-90781935D01*
X138895598Y-90540071D01*
X138589233Y-90090202D01*
X138282378Y-89641702D01*
X138021770Y-89262979D01*
X137879743Y-89053965D01*
X137703288Y-88782305D01*
X137582493Y-88580880D01*
X137537705Y-88482499D01*
X137556720Y-88440233D01*
X137673187Y-88287448D01*
X137878244Y-88051916D01*
X138151721Y-87754136D01*
X138473449Y-87414611D01*
X138823259Y-87053842D01*
X139180980Y-86692328D01*
X139526443Y-86350573D01*
X139839478Y-86049076D01*
X140099916Y-85808338D01*
X140287586Y-85648862D01*
X140382319Y-85591147D01*
X140400343Y-85594474D01*
X140547050Y-85663167D01*
X140800870Y-85809910D01*
X141138877Y-86020522D01*
X141538142Y-86280826D01*
X141975740Y-86576639D01*
X142096441Y-86659602D01*
X142521180Y-86950919D01*
X142896681Y-87207520D01*
X143200969Y-87414451D01*
X143412072Y-87556759D01*
X143508017Y-87619488D01*
X143512128Y-87621031D01*
X143629511Y-87602518D01*
X143867301Y-87531821D01*
X144195619Y-87420408D01*
X144584585Y-87279750D01*
X145004320Y-87121314D01*
X145424943Y-86956569D01*
X145816576Y-86796984D01*
X146149339Y-86654028D01*
X146393352Y-86539169D01*
X146518736Y-86463877D01*
X146526519Y-86456334D01*
X146565902Y-86402425D01*
X146605617Y-86311378D01*
X146649737Y-86165065D01*
X146702333Y-85945355D01*
X146767478Y-85634121D01*
X146849245Y-85213233D01*
X146951706Y-84664562D01*
X147078932Y-83969978D01*
X147105710Y-83825915D01*
X147188485Y-83413220D01*
X147266913Y-83066067D01*
X147333205Y-82817353D01*
X147379574Y-82699978D01*
X147418261Y-82680342D01*
X147604093Y-82647602D01*
X147912164Y-82621658D01*
X148313608Y-82602530D01*
X148779560Y-82590236D01*
X149281155Y-82584796D01*
X149789530Y-82586231D01*
G37*
D11*
X149965000Y-114772936D02*
X149965000Y-115227064D01*
X151435000Y-114772936D02*
X151435000Y-115227064D01*
M02*
