M48
INCH,TZ
T1C0.0079
T2C0.0118
T3C0.0197
T4C0.0236
T5C0.0472
T6C0.1260
%
G90
G05
T1
X54469Y-44429
X54469Y-44843
X54469Y-45256
X54961Y-44429
X54961Y-44843
X54961Y-45256
X55453Y-44429
X55453Y-44843
X55453Y-45256
X59980Y-38248
X59980Y-38661
X59980Y-39075
X60394Y-38248
X60394Y-38661
X60394Y-39075
X60807Y-38248
X60807Y-38661
X60807Y-39075
T2
X46024Y-43346
X46299Y-30154
X46299Y-39055
X46299Y-39646
X46299Y-44134
X46299Y-46610
X46811Y-44685
X47165Y-31020
X47165Y-32752
X47165Y-35350
X47165Y-37949
X47323Y-41732
X48031Y-30154
X48031Y-31020
X48031Y-32752
X48031Y-33618
X48031Y-37083
X48031Y-37949
X48031Y-39681
X48031Y-44012
X48031Y-44878
X48898Y-31020
X48898Y-32752
X48898Y-37083
X48898Y-37949
X48898Y-44878
X48937Y-35551
X49213Y-46063
X49528Y-29843
X49764Y-32752
X49764Y-33618
X49764Y-34484
X49764Y-41413
X49764Y-44878
X50000Y-46063
X50236Y-47441
X50630Y-27555
X50630Y-32752
X50630Y-33618
X50748Y-30630
X51102Y-41890
X51102Y-42205
X51102Y-42520
X51417Y-29843
X51417Y-30197
X51496Y-27555
X51496Y-32752
X51496Y-41413
X51496Y-44012
X51496Y-45744
X51496Y-46610
X51496Y-47476
X51575Y-38189
X52362Y-37083
X52362Y-37949
X52362Y-44878
X52579Y-45906
X53228Y-27555
X53228Y-29287
X53228Y-36217
X53228Y-37083
X53228Y-37949
X53228Y-38815
X53228Y-43146
X53622Y-30945
X53898Y-30709
X54094Y-27555
X54094Y-29287
X54094Y-35350
X54094Y-36217
X54094Y-37083
X54094Y-41413
X54094Y-48343
X54094Y-49209
X54567Y-48740
X54961Y-27555
X54961Y-34484
X54961Y-35350
X54961Y-36217
X54961Y-39681
X54961Y-40547
X54961Y-41413
X55000Y-43701
X55276Y-45906
X55276Y-48740
X55315Y-43701
X55354Y-29213
X55591Y-28976
X55630Y-43701
X55827Y-33661
X55827Y-40547
X55827Y-46610
X55827Y-47476
X55827Y-49209
X55906Y-26890
X56260Y-32953
X56260Y-33425
X56299Y-30157
X56693Y-34484
X56693Y-35350
X56693Y-36217
X56693Y-40547
X56693Y-48343
X56693Y-49209
X56772Y-36693
X57205Y-36102
X57323Y-30709
X57441Y-33661
X57559Y-28421
X57559Y-29287
X57559Y-31886
X57559Y-32752
X57559Y-39681
X57559Y-40547
X57559Y-41413
X57559Y-48343
X57559Y-49209
X57717Y-44921
X57717Y-45197
X57717Y-45472
X57874Y-36693
X58031Y-27244
X58071Y-44803
X58071Y-45079
X58071Y-45354
X58108Y-42244
X58425Y-28421
X58425Y-29287
X58425Y-31020
X58425Y-32752
X58425Y-46610
X58425Y-47476
X58425Y-48343
X58425Y-49209
X58583Y-37441
X58583Y-38819
X58604Y-43953
X58622Y-43622
X58937Y-41457
X59131Y-35947
X59291Y-31020
X59291Y-31886
X59291Y-33618
X59291Y-48343
X59291Y-49209
X59370Y-36220
X59643Y-36459
X59752Y-40085
X59919Y-36735
X60000Y-42165
X60000Y-43780
X60039Y-35945
X60157Y-31020
X60157Y-31886
X60157Y-32752
X60157Y-49209
X60201Y-41901
X60315Y-43780
X60551Y-35157
X61024Y-27555
X61024Y-28421
X61024Y-29287
X61024Y-31020
X61024Y-31886
X61024Y-32752
X61024Y-37874
X61299Y-37677
X61535Y-38296
X61575Y-41457
X61614Y-46614
X61614Y-47480
X61811Y-35630
X61811Y-49016
X61811Y-49488
X61850Y-37051
X61890Y-27555
X61890Y-28421
X61890Y-29287
X61890Y-31020
X61890Y-31886
X61890Y-32752
X61890Y-45039
X61890Y-45315
X61890Y-45591
X62019Y-37874
X62244Y-44921
X62244Y-45197
X62244Y-45472
X62244Y-45906
X62391Y-35630
X62598Y-36457
X62756Y-27555
X62756Y-28421
X62756Y-29287
X62756Y-31020
X62756Y-31886
X62756Y-32752
X62756Y-37949
X62913Y-45000
X63228Y-29488
X63228Y-29961
X63622Y-39681
X63622Y-40547
X63622Y-41413
X63701Y-38307
X63780Y-38661
X63819Y-42913
X64173Y-46496
X64331Y-29488
X64331Y-29961
X64331Y-38307
X64331Y-38661
X64488Y-27555
X64488Y-35350
X64488Y-41413
X64685Y-40079
X65315Y-38661
X65315Y-43780
X65354Y-27555
X65354Y-36217
X65354Y-49209
X65709Y-45748
X65827Y-42913
X65984Y-46732
X66220Y-36217
X66220Y-37083
X66220Y-37949
X67087Y-30154
X67087Y-37083
X67087Y-37949
X67087Y-38815
X67087Y-43146
X67953Y-29287
X67953Y-30154
X67953Y-37949
X67953Y-38815
X67953Y-39681
X67953Y-44012
X68819Y-27555
X68819Y-29287
X68819Y-30154
X68819Y-33618
X68819Y-44878
X68819Y-48343
X68819Y-49209
X69685Y-28421
X69685Y-34484
X69685Y-35350
X69685Y-49209
X70551Y-27555
X70551Y-29287
X70551Y-34484
X70551Y-35350
X70551Y-41413
X70551Y-47476
X70551Y-49209
X71417Y-28421
X71417Y-29287
X71417Y-34484
X71417Y-35350
X71417Y-41413
X71417Y-47476
X71969Y-28858
X71969Y-41378
X71969Y-44882
X72283Y-27555
X72283Y-28421
X72283Y-31020
X72283Y-31886
X72283Y-33618
X72283Y-34484
X72520Y-40394
X72992Y-32323
X72992Y-35472
X72992Y-37480
X72992Y-39488
X72992Y-43346
X73150Y-27555
X73150Y-28421
X73150Y-29287
X73150Y-34484
X73150Y-41413
X73150Y-46339
X73150Y-47476
X73150Y-48343
X73150Y-49209
X73780Y-32323
X73780Y-35472
X73780Y-37480
X73780Y-39488
X73780Y-43346
X74016Y-27555
X74016Y-28421
X74016Y-29287
X74016Y-34484
X74016Y-41413
X74016Y-46339
X74016Y-47476
X74016Y-48343
X74016Y-49209
X74567Y-32323
X74567Y-35472
X74567Y-37480
X74567Y-39488
X74567Y-43346
T3
X45984Y-28543
X45984Y-48228
X46261Y-27875
X46261Y-29211
X46261Y-47560
X46261Y-48896
X46929Y-27598
X46929Y-29488
X46929Y-47283
X46929Y-49173
X47597Y-27875
X47597Y-29211
X47597Y-47560
X47597Y-48896
X47874Y-28543
X47874Y-48228
X65669Y-28543
X65669Y-48228
X65946Y-27875
X65946Y-29211
X65946Y-47560
X65946Y-48896
X66614Y-27598
X66614Y-29488
X66614Y-47283
X66614Y-49173
X67282Y-27875
X67282Y-29211
X67282Y-47560
X67282Y-48896
X67559Y-28543
X67559Y-48228
T5
X54921Y-46811
X56921Y-46811
X59331Y-46811
X60709Y-46811
T6
X46929Y-28543
X46929Y-48228
X66614Y-28543
X66614Y-48228
T4
G00X48772Y-27726
M15
G01X48772Y-27411
M16
G05
G00X48772Y-29431
M15
G01X48772Y-28998
M16
G05
G00X52173Y-27726
M15
G01X52173Y-27411
M16
G05
G00X52173Y-29431
M15
G01X52173Y-28998
M16
G05
M30
