G04 #@! TF.GenerationSoftware,KiCad,Pcbnew,9.0.5*
G04 #@! TF.CreationDate,2025-12-14T20:02:12+01:00*
G04 #@! TF.ProjectId,s3main,73336d61-696e-42e6-9b69-6361645f7063,0.1.1*
G04 #@! TF.SameCoordinates,Original*
G04 #@! TF.FileFunction,Soldermask,Bot*
G04 #@! TF.FilePolarity,Negative*
%FSLAX46Y46*%
G04 Gerber Fmt 4.6, Leading zero omitted, Abs format (unit mm)*
G04 Created by KiCad (PCBNEW 9.0.5) date 2025-12-14 20:02:12*
%MOMM*%
%LPD*%
G01*
G04 APERTURE LIST*
G04 Aperture macros list*
%AMRoundRect*
0 Rectangle with rounded corners*
0 $1 Rounding radius*
0 $2 $3 $4 $5 $6 $7 $8 $9 X,Y pos of 4 corners*
0 Add a 4 corners polygon primitive as box body*
4,1,4,$2,$3,$4,$5,$6,$7,$8,$9,$2,$3,0*
0 Add four circle primitives for the rounded corners*
1,1,$1+$1,$2,$3*
1,1,$1+$1,$4,$5*
1,1,$1+$1,$6,$7*
1,1,$1+$1,$8,$9*
0 Add four rect primitives between the rounded corners*
20,1,$1+$1,$2,$3,$4,$5,0*
20,1,$1+$1,$4,$5,$6,$7,0*
20,1,$1+$1,$6,$7,$8,$9,0*
20,1,$1+$1,$8,$9,$2,$3,0*%
G04 Aperture macros list end*
%ADD10C,0.800000*%
%ADD11C,6.400000*%
%ADD12C,0.650000*%
%ADD13O,1.000000X2.100000*%
%ADD14O,1.000000X1.800000*%
%ADD15RoundRect,0.250000X-0.650000X-1.550000X0.650000X-1.550000X0.650000X1.550000X-0.650000X1.550000X0*%
%ADD16O,1.800000X3.600000*%
%ADD17RoundRect,0.250000X0.450000X-0.350000X0.450000X0.350000X-0.450000X0.350000X-0.450000X-0.350000X0*%
G04 APERTURE END LIST*
D10*
X116800000Y-72500000D03*
X117502944Y-70802944D03*
X117502944Y-74197056D03*
X119200000Y-70100000D03*
D11*
X119200000Y-72500000D03*
D10*
X119200000Y-74900000D03*
X120897056Y-70802944D03*
X120897056Y-74197056D03*
X121600000Y-72500000D03*
D12*
X131090000Y-73705000D03*
X125310000Y-73705000D03*
D13*
X132520000Y-74205000D03*
D14*
X132520000Y-70025000D03*
D13*
X123880000Y-74205000D03*
D14*
X123880000Y-70025000D03*
D10*
X166800000Y-72500000D03*
X167502944Y-70802944D03*
X167502944Y-74197056D03*
X169200000Y-70100000D03*
D11*
X169200000Y-72500000D03*
D10*
X169200000Y-74900000D03*
X170897056Y-70802944D03*
X170897056Y-74197056D03*
X171600000Y-72500000D03*
X166800000Y-122500000D03*
X167502944Y-120802944D03*
X167502944Y-124197056D03*
X169200000Y-120100000D03*
D11*
X169200000Y-122500000D03*
D10*
X169200000Y-124900000D03*
X170897056Y-120802944D03*
X170897056Y-124197056D03*
X171600000Y-122500000D03*
D15*
X150700000Y-118900000D03*
D16*
X154200000Y-118900000D03*
D15*
X139500000Y-118900000D03*
D16*
X144580000Y-118900000D03*
D10*
X116800000Y-122500000D03*
X117502944Y-120802944D03*
X117502944Y-124197056D03*
X119200000Y-120100000D03*
D11*
X119200000Y-122500000D03*
D10*
X119200000Y-124900000D03*
X120897056Y-120802944D03*
X120897056Y-124197056D03*
X121600000Y-122500000D03*
D17*
X154200000Y-116100000D03*
X154200000Y-114100000D03*
X150700000Y-116000000D03*
X150700000Y-114000000D03*
M02*
